<?xml version="1.0" encoding="UTF-8"?><svg id="Layer_1" xmlns="http://www.w3.org/2000/svg" viewBox="0 0 512 512"><defs><style>.cls-1{fill:#fff;}.cls-2{fill:#65b147;}.cls-3{fill:#a3c907;}.cls-4{fill:#222020;}.cls-5{fill:#262324;}</style></defs><path class="cls-4" d="M9.53,488.33c4.96-26.12,5.94-53.96,6.89-80.54,1.84-53.81,1.33-107.73-1.53-161.49-1.41-26.83-4.15-53.53-6.98-80.25-1.57-15.79-4.13-34.74-4.82-50.55-.84-19.95,4.17-27.72,25.26-27.36,10.12,.03,20.17-.38,30.28-.76,40.44-1.59,80.76-5.85,121.23-6.98,40.48-1.41,81.04-1.43,121.55-.61,13.58,.31,27.1,.66,40.67,1.8,5.15,.48,10.35,1.02,15.47,2.11,2.91,.77,5.91,1.28,8.56,3.42,1.2,.98,2.53,3.14,2.18,5.02-.32,1.72-.52,3.53-.7,5.35-2.48,30.13-3.35,60.45-5.55,90.63-3.22,49.69-7.5,101.72-9.12,151.34-1.2,43.47-.94,87.54,6.23,130.49,.99,4.35,1.79,9.03,4.1,12.48,.26,.34,.49,.46,.28,.34-.1-.04-.3-.09-.47-.08,20.72-.91,41.38-.18,62.06,.44,26.98,.94,53.94,1.74,80.89,1.59,1.15,0,2.08,.92,2.09,2.06,0,1.15-.92,2.08-2.06,2.09-45.93-.24-95.41,.34-141.42,1.98-6.1,.83-9.15-4.4-10.76-8.96-3.38-10.1-4.05-20.58-4.83-30.95-1.54-31.47-.25-69.64-.23-101.43,.7-66.96,.68-135.68,6.22-202.37,1.75-18.41,3.23-38.09,6.13-55.78-.04,.29,.03,.72,.15,.95,.15,.31,.24,.32,.16,.26-1.39-1.05-3.55-1.51-5.47-2.03-4.76-1.11-9.63-1.69-14.55-2.17-26.66-2.39-53.72-1.96-80.52-1.37-53.07,1.54-108.43,3.79-161.68,3.77-19.58,.09-41.05,1.04-60.7,1.69-8.01,.64-21.69-1.23-27.06,5.04-1.58,2-2.24,4.92-2.45,8.02-.36,6.41,.61,13.07,1.5,19.51,4.2,26.56,8.71,53.41,10.78,80.32,5.84,67.43,2.52,135.17,.08,202.66-1,26.69-2.84,54.37-1.34,81.09,.16,2.93-2.09,5.43-5.02,5.59-3.4,.22-6.2-2.99-5.5-6.33h0Z"/><g><g><g><path class="cls-3" d="M420.19,274.79l-30.09,16.87s22.72-16.39,21.77-34.99c-.14-2.72,8.31,18.13,8.31,18.13Z"/><path class="cls-1" d="M421.76,275.81c-1.18,.28-2.31,.51-3.32,1.01-4.22,2.26-7.38,5.34-11.58,7.84-3.12,2.13-7.43,2.48-10.45,4.73-1.57,1.68-3.03,3.3-5.33,4.02l-2.16-3.39c2.36-1.03,4.35-2.81,5.79-4.96,1.49-2.15,3.48-3.73,5.51-5.37,2.05-1.6,4.06-3.37,5.33-5.64,1.14-2.28,1.31-5.01,2.64-7.2,.62-1.09,1.38-2.16,1.88-3.34,.7-1.78,.79-3.73,.61-5.6-.03-.29-.17-1.11-.17-1.42-.01-.68,.52-1.36,1.24-1.45,.65-.08,1.08,.22,1.41,.56,1.84,2.32,3.17,4.81,3.81,7.67,.95,3.69,2.37,7.24,4.02,10.65,.1,.12,.32,.18,.51,.19,.06,.02,.08-.04,.16,.05,.26,.46,.23,1.13,.1,1.64h0Zm-2.18-5.94l-1.05,4.33c-.08,.35-.02,.8,.14,1.08,.07,.05,.08-.05,.12-.06,.31-.3,.24-.63,.09-.97-1.23-3.4-2.65-6.76-4.61-9.81-.77-1.1-1.4-2.24-1.86-3.46-.46-1.11-.99-2.51-1.38-3.53,.04,.03,.1,.09,.17,.13,.7,.53,2.01,.06,2.04-.95,0,0-.01-.07-.01-.01l-.03,.26-.1,1.04c-.18,2.06-.66,4.06-.9,6.11-.16,1.36-.17,2.82-.53,4.17-.59,2.8-2.93,4.7-4.59,6.81-3.14,4.26-4.77,10.1-9.53,13.03-2.43,1.44-4.36,3.11-6.26,5.23l-2.16-3.39c1.11-.85,2.25-1.58,3.74-1.83,1.46-.2,2.92-.57,4.09-1.45,2.31-1.55,3.91-3.66,6.48-4.83,3.93-2.06,8.89-3.55,12.86-5.87,.75-.45,1.23-1.22,1.54-1.95l1.75-4.08h0Z"/></g><path class="cls-4" d="M388.12,292.74c-6.69-6.84-8.57-14.39-4.13-23.06,2.24-5.5,6.76-10.72,13.48-9.55,9.3,1.23,14.4,10.36,15.16,18.91l-.45,.21c-1.89-1.98-3.39-4.35-4.92-6.2-3.78-4.36-8.54-9.15-14.63-8.65-3.31,.15-6.26,2.63-7.13,5.84-.76,2.43-.2,5.05,.21,7.39,.41,2.39,.7,4.76,1.27,7.14,.53,2.34,1.39,4.99,1.59,7.76l-.45,.21h0Z"/><g><path class="cls-3" d="M395.13,288.75l-24.27,13.6s-11.6-19.96-9.93-18.8c20.93,14.53,34.2,5.2,34.2,5.2Z"/><path class="cls-1" d="M393.59,289.57c-.85,.79-.82,.64-2.38,1.63-4.02,2.25-7.49,5.99-11.28,8.14-1.8,.75-4.08,.96-5.62,2.39-.85,.85-1.46,2.02-2.39,2.51l-1.78,.93-1.14-1.73c-.67-1.02-1.01-2.22-1.43-3.38-.77-2.38-2.81-4-4.13-6.03-1.76-2.96-2.22-6.47-3.4-9.68-.05-.23-.16-.5-.15-.76,.04-.95,1.02-1.23,1.71-.63,1.45,1.06,3.38,1.32,5.04,1.95,1.7,.63,2.98,1.83,4.44,2.91,2.97,2.01,6.83,1.91,10.2,2.02,1.74-.07,3.42,.41,5.15,.49,2.7-.1,5.54-.66,7.77-2.25,.11-.14,.07-.44,0-.63-.03,.01,.08-.09-.14,.06-.6,.37-.82,1.45-.47,2.06h0Zm3-1.81c.41,.64,.22,1.85-.46,2.26-.22,.15-.12,.06-.16,.08-.11-.06-.26-.14-.36-.17-.31-.13-.51,.07-.77,.17-2.03,.91-4.12,1.66-6.27,2.21-1.81,.34-3.81,1.05-5.65,1.15-3.21,.07-6.29-1.28-9.18-2.34-2.29-1.07-4.95-1.1-7.28-2.01-2.34-.85-4.15-3.73-5.93-4.8,.02,.02,.27,.09,.39,.06,.84-.2,.7-.82,.73-.77,1.32,2.68,4.42,5.21,5.87,8.14,1.03,2.17,1.36,4.74,3.02,6.6,.78,.95,1.65,1.84,2.19,2.91l-2.92-.8c1.08-.64,2.5-.6,3.67-.89,2.52-.85,4.25-3.01,6.52-4.41,3.07-1.96,6.91-2.82,9.95-4.08,2.45-1.01,3.9-1.82,6.65-3.32h0Z"/></g><g><path class="cls-3" d="M414.3,278.07l-28.92,16.21s11.28-12.02-3-29.92c-4.88-6.12,31.92,13.7,31.92,13.7Z"/><path class="cls-1" d="M416.12,278.31c-7.28,2.45-11.47,7.87-18.23,11.22-2.68,1.29-5.83,1.95-8.28,3.58-1.15,.8-2,2.16-3.2,3.01l-6.23,4.37c.18-.31,3.97-8.5,4.13-8.34,1.37-1.81,3.03-3.61,3.19-5.99,.17-1.33-.06-2.67-.19-3.95-.19-1.96-.19-3.93-.44-5.9-.23-2.76-1.04-5.61-2.7-7.86-.87-1.12-2.13-1.95-3.13-2.94-.64-.64-1.13-1.39-.96-2.39,.14-1.01,1.15-1.8,2.15-1.85,3.66-.03,5.93,3.14,9.2,4.16,3.35,1.43,6.94,2.33,10.18,4.02,4.08,2.73,8.19,5.47,12.71,7.44,.17,.05,.42-.08,.59-.18,.67,.21,1.1,.98,1.22,1.6h0Zm-3.7-1.08c.06,.55,.12,1.28,.53,1.74,.16,.18,.33,.29,.54,.35,.02,0,0-.02,0-.03,.04-.47-.28-.65-.63-.83-2.78-1.7-5.75-3.07-8.75-4.34-2.08-.67-4.17-1.32-6.03-2.48-3.76-2.09-7.21-5.05-11.55-5.81l-2.11-.33c-.71-.13-1.49-.25-1.91-.36,.02,0,.1,0,.15-.03,.82-.19,1.43-1.27,1.09-2.01-.01-.03-.03-.05-.05-.07-.01-.01,0,.01,0,.02,.29,.79,.74,1.59,1.05,2.38,2.32,5.63,7.66,10.28,7.12,16.8-.24,2.42-1.17,4.63-1.85,6.91-.68,2.35-1.22,4.84-3.1,6.59l-2.57-3.28c1.2-.5,2.77-.49,4.03-1.04,3.54-1.77,5.77-4.99,9.57-6.33,3.59-1.6,8-3.16,11.59-5.1,1.84-.89,2.01-1.6,2.89-2.74h0Z"/></g><g><path class="cls-3" d="M407.22,282.07l-37.76,20.38s18.15-11.86,4.91-24.67c-.52-.5,8.23,.18,16.53,4.57,6.96,3.68,16.32-.28,16.32-.28Z"/><path class="cls-1" d="M408.82,281.34c-1.52,.82-3.79,2.07-5.2,2.92-4.83,2.73-8.01,5.65-13.21,8.67-2.61,1.46-5.72,2.38-8.34,3.78-1.76,.79-2.65,2.37-4.16,3.49-2.29,1.68-5.35,2.22-7.71,3.64l-1.62-2.72c1.91-1.46,3.15-3.91,4.99-5.48,2.45-2.35,5.86-5.66,4.39-9.42-.47-1.15-1.26-2.08-1.85-3.05-.79-1.18-1.37-2.7-2.15-4.02-.16-.24-.47-.71-.64-.94-.13-.31-.14-.66,.01-.96,.3-.53,.62-.61,1.06-.66,.8-.01,1.51,.15,2.24,.2,5,.64,10.69,.87,14.68,4.33,4.24,2.69,10.03,2.07,14.6,.31,.35-.1,.57-.5,.6-.87v-.06s.64-.27,1.18-.08c.61,.18,.96,.63,1.1,.92h0Zm-3.17,1.5c.12,.26,.47,.71,1.04,.88,.52,.19,1.3-.04,1.1-.11l-.1-.05-.19-.1c-.53-.31-1.34,.11-1.86,.23-4.74,1.2-9.7,1.95-14.48,.13-1.81-.77-3.82-1.06-5.59-1.92-3.35-1.32-7.36-3.54-10.83-3.17,.25-.09,.38-.14,.61-.52,.24-.36,.02-1.04-.18-1.2,.03,.02,.13,.1,.16,.12l.44,.3c3.2,1.93,4.77,4.71,4.42,8.48-.21,5.63-1.09,12.24-6.17,15.64-1.23,.8-2.45,1.42-3.7,2.23l-1.62-2.72c1.57-.74,2.86-1.91,4.23-2.84,2.1-1.7,5.24-1.45,7.51-2.76,2.14-1.12,3.73-2.77,5.83-3.86,4.67-2.21,11.37-4.56,16.32-7.22,.98-.5,2.15-1.15,3.06-1.53h0Z"/></g><g><path class="cls-3" d="M421.3,274.16l-20.2,11.33s.7-25.64,2.3-22.51c6.07,11.92,17.9,11.18,17.9,11.18Z"/><path class="cls-1" d="M423.05,273.77c-4.38,1.87-6.15,4.05-9.8,6.89-1.67,1.4-4.18,2.19-6.24,2.83-.99,.39-1.97,.74-2.6,1.63-.59,.88-1.25,1.82-2.25,2.26l-3.41,1.82,.19-3.77c.05-.96,.44-1.9,.61-2.85,.45-1.92-.49-3.86-.45-5.76,.08-2.92,1.78-5.66,2.04-8.51,.26-1.74-.78-3.59-.3-5.39,.29-1.65,2.19-2.91,3.7-1.56,.91,1.01,.68,1.81,1.03,2.94,.85,2.68,3.67,4.01,5.89,5.23,1.61,.72,2.78,2.29,4.52,2.8,1.57,.6,3.28,.99,4.96,.78,.07-.04,.15-.18,.2-.29,.7-.22,1.65,.38,1.91,.95h0Zm-3.71,.23c.24,.61,.54,1.37,1.33,1.52,.22,.02,.62,.07,.49-.1-.25-.38-.94-.2-1.34-.33-.74-.09-2.22-.3-2.97-.41-1.99-.44-4.05-.7-5.98-1.37-2.8-1.45-4.47-4.24-6.29-6.61-.8-.99-1.89-1.77-2.73-2.76-.09-.13-.19-.17,.04,.14,.72,.88,2.26,.61,2.74-.25-.47,1.52-1.7,3-1.76,4.64-.26,2.82,1.12,5.72,.91,8.58-.15,1.87-1.24,3.72-.94,5.65,.11,.95,.43,1.91,.42,2.85l-3.22-1.95c1.17-.88,2.97-.2,4.17-1.01,1.12-.59,1.91-1.7,2.78-2.47,2.97-1.97,7.33-2.51,10.64-4.37,1.57-.75,1.14-.79,1.71-1.75h0Z"/></g><g><polygon class="cls-1" points="471.29 352.03 408.85 387.04 368.95 303.51 421.03 274.32 471.29 352.03"/><path class="cls-4" d="M473.41,352.77c-5.91,2.48-11.29,5.28-16.65,8.52-10.22,5.96-20.6,12.77-30.87,18.68-5.12,2.98-10.86,6.08-16.21,8.56-.82,.49-1.93,.24-2.34-.66-2.15-5.42-4.31-10.83-6.92-16.04-2.67-5.13-6.18-9.87-8.49-15.18-3.24-7-5.86-14.29-9.54-21.09-4.64-8.46-9.15-17-12.79-25.95l-2.2-5.36c-.42-.81-.12-1.83,.71-2.22,8.95-4.37,17.96-8.66,26.31-14.12,8.22-5.69,16.86-10.61,25.99-14.68,.58-.34,1.34-.19,1.67,.41,3.83,6.82,8.23,13.2,12.67,19.65,3.9,5.78,9.59,13.75,13.17,19.6,6.81,11.68,13.77,23.18,21.2,34.49l1.6,2.46c.55,.89,1.32,2.02,2.69,2.95h0Zm-3.85-1.87c-.36-.9-1.84-3.02-2.39-3.92-5.18-8.05-10.56-16.14-16.02-24.02-6.7-8.89-13.05-19.18-18.73-28.75-3.93-6.51-7.91-13.08-12.46-19.21l1.67,.41c-4.18,2.72-8.32,5.51-12.68,7.9-6.5,3.67-13.52,6.38-20.06,10.01-6.53,3.63-12.83,7.64-19.12,11.68l.71-2.22,2.79,5.08c4.68,8.46,8.48,17.33,12.15,26.25,2.98,7.13,7,13.76,10.41,20.67,2.68,5.13,4.16,10.84,6.47,16.14,2.41,5.27,5.23,10.33,8.08,15.37l-2.38-.76c3.53-2.32,7.49-4.78,11.18-6.85,11.46-6.41,23.85-12.2,35.41-18.42,2.2-1.23,5.62-2.99,7.72-4.28,2.67-1.67,4.92-3.36,7.25-5.09h0Z"/></g><g><path class="cls-4" d="M412.64,279.04c8.68,12.9,15.75,26.63,21.77,40.91,3.2,7.03,5.61,14.42,8.56,21.55,2.86,7.21,7.07,13.74,10.98,20.41l-3.81,.36c.48-2.62,1.11-5.2,1.83-7.76,.7-2.56,1.47-5.11,2.27-7.64,.24-1.07,1.34-1.75,2.4-1.41,5.01,1.85,9.98,3.86,14.73,6.33l-.15,.48c-5.29-.63-10.5-1.75-15.66-3.03l2.48-1.38c-1.1,5.2-2.25,10.4-3.96,15.44-.27,1.16-1.46,1.91-2.61,1.51-.57-.19-1-.63-1.21-1.15-1.42-3.6-2.59-7.31-4-10.91-1.4-3.61-3.05-7.09-4.87-10.5-7.62-13.43-15.38-26.84-21.24-41.16-2.97-7.13-5.78-14.34-7.97-21.84l.45-.21h0Z"/><path class="cls-4" d="M455.92,347.49c-8.89-10.32-15.4-22.24-21.26-34.45-6.04-11.64-12.47-24.41-18.21-36.15l.44-.24c6.99,11.03,14.51,23.21,21.27,34.45,5.42,8.56,10.74,17.18,14.59,26.59,1.34,3.11,2.6,6.27,3.62,9.56l-.44,.24h0Z"/></g><path class="cls-4" d="M382.82,309.87c-2.38-2.9-4.34-6.03-6.17-9.26-1.78-3.32-3.8-6.62-4.56-10.34-1.17-7,.44-17.06,6.09-21.77,5.14-4.39,12.96-2.28,17.55,1.89,3.11,2.61,5.26,6.13,6.63,9.9,2,5.2,3.79,10.39,4.98,15.88,.05,.25-.29,.42-.45,.21-3.43-4.45-6.24-9.17-8.92-14.05-2.26-4.22-5.31-8.65-9.52-10.91-9.13-4.85-16.27,3.75-13.95,12.77,.79,3.36,2.27,6.54,3.62,9.68,1.47,3.38,2.78,6.81,3.82,10.35,.53,1.77,1.01,3.57,1.34,5.44,.05,.25-.3,.42-.45,.21h0Z"/><path class="cls-4" d="M383.65,309.43c-.29-.37-1.03,.22-1.18,.62-.35,.74,.56,.98,.95,.38,.36-.5-.15-1.23-.62-1.03-.19,.13,.16,.33,.61,.16,.68-.2,.89-.88,.1-1.16-.97-.45-2.63,1.34-1.06,1.7,.44,.09,1.3-.22,1.2-.68h0Zm.44-.24c.37,.4,1.2,.47,1.65,1.04,1.52,1.59-.96,3.93-2.73,3.39-1.33-.3-2.33-1.41-1.98-2.72,.16-.69,.34-1.09,.17-1.56-.35-.69-.62-1.8,.18-2.55,.82-.84,2.38-.63,2.66,.49,.26,.66-.16,1.41,.05,1.9h0Z"/><path class="cls-4" d="M407.72,295.94c-.34-.32-1.05,.25-1.21,.67-.51,1.52,1.89,1.05,2.01-.02,.17-.82-.51-.99-1.04-.52-.78,.68,.1,.91-.02,.07-.12-.69-1.3-.68-1.4,0-.04,.84,1.85,.47,1.66-.2h0Zm.44-.24c.31,.43,1.17,.48,1.6,1.04,1.32,1.59-1.18,3.42-2.56,2.16-.36-.3-.52-.63-.69-.81-.31-.39-.74-.45-1.41-.67-2.04-.63-1.84-3.74,.06-4.62,1.14-.59,2.69-.29,2.98,.95,.25,.67-.13,1.43,.02,1.95h0Z"/></g><g><g><path class="cls-3" d="M385.44,316.57l-29.05,8.12s22.69-9.23,25.73-25.24c.44-2.34,3.32,17.12,3.32,17.12Z"/><path class="cls-1" d="M386.58,317.78c-5.37-.24-9.43,3.05-14.5,4.44-3.09,1.17-6.83,.56-9.86,1.86-1.63,1.09-3.32,2.21-5.36,2.32l-1.15-3.35c2.21-.38,4.28-1.48,5.94-3.02,1.71-1.52,3.72-2.45,5.79-3.42,2.08-.93,4.15-2.02,5.7-3.68,1.44-1.7,2.14-3.99,3.72-5.57,1.62-1.5,3.18-3.23,3.64-5.46,.21-.78,.34-1.63,.4-2.43,.01-.59,.34-1.22,.97-1.37,.66-.18,1.22,.22,1.46,.62,1.16,2.36,1.77,4.82,1.73,7.43,.05,3.33,.51,6.64,1.21,9.88,.06,.12,.24,.22,.4,.27,.04,.03,.08-.02,.13,.08,.13,.45-.03,1.01-.25,1.43h0Zm-.57-5.65l-1.86,3.6c-.15,.28-.18,.68-.11,.95,.05,.06,.07-.02,.11-.03,.14-.09,.27-.24,.3-.37-.28-3.29-.86-6.59-1.92-9.72-.83-2.03-1.07-4.61-1.28-6.58,.45,.72,1.77,.66,2.04-.27,0,0,0-.06,0-.01-.04,.12-.33,.94-.38,1.08-.58,1.71-1.4,3.32-2.03,5.01-.42,1.13-.72,2.36-1.31,3.44-1.07,2.26-3.46,3.39-5.31,4.84-3.55,2.97-6.14,7.61-10.79,9.12-2.36,.72-4.35,1.74-6.4,3.16l-1.15-3.35c1.12-.49,2.24-.88,3.56-.78,1.28,.13,2.6,.12,3.78-.39,2.28-.84,4.08-2.31,6.5-2.77,3.46-.88,7.67-1.12,11.25-2.09,1.13-.21,2-.7,2.59-1.59l2.41-3.25h0Z"/></g><path class="cls-4" d="M354.48,325.21c-2.49-4.14-4-9.3-2.51-14.06,.79-2.41,2.3-4.5,3.77-6.4,1.49-1.88,3.1-3.76,5.46-5,4.85-2.84,11.35,.3,14.18,4.62,2.93,4.23,3.38,9.32,2.78,14.26l-.43,.09c-2.14-4-3.34-8.2-6.15-11.58-2.27-3.12-5.63-5.64-9.59-5.11-4.87,.65-6.46,5.58-6.42,9.85-.14,2.08-.39,4.23-.4,6.33-.03,2.09,.14,4.53-.26,6.92l-.43,.09h0Z"/><g><path class="cls-3" d="M361.26,323.26l-23.43,6.55s-5.73-19.35-4.56-18.03c14.79,16.67,27.99,11.48,27.99,11.48Z"/><path class="cls-1" d="M359.78,323.65c-.89,.5-.82,.37-2.36,.89-3.88,1.08-7.6,3.55-11.26,4.59-1.69,.27-3.66-.04-5.26,.87-.9,.55-1.65,1.42-2.55,1.64l-1.71,.42-.62-1.71c-.36-1-.39-2.1-.52-3.17-.16-2.19-1.57-3.98-2.26-5.98-.89-2.88-.55-5.97-.88-8.93,0-.19-.05-.26,.03-.67,.08-.49,.92-1.06,1.59-.18,1.37,1.58,3.62,2.15,5.05,3.68,1.37,1.49,2.51,3.43,4.47,4.26,1.83,.98,3.87,1.43,5.77,1.97,1.94,.33,3.7,1.67,5.77,1.72,1.86,.22,3.82,.17,5.57-.55,.12-.1,.14-.36,.12-.54-.64,.08-1.15,.99-.96,1.68h0Zm2.94-.92c.22,.64-.2,1.63-.87,1.84-.22,.09-.12,.03-.16,.03-.08-.08-.2-.17-.27-.22-.24-.18-.45-.05-.69-.01-1.91,.35-3.84,.56-5.79,.58-.96,0-2.38-.05-3.36-.02-4.66,0-7.89-3.86-11.81-5.71-1.01-.46-2.1-.86-2.97-1.54-1.85-1.25-2.52-3.67-3.98-5.23-.04-.04-.11-.12-.12-.12,.07,.07,.21,.17,.38,.18,.76,0,.77-.56,.78-.5,.33,1.54,1.44,3.54,2.23,5.16,.99,1.94,1.36,4,1.44,6.16,.08,2.19,1.54,3.96,2.11,5.98l-2.33-1.29c1.05-.32,2.25,0,3.31,0,2.32-.2,4.24-1.68,6.45-2.41,3.01-1.03,6.46-.97,9.3-1.41,2.29-.35,3.69-.74,6.34-1.45h0Z"/></g><g><path class="cls-3" d="M379.76,318.15l-27.92,7.81s12.06-7.88,3.63-26.04c-2.88-6.2,24.3,18.24,24.3,18.24Z"/><path class="cls-1" d="M381.27,318.73c-6.7,.57-11.37,4.33-17.81,5.78-2.55,.54-5.36,.44-7.78,1.32-1.15,.44-2.14,1.43-3.34,1.9l-7.31,2.87,5.79-6.21c.68-.69,1.73-1.41,2.5-2.09,1.91-1.48,2.43-3.98,2.63-6.23,.48-3.17,1.36-6.43,.94-9.67l-.2-.9c-.31-1.89-1.56-3.38-2.61-4.91-.39-.63-.68-1.44-.32-2.24,.33-.84,1.36-1.3,2.22-1.13,3.12,.73,4.39,3.9,6.96,5.44,3.03,2.32,6.65,3.94,9.15,6.91,2.23,2.69,4.87,5.05,7.56,7.27,.21,.15,.36,.39,.67,.32,.07,0,.16-.05,.25-.06,.53,.32,.74,1.06,.71,1.63h0Zm-2.94-1.7c-.06,.49-.17,1.13,.09,1.6,.1,.19,.22,.32,.38,.41,.01,0,0-.02,.02-.03,.13-.39-.11-.61-.36-.84-2.01-2.02-4.26-3.8-6.54-5.49-1.63-.99-3.28-1.98-4.61-3.35-2.76-2.55-5.08-5.78-8.62-7.33l-1.73-.72c-.57-.25-1.22-.52-1.55-.7,.02,0,.09,.01,.13,0,.74,0,1.49-.79,1.35-1.49,.21,1.57,.68,4.18,1.31,5.98,1.31,3.78,2.99,7.93,1.65,11.95-.71,2.01-1.96,3.69-3,5.49-1.07,1.86-2.04,3.86-4,4.97l-1.51-3.34c1.12-.18,2.46,.16,3.64-.05,3.37-.77,5.93-3.05,9.43-3.4,3.38-.62,7.45-1.03,10.9-1.94,1.75-.38,2.03-.95,3.02-1.75h0Z"/></g><g><path class="cls-3" d="M372.92,320.08l-36.3,9.53s17.87-6.34,9.27-19.95c-.34-.53,6.96,1.86,13.1,7.3,5.16,4.57,13.93,3.13,13.93,3.13Z"/><path class="cls-1" d="M374.44,319.79c-1.46,.38-3.65,.98-5.03,1.41-4.67,1.33-7.97,3.15-13.01,4.65-2.52,.71-5.36,.84-7.87,1.49-1.66,.31-2.74,1.47-4.25,2.12-2.29,.96-5.01,.78-7.31,1.5l-.82-2.66c1.92-.85,3.48-2.67,5.36-3.63,2.56-1.49,6.16-3.59,5.68-7.09-.22-1.35-.86-2.43-1.17-3.69-.36-1.14-.48-2.39-.91-3.53l-.21-.61c-.07-.46,.28-.96,.7-1.07,.59-.16,1.13,.17,1.57,.3,4.42,1.71,9.51,2.98,12.45,7.02,3.05,3.16,8.1,3.83,12.34,3.27,.32-.01,.59-.31,.69-.62v-.05s.61-.1,1.04,.18c.49,.28,.69,.74,.75,1.01h0Zm-3.03,.62c.05,.25,.25,.7,.71,.96,.41,.27,1.12,.24,.96,.14-.25-.25-.59-.48-.94-.42-4.57,.16-9.3-.15-13.24-2.84-.91-.7-2.02-1.22-2.99-1.82-3.03-1.98-5.72-4.74-9.27-5.81-.25-.06-.56-.12-.69-.1,0,0-.02,.01,.04,.01,.01,0,.09,0,.21-.03,.18-.06,.18-.06,.38-.24,.32-.26,.3-.91,.14-1.12,.02,.02,.09,.11,.11,.13l.31,.35c3.87,3.73,2.4,7.33,.85,11.73-1.29,3.47-3.62,7.13-7.3,8.41-1.21,.42-2.38,.7-3.61,1.13l-.82-2.66c2.24-.46,4.04-1.83,6.31-2.07,1.47-.14,3.4,.24,4.82-.26,2.04-.51,3.74-1.59,5.74-2.08,2.68-.62,5.96-.92,9.34-1.52,3.06-.49,6-1.28,8.93-1.9h0Z"/></g><g><path class="cls-3" d="M386.52,316.27l-19.51,5.45s5.89-21.65,6.6-18.65c2.7,11.39,12.91,13.2,12.91,13.2Z"/><path class="cls-1" d="M388.1,316.3c-4.11,.68-6.06,2.18-9.75,3.84-1.71,.85-4.01,1-5.89,1.11-.95,.13-1.85,.24-2.55,.85-.68,.63-1.44,1.29-2.38,1.46l-3.3,.85,.95-3.18c.24-.81,.76-1.53,1.11-2.3,.78-1.54,.38-3.38,.8-4.99,.67-2.47,2.69-4.44,3.5-6.8,.58-1.43,.07-3.22,.85-4.65,.51-1.17,2.15-1.98,3.25-.85,.14,.13,.24,.29,.32,.45,.23,.5,.19,.65,.21,.72-.03,1.39-.14,2.88,.72,4.08,1.5,2.37,3.83,3.62,5.5,6,1.42,1.18,3.13,2.18,4.99,2.41,.07,0,.16-.14,.23-.21,.64-.02,1.33,.67,1.44,1.22h0Zm-3.23-.6c.08,.58,.18,1.31,.83,1.61,.19,.06,.51,.2,.43,.03-.1-.39-.76-.38-1.07-.57l-1.22-.47c-1.69-.6-3.16-1.48-4.83-2.18-3.9-1.89-4.12-6.82-6.58-9.92-.11-.2-.24-.4-.34-.61-.05-.13-.12-.18,0,.13,.44,.91,1.82,.99,2.4,.35-.72,1.2-2.07,2.2-2.46,3.57-.8,2.34-.22,5.09-.99,7.48-.51,1.56-1.83,2.9-1.97,4.6-.1,.83-.03,1.72-.22,2.51l-2.35-2.33c.81-.32,1.65-.06,2.5,.1,2.51,.26,3.73-2.15,6.19-2.13,2.26-.25,5.47-.4,7.88-.99,.96-.17,1.18-.39,1.26-.49l.54-.68h0Z"/></g><g><polygon class="cls-1" points="412.93 392.77 352.63 409.63 335.97 330.41 386.25 316.35 412.93 392.77"/><path class="cls-4" d="M414.83,393.98c-10.81,1.54-20.68,5.22-30.96,8.56-10.58,3.53-21.71,7.17-32.69,9.11-.72-5.58-1.42-11.18-2.69-16.66-1.23-4.91-3.38-9.63-4.22-14.62-1.29-6.62-1.92-13.38-3.69-19.9-2.26-8.13-4.38-16.31-5.55-24.68-.12-.97-.84-5.74-.97-6.7,6.88-1.45,13.78-2.85,20.54-4.77,6.28-1.79,12.28-4.57,18.57-6.31,4.58-1.34,9.32-2.15,14-3.1,.95,3.65,2.09,7.24,3.39,10.77,3.31,9.31,7.74,19.63,10.83,29.02,2,6.51,3.65,12.86,5.89,19.27,1.51,4.64,3.24,9.81,4.9,14.45l.86,2.43c.27,.87,.76,2.06,1.81,3.15h0Zm-3.26-2.76c-4-12.4-8.85-24.73-13.75-36.8-1.97-5.43-4.43-13.21-6.12-18.8-1.96-6.34-3.96-12.75-6.62-18.87l1.52,.8c-4.1,1.49-8.18,3.06-12.39,4.18-8.41,2.23-17.15,3.21-25.41,6.09-4.16,1.29-8.26,2.79-12.37,4.22l1.21-1.99,1.36,4.88c2.3,8.14,3.65,16.47,4.86,24.83,1.01,6.69,3.16,13.13,4.64,19.71,1.24,4.91,1.18,10.09,2.03,15.08,.95,4.98,2.34,9.85,3.78,14.72l-2.14-1.3c3.46-1.28,7.3-2.57,10.86-3.56,11.05-3.08,22.79-5.31,33.89-8.18,2.1-.65,5.41-1.32,7.43-2.03,2.65-.9,4.87-1.92,7.21-2.98h0Z"/></g><path class="cls-4" d="M378.18,318.62c4.78,18.89,9.72,39.99,14.26,59.06,1.63,6.55,3.28,13.1,4.42,19.76l-4.68-.68c2.35-4.02,4.73-8.01,7.25-11.92,.46-.92,1.62-1.3,2.48-.69,1.9,1.33,3.77,2.7,5.64,4.08,1.61,1.23,3.96,3.02,5.49,4.33l-.26,.43c-4.25-1.7-8.6-3.75-12.7-5.78l2.48-.69c-1.88,4.26-3.9,8.45-5.96,12.62-.61,1.23-2.1,1.73-3.33,1.12-.74-.37-1.2-1.04-1.35-1.8-1.6-6.56-2.7-13.22-3.81-19.88-2.04-11.73-5.1-28.3-7.06-39.88-1.14-6.66-2.29-13.31-3.38-19.97l.49-.1h0Z"/><path class="cls-4" d="M400.77,385.74c-5.75-10.48-8.8-21.99-11.17-33.61-2.68-11.16-5.44-23.35-7.8-34.54l.48-.13c3.75,10.79,7.7,22.68,11.17,33.61,2.9,8.38,5.71,16.79,6.88,25.62,.46,2.93,.82,5.89,.92,8.92l-.48,.13h0Z"/><path class="cls-4" d="M346.41,338.68c-1.56-2.96-2.62-6.02-3.54-9.11-.86-3.19-1.92-6.43-1.76-9.77,.46-5.24,2.62-10,5.74-14.07,5.6-6.96,14.23-4.9,18.99,1.86,2.15,2.89,3.25,6.38,3.63,9.91,.57,4.85,.96,9.64,.68,14.58-.01,.25-.38,.33-.49,.1-2.15-4.46-3.63-9.03-4.96-13.73-1.39-5.13-3.72-11.07-8.98-13.07-6.15-2.41-11.23,3.92-10.88,9.77,0,2.66,.77,6.26,1.18,8.89,.79,4.82,1.3,9.58,.88,14.54-.01,.25-.38,.33-.49,.1h0Z"/><path class="cls-4" d="M347.24,338.47c-.3-.54-1.71,.4-1.15,.91,.16,.14,.53,.12,.75-.09,.41-.35,.13-1.09-.31-1.01-.19,.07,.07,.32,.49,.26,.63-.04,.94-.57,.32-.98-.74-.58-2.53,.6-1.27,1.24,.36,.17,1.16,.08,1.17-.33h0Zm.42-.12c.23,.42,.93,.65,1.19,1.23,.97,1.68-1.64,3.16-3.04,2.33-1.08-.53-1.69-1.69-1.13-2.73,.28-.56,.52-.86,.47-1.29-.15-.66-.16-1.67,.68-2.14,.87-.55,2.16-.05,2.17,.97,.08,.61-.43,1.17-.36,1.63h0Z"/><path class="cls-4" d="M370.48,331.97c-.22-.34-.95,0-1.17,.33-.75,1.2,1.41,1.29,1.73,.4,.32-.67-.23-.96-.78-.67-.39,.17-.49,.51-.28,.48,.09-.01,.24-.18,.25-.42,.04-.62-.97-.85-1.2-.29-.21,.71,1.48,.79,1.46,.18h0Zm.42-.12c.18,.43,.9,.65,1.15,1.21,.81,1.62-1.73,2.68-2.63,1.31-.25-.33-.31-.64-.42-.84-.18-.4-.54-.53-1.07-.86-1.61-.95-.79-3.58,1.01-3.93,1.1-.27,2.36,.31,2.34,1.43,.07,.63-.41,1.19-.39,1.67h0Z"/></g><g><path class="cls-4" d="M310.83,421.83c-4.26,16.5-7.41,33.3-9.5,50.2-.1,1.54-1.97,2.36-3.2,1.46-3.09-1.73-6.46-3.04-9.66-4.6l-1.6-.79c-2.28-1.9-4.13-4.45-6.53-6.17-5.8-4.06-11.78-7.83-17.93-11.33l-6.22-3.4c-2.03-1.33-4.84-1.3-7.06-2.12l4.76,.4c-.37,.63-.98,.68-1.65,.62-1.26-.07-2.91-.95-4.17-.75-2.9,.71-5.69,1.88-7.85,4.05-4.23,4.26-10.64-1.7-6.65-6.23,.87-.97,2.06-1.33,3.27-1.52,1.18-.23,2.33-.54,3.46-.89,2.22-.79,4.67-1.22,6.45-2.84,.47-.4,.97-.72,1.54-.87,.56-.18,1.21-.15,2.43,1.17l2.73,.23c.02,.51,.36,.53,.58,.72,7.68,4.66,15.24,10.36,22.75,15.25,2,1.25,3.95,2.57,5.99,3.76,2.55,1.48,5.51,2.34,8.13,3.7,1.32,1.09,2.78,2.34,4.05,3.5,1.77,1.6,3.54,3.2,5.42,4.62l-3.2,1.46c1.46-8.38,2.15-16.88,3.02-25.34,.71-8.51,1.36-17,1.43-25.56,.42-6.98,10.64-5.63,9.17,1.27h0Z"/><path class="cls-4" d="M320.76,410.17c.17,3.67,1.35,7.43,3.52,10.35,.26,.24,.37,.58,.35,.91-.33,3.61-.4,7.24-.49,10.87-.04,1.74-.1,3.47-.18,5.2-.07,1-.05,2.96-.41,3.87-.99,3.79-2.42,7.53-3.03,11.36-.52,3.42-.88,6.85-1.32,10.28-1.5,11.98-2.39,24.12-3.17,36.18-.32,1.84,.45,3.61,.9,5.35l-5.21-6c1.6-.78,2.94,.26,4.19,1.35,1.25,1.25,2.57,1.62,4.18,1.81,2.81,.4,5.61,.54,8.4-.21,1.82-.54,3.74,.51,4.27,2.33,.69,2.19-1.11,4.51-3.4,4.41l-.94-.03c-4.2-.03-8.42-.26-12.6,.36-1.4,.22-2.8,.35-4.2-.1l-2.43-.79c-1.83-.59-2.8-2.63-2.1-4.42l.96-2.49c.55-1.58,1.16-5.93,1.51-7.64,2.47-13.45,4.9-27.43,6.56-40.96,.49-4.29,.06-8.71,.34-13.03,.52-2.45,1.13-5.19,1.73-7.61,.82-3.38,1.65-6.75,2.26-10.16l.3,1.39c-.29-.87-.91-1.52-1.45-2.23-1.77-2.19-3.8-4.11-6.38-5.41-2.75-1.29-3.94-4.56-2.66-7.31,2.51-5.32,10.53-3.46,10.48,2.37h0Z"/><path class="cls-4" d="M308.28,293.41c8.62,3.31,18.32,5.97,27.27,8.28,4.61,1.06,9.17,2.38,13.88,2.98,4.7,.64,9.51,.77,14.21,1.42l-4.34,2.56c2.32-2.92,3.6-6.21,4.69-9.68,1.96-6.57,4-13.82,5.47-20.55,.82-3.45,1.49-6.95,2.24-10.43,.56-1.45,1.15-2.77,1.67-4.29,.69-2,2.6-3.93,4.85-3.63,1.44,.23,3.26,1.23,4.6,1,3.52-.61,6.93-1.57,9.87-3.69,1.52-1.14,3.67-.83,4.8,.69,1.38,1.79,.56,4.53-1.56,5.28l-.87,.31c-1.25,.44-3.71,1.36-4.93,1.86-3.12,1.14-6.05,2.64-8.99,4.15-.42,.21-.79,.07-1.41,.13-.51,.03-.88,.34-1.07,.73l.14-.38c-2.12,5.66-5.46,14.31-7.36,19.98-1.63,5.05-3.51,10.06-4.54,15.28-.32,1.75-.54,3.54-.47,5.41,.05,1.54-1.16,2.84-2.7,2.89-.52,.08-1.15-.22-1.64-.33-4.56-1.32-9.01-3.15-13.56-4.48-4.55-1.36-9.25-2.01-13.89-2.92-9.11-1.54-19.05-3.01-28.28-3.52-2.59-.13-4.57-2.34-4.44-4.92,.11-3.13,3.47-5.3,6.36-4.13h0Z"/><path class="cls-4" d="M223.26,206c1.52-.68,1.6-1.42,1.66-2.19l.39-2.26c1.91-10.77,6.67-20.42,13.57-29.02,2-2.47,4.45-4.58,7.2-6.2,10.86-6.48,24.83-7.02,36.54-2.65,19.09,6.69,21.54,17.55,28.32,34.49,5.55,13.9,11.62,32.99-.56,45.29-4.7,4.72-10.01,8.33-15.71,11.61-2.85,1.54-5.93,2.64-9.08,3.02-3.16,.41-6.4-.39-9.45-.75-6.26-.59-12.25,.68-18.59-.17-3.22-.37-6.42-1.28-9.36-2.71-11.76-5.72-18.86-17.89-21.82-30.06-1.31-4.55-1.38-9.19-3-13.68-.5-1.6-1.04-3.2-1.6-4.81l1.49,.1h0Zm8.53,.57c-1.42,2.51-2.5,5.35-2.47,8.22,.25,2.79,.85,5.55,1.77,8.19,3.64,10.37,11.97,18.37,21.25,23.56,6.95,4.11,15.22,7.82,23.54,6.11,2.83-.7,5.45-2.19,8.06-2.92,2.62-.75,5.23-1.28,7.85-1.91,8.95-1.85,12.73-7.84,15.18-16.04,5.65-15.56,3.94-34.65-8.52-46.79-3.83-4.17-7.37-8.22-11.16-12.22-6.01-6.68-13.79-8.96-22.51-7.02-6.72,1.43-12.69,4.92-18.16,8.93l-3.33,2.39c-7.97,5.78-12.82,15.4-14.05,25.06l-.2,2.11c-.07,.7-.12,1.42,1.26,2.21l1.49,.1h0Z"/><g><path class="cls-2" d="M257.54,415.97s51.87-94.43,38.38-163.88c0,0,47.83,50.52,83.06,149.48,0,0-59.51,50.4-121.45,14.39Z"/><path class="cls-4" d="M253.54,416.16c-.11-.63,.3-1.96,.57-2.25l.11-.12,.21-.25,.43-.51c3.07-3.81,5.98-7.83,8.17-12.2,2.09-4.42,4.6-10.04,6.42-14.62,9.24-23.05,15.14-47.11,21.77-70.93,3.85-13.63,6.33-27.76,3.86-41.87-.87-7.07-1.33-14.07-2.31-21.11-.22-1.69,.97-3.24,2.66-3.47,1.08-.14,2.12,.31,2.78,1.09,1.23,1.48,2.32,2.89,3.44,4.34,7.42,10.21,16.01,19.71,23.38,29.94,8.33,11.82,14.56,24.97,20.74,37.98,3.11,6.5,6.17,12.99,9.55,19.34,3.39,6.34,7.29,12.46,10.47,18.93,6.67,12.82,9.42,27.24,14.7,40.59,.25,.64,.04,1.34-.47,1.74-8.65,6.96-17.85,12.88-27.78,17.81-9.93,4.87-20.6,8.57-31.65,9.68-16.49,1.61-33.4,.07-48.92-5.9-6.57-2.31-11.78-5.42-18.12-8.21h0Zm7.69-1.88l-.97,.93c-.1,.1,.09,.28,.34,.5,.32,.29,.89,.52,1.27,.75,12.8,7.17,27.47,10.81,42.13,10.6,5.32,0,10.61-.79,15.79-1.87,7.76-1.68,15.45-3.65,22.95-6.29,12.48-4.45,24.77-10.3,35.22-18.55l-.47,1.74c-4.33-13.67-12.27-25.86-17.15-39.25-2.61-6.64-4.77-13.51-7.7-20.03-2.92-6.53-6.48-12.74-10.16-18.86-7.54-12.12-15.98-23.6-23.61-35.64-7.35-12.06-14.77-24.39-25.23-34.06l5.39-2.77c1.73,7.11,2.67,14.47,2.12,21.78-.24,3.65-.82,7.26-1.25,10.84-1.9,17.85-2.17,36.16-7.32,53.48-4.68,17.25-12.05,33.96-19.41,50.21-1.42,3.12-5.31,11.61-6.75,14.63-1.84,4.09-3.18,8.5-4.53,12.79l-.41,1.32-.2,.67-.1,.34-.05,.17-.03,.09c.06-.07,.4-.82,.44-1.32,.12-.8-.07-1.52-.3-2.22h0Z"/></g><path class="cls-4" d="M233,254.25c-9.9,.67-20.17,.94-29.53-2.82-5.2-2.18-9.68-6.07-12.67-10.86-.21-.33-.39-.61-.52-.99-.09-.31-.29-.9-.01-1.79,.2-.73,1.01-1.47,1.64-1.65,3.07-.98,9.34,2.53,8.63,6.27-.4,2.63-3.28,3.75-5.25,4.21-13.86,3.19-26.79-6.81-34.25-17.64-4.39-6.2-8.34-18.31,1.88-21.15,3.31-.94,7.26,.03,8.93,3.32,3.21,6.41-3.63,13.94-10.24,11.2l-.48-.19-.35-.16-.67-.32c-11.77-6.23-12.59-21.72-9.21-33.02,1.25-3.9,3.07-8.35,6.75-10.94,2.74-1.93,6.77-1.65,8.99,1.12,2.42,2.91,.28,8.47-3.91,7.74-4.56-.99-6.47-9.57-7.37-13.38-2.74-13.25,2.04-28.52,13.67-36.26,6.65-4.51,14.67-6.84,22.56-7.47,10.49,.79,4.08,16.43-4.35,14.11-6.86-1.94-4.6-10.46-2.99-15.26,4.5-12.25,13.57-25.11,26.61-29.1,5.41-1.63,11.85-.56,16.43,2.84,1.76,1.26,3.2,2.53,4.21,4.79,1.51,3.23-.54,6.9-3.76,7.55-2.56,.73-5.92-.53-6.69-3.28-.67-2.29,0-4.05,.83-5.97,3.99-7.96,13.88-9.31,21.78-9.99,9.59-.43,22.83,.81,28.1,10.17,1.65,3.2,1.83,7.44-.55,10.4-3.2,4.44-13.26,5.7-14.67-.89-.35-3.36,2.23-5.46,4.47-7.07,7.21-4.91,16.67-3.76,24.29-.72,6.06,2.56,11.63,6.51,15.12,12.29,1.55,2.88,3.9,7.07,1.64,10.37-3.39,4.45-11.47,1.05-10.02-4.51,1.33-4.03,5.28-6.05,9.13-6.67,5.6-.71,11.13,2.01,15.19,5.24,9.67,7.7,18.41,24.6,10.44,35.99-1.45,1.9-3.19,4.56-5.93,5.14-6.06,.57-3.96-10.48,1.49-7.63,2.15,1.37,2.99,3.86,3.81,5.8,4.12,10.62,2.3,22.6-2.12,32.81-1.01,1.89-1.22,3.86-.96,6.13,.22,6.65-9.38,7.31-10.05,.67-.17-2.6,1.68-4.88,4.2-5.3,.87-.14,1.52-.71,2.02-1.25,1.37-1.76,2-3.95,2.85-5.99,3.47-9.21,4.33-20.77-1.33-29.16-.16-.19-.34-.32-.35-.31,0,0,.05,.04,.18,.05,.14,.02,.35,0,.49-.07,.29-.16,.25-.2,.21-.1-.05,.13-.16,.71-.07,.83,0,0,0-.01-.06-.12-.06-.1-.24-.28-.48-.37-.23-.1-.43-.09-.51-.08,2.81-2.35,5.42-6.81,4.89-10.91-.8-8.25-6.75-15.7-12.99-20.7-3.89-3.08-9.94-5.97-13.93-2.26-.1,.08-.05,.06-.06-.07,.02-.14,.02-.47-.1-.7-.11-.24-.26-.35-.3-.35-.06,0-.02,.05,.03,.09,.12,.12,.34,.13,.25,.2-.03,.04-.15,.14-.22,.26-1.03-12.35-22.84-24.03-33.61-14.62-.61,.56-1.77,1.8-1.84,2.46,0,.06,.11-.06,.09-.37-.01-.31-.22-.69-.34-.81-.26-.25,.01-.12,.36-.16,1.52-.08,3.66-1.09,3.02-2.93-1.71-6.34-15.85-10.04-21.86-10.46-6.54-.52-15.39,.55-18.36,7.14-.47,1.04-.7,3.33,.18,3.03,.16-.03,.46-.09,.66-.27,.21-.16,.2-.4-.03-.22-.1,.08-.19,.28-.23,.41-.04,.13-.05,.19-.13,.16-.24-.17-1.3-.8-2.4-1.47-5.52-3.38-11.84-1.15-16.55,2.86-6.75,5.58-15.53,17.75-16.76,26.41-.04-.04-.17-.34-.56-.64l-.15-.1c-.07-.04-.09-.05-.07-.04,.01,.03,0,.04-.03,.05-.09,.01-.22,.11-.05,.11,.33,.02,1.13-.71,1.47-1.41,.19-.33,.24-.7,.24-.66,0,.01,.04,.18,.19,.37,.14,.2,.39,.34,.47,.36-8.88,.71-18.73,5.32-23.51,13.09-5.85,9.07-6.85,22.98-3.77,33.26,0,.08-.09,.04-.34,.03-.26-.01-.54,.13-.59,.21-.08,.2,.24-.03,.29-.27,.18-.72-.32-.94-1.07-1.25-3.97-1.04-6.19,6.02-6.83,9.25-1.65,8.5-.14,20.61,8.02,24.34l.38,.15c.1,.03,.16,.08,.24,.07,.09,.02,.11,0,.1-.01-.02-.02-.26-.02-.36,.03-.11,.06-.09,.06-.08,.01,.02-.04,0-.11,.01,.1,0,.11,.04,.3,.17,.54,.13,.26,.37,.55,.64,.72,.53,.36,.77,.23,.55,.24-.06,.01-.12,.02-.18,.02l-.26,.05c-.14,.03-.15,.04-.17,.04,0,0,.19-.15,.19-.21-.56,2.37,1.3,6.15,2.82,8.78,2.81,4.75,6.74,9.1,11.27,12.32,4.93,3.51,11.04,5.55,16.57,3.76,.15-.05,.18-.11,.01,.12-.19,.19-.31,.98-.16,1.21,.11,.24,.12,.14,.02,.02-.44-.56-1.26-.96-1.92-1.27-.24-.1-.5-.18-.56-.19,0,0-.01,0,.06,0,.67,0,1.48-.64,1.71-1.39,.23-.89,.06-1.04-.05-1.4-.09-.16,.11,.19,.11,.18,3.78,6.67,10.94,10.7,18.68,11.13,5.62,.24,11.69-.96,16.4-4.12,4.81-5.37,12.78,1.39,8.32,7.01-1.28,1.65-3.33,1.94-5.21,2.12h0Z"/><path class="cls-4" d="M276.4,230.24c9.82,4.5,21.67,1.26,28.01-7.74,2.5-3.55,3.04-7.55,1.55-11.66-.4-1.11-.67-2.87-2.53-2.5-1.51,.3-2.19,1.45-2.21,3-.04,2.96,.77,6.09-2.01,8.43-3.68,3.09-7.9,5-12.62,5.78-4.34,.71-8.03-1.05-11.44-3.4-1.93-1.33-3.44-1.36-4.21,.93-.59,1.73-2.41,3.95,.89,5.17,1.56,.58,3.05,1.32,4.58,1.99Z"/><path class="cls-5" d="M277.08,203.33c.64-1.44,.74-2.92,.15-4.38-.71-1.74-1.49-2.53-3.1-.56-1.93,2.37-4.23,4.13-7.7,3.82-2.92-.26-3.32,2.4-3.52,4.32-.23,2.21,1.81,2.9,3.64,3.2,3.76,.6,9.02-2.65,10.54-6.4Z"/><path class="cls-5" d="M292.97,193.86c.94-2.38,.8-4.42-.98-6.02-2.02-1.81-2.71,.85-4.03,1.4-.67,.28-1.25,.84-1.81,1.33-2.03,1.8-4.93,3.99-2.49,6.61,1.99,2.14,5.11,.51,7.38-1.14,.83-.6,1.4-1.56,1.94-2.18Z"/><g><path class="cls-2" d="M242.93,140.34c-.08,.26-.25,.52-.23,.77,.36,4.97-1.68,7.46-6.91,6.96-1.4-.13-2.18,.77-2.29,2.26-.13,1.78,.19,3.27,2.05,3.97,2.39,.9,4.83,.68,7.2,0,2.5-.71,4.23-.48,4.43,2.6,.03,.4,.15,.81,.31,1.18,.8,1.93,1.87,4.09,4.21,3.65,2.64-.5,3.81-2.98,2.98-5.36-.98-2.79,.64-3.36,2.39-4.43,4.29-2.63,4.73-6.56,1.14-9.12-.66-.47-1.48-1.26-2.17-.73-4.51,3.46-7.33-.19-10.51-2.38-.8,.48-2.03-.84-2.59,.62Z"/><path class="cls-4" d="M212.05,143.78c-.99-5.14-.74-10.63-4.01-15.13-1.04-1.43-1.18-2.67-.23-4.05,1.08-1.57,2.62-1.21,4-.65,1.46,.6,2.81,.59,4.32,.26,10.16-2.24,20.58-2.74,30.82-4.95,8.84-1.91,17.84-2.94,26.27-6.48,2.69-1.13,4.35-.6,4.97,2.53,.83,4.24,1.56,8.52,3.57,12.44,.95,1.85,.17,3.19-1.68,3.81-1.27,.42-2.62,.62-3.95,.84-2.14,.35-3.02,.74-2.22,3.57,2.02,7.12,3.41,14.43,4.81,21.71,.62,3.24-1,4.89-4.42,4.4-1.66-.24-3.23,0-4.7,.83-3.55,2.02-7.46,3.05-11.3,4.36-7.15,2.44-14.37,4.87-21.01,8.51-2.26,1.24-4.62,1.25-6.88,2-1.63,.54-3.29-.82-3.11-2.34,.75-6.46-3.04-11.49-5.11-17.02-1.37-3.66-3.42-7.11-8.09-8.73-1.39-1.38-1.63-3.69-2.06-5.91Zm30.88-3.44c-6.52,2.16-13.03,4.32-19.55,6.47-1.26,.42-2.2,.78-1.13,2.45,3.59,5.59,5.4,12,8.05,18.03,1.2,2.72,2.81,3.92,5.6,2.83,11.9-4.66,23.76-9.42,35.66-14.06,1.62-.63,1.39-1.82,1.39-2.97,.02-6.04-1.49-11.8-3.73-17.33-.66-1.63-2.07-3.44-4.42-2.8-6.59,1.78-13.19,3.55-19.28,6.75-.8,.48-2.03-.84-2.59,.62Zm-22.21,2.99c7.16-3.97,15.08-5.88,22.75-8.38,8.69-2.84,17.63-4.93,26.47-7.35,.26-.07,.56-.25,.78-.18,1.9,.57,4.54,1.47,5.18-.73,.65-2.28-.07-5.06-1.34-7.42-.76-1.42-1.73-1.28-3.04-.94-18.13,4.78-36.7,7.11-55.23,9.62-2.72,.37-3.57,.93-2.41,3.87,1.12,2.85,1.3,6.07,1.9,9.12,.18,.92,.42,1.84,.62,2.66,1.59,1.13,3.25,.32,4.32-.27Z"/></g><path class="cls-4" d="M233.43,231.79c1.09,5.54,1.63,9.1-2.53,9.92-4.17,.82-10.34-2.48-11.43-8.02-1.09-5.54,1.09-9.46,4.98-7.74,4.9,2.17,7.9,.3,8.99,5.84Z"/><path class="cls-4" d="M305.63,301.82c-5.8,7.18-11.36,15.56-16.32,23.36-2.44,4.06-5.1,7.98-7.14,12.27-2.07,4.27-3.68,8.8-5.75,13.07l-.41,.85c-.65,1.34-2.26,1.89-3.59,1.25-1.75-1.31-2.93-2.84-5.05-4.05-4.52-2.81-9.53-4.73-14.37-6.91-6.34-2.76-13.39-5.35-19.87-7.69l.37,.15c-1.01-.31-1.4,1.03-1.65,1.69-.08,.14-.19,.13-.38,.04l-2.47,.6c-1.31-.36-2.62-1.88-3.94-2.54-1.28-.58-2.59-.59-3.93-.78-2.64-.24-5.27-.27-7.86,.43-4.36,1.11-6.21-5.21-1.87-6.59,.49-.18,1.34-.12,1.86-.12,5.26,.13,10.53-.07,15.73-.72l-2.23,.54c3.01-1.66,6.55-.52,9.54,.57l9.33,5.13c2.31,1.3,7.02,3.81,9.4,5,6.42,3.03,12.6,6.94,19.77,7.91l-4.81,1.51c2.67-3.92,5.79-7.58,8.46-11.51,3.84-5.69,7.12-12.53,10.35-18.62,3.05-6.19,6.39-13.03,8.84-19.49,.93-2.42,3.64-3.62,6.05-2.7,2.94,1.07,3.96,4.94,1.96,7.33h0Z"/></g><path class="cls-4" d="M188.65,241.53c.12,.92,.27,1.11,.45,1.12,1.24,.28,2.45,.62,3.66,1.01,2.19,.71,4.18,1.9,6.14,3.13,1.89,1.5,2.46,4.15,2.5,6.41,.03,2.43-.29,4.49-.38,6.94-.04,2.85-2.79,5.14-5.58,4.02-2.89-.92-4.47-6.3-.61-6.82,6.85-.46,14.83,4.26,14.83,11.84-.13,4.71-5,7.69-9.14,8.09-3.47,.68-6.68-2.64-5.69-6.12,.69-3.01,4.34-4.41,6.78-2.68,.75,.51,1.37,1.01,2.03,1.61,6.26,5.15,4.49,14.78-1.16,19.49-2.27,2.08-5.28,3.19-8.32,3.45-1.79,.11-3.07,.31-5.01-.28-2.8-.95-4.57-4.94-2.1-7.29,1.6-1.49,4.04-1.18,5.59-.23,12.95,6.71,6.17,22-7.01,21.38-3.3-.31-3.27-5.06,0-5.35,3.22-.18,7.52-2.68,7.35-6.2,.02-1.34-2.21-3.33-3.96-4.32-.37-.21,.2-.11,.73-.33,.41-.13,.93-.65,.95-1.05,.02-.31-.14-.39-.25-.36-.37,.08-.47,.73-.15,.89,.34,.21,.65-.14,1.11-.21,1.63-.53,3.02-1.69,4.28-2.78,1.67-1.46,3.35-2.82,4.73-4.42,2.55-2.66,3.46-6.35,.07-8.46-.29-.21-.69-.4-1.01-.57-.11-.05-.15-.02-.2,0-.09,.02-.09,.15,.18,.24,.25,.11,.83,.04,1.24-.24,1.52-.92,.74-2.97-.81-2.98-.04,.01-.11,0-.14,.03-.01,0,.05,0,.07,0l.39-.02c2.94-.16,5.36-1.15,4.36-4.55-.92-3.2-4.13-5.67-7.49-5.88-.54-.03-1.28-.05-1.45,.22-.04,.31,.54-.05,.66-.37,.23-.42,.11-.67,.33-.9,.23-.16,.62-.17,.58-.29-.02-.04-.23-.15-.74,0-.37,.38,.61,.39,1.02,.02,.42-.3,.72-.8,.8-1.35,.49-2.91-2.23-4.98-3.25-7.36-.62-2.71-3.6-4.34-6.27-4.24-.14-.01-.31,.14-.52,1.03-3.44-.34-3.06-5.44,.41-5.25h0Z"/><g><g><path class="cls-3" d="M269.92,356.96l-43.32-8.91s35.5,4.46,48.76-7.72c1.94-1.78-5.44,16.63-5.44,16.63Z"/><path class="cls-1" d="M270.28,358.6c-3.38-1.86-7.08-2.11-10.76-2.57-3.56-.37-7.23-.72-10.98-1.61-3.8-.92-7.49-3.02-11.15-3-3.84,.63-7.45-1.14-11.07-2.01l.45-2.73c2.77,.36,5.67-.28,8.47-.02,2.81,.17,5.62,.73,8.46,1.06,2.83,.3,5.71,.36,8.46-.54,1.38-.41,2.73-.84,4.11-1.08,1.37-.27,2.77-.33,4.19-.39,2.86,0,5.58-.93,8.03-2.23,2.2-1.16,4.08-2.7,5.89-4.36,.35-.24,.3-.33,1.08-.47,3.52,.26,.93,5,.12,6.66-1.49,3.25-2.83,6.62-4.07,9.97l-.35,1.02c-.18,.42-.24,.75,.1,1.13,.05-.06-.06,.25-.16,.41-.11,.19-.28,.36-.44,.48l-.37,.27h0Zm.63-4.12l-1.72,1.13c-.16,.1-.31,.25-.42,.42-.1,.14-.2,.44-.14,.35,.1-.02,.25-.04,.34-.08,.32-.11,.38-.4,.51-.66l.43-.98c1.94-4.51,3.44-9.37,4.2-14.19,.04,1.02,1.36,1.71,2.24,1.08l.05-.04c.07-.06-.11,.09-.12,.09-4.35,3.71-10.18,4.38-15.25,6.69-2.73,1.22-5.69,1.51-8.64,1.19-5.85-.64-11.52,1.44-17.34,1.28-2.92,0-5.72-1.04-8.63-1.34l.45-2.73c3.73,.61,7.21,.36,10.59,2.45,3.56,1.51,7.09,.9,10.51,1.46,5.18,.87,10.81,3.12,16.11,4.31,1.63,.45,3.25,.63,4.78,.12l2.03-.55h0Z"/></g><path class="cls-4" d="M223.87,347.46c-.11-10.16,5.23-16.04,15.14-17.47,2.7-.52,5.41-.91,8.27-.89,5.72-.14,11.8,3.44,14.39,9.11,2.59,5.78,.72,11.66-2.73,16.51l-.42-.13c.04-2,.39-4.04,.54-5.98,.48-6.43-3.01-12.75-8.77-15.65-6.28-3.58-12.25-2.6-17.15,2.62-1.75,1.67-3.48,3.28-4.83,5.29-1.44,2.08-2.48,4.61-4.03,6.72l-.42-.13h0Z"/><g><path class="cls-3" d="M233.91,349.48l-34.94-7.19s3.52-19.88,4.32-18.09c10.07,22.53,30.61,25.28,30.61,25.28Z"/><path class="cls-1" d="M232.4,349.18c-2.33-.27-5.71-1.02-8.43-1.32-4.58-.68-8.89-.54-13.13-1.52-2.55-.71-5.09-2.09-7.85-2.2-1.51-.02-3.05,.32-4.41,0l-1.7-.38,.21-1.81c.15-1.26,.78-2.42,1.14-3.64,.38-1.21,.41-2.48,.39-3.77-.21-3.61,1.93-6.79,3.32-10.01,.2-.38,.32-.78,.74-1.08,.58-.37,1.19,.03,1.35,.53,.23,.49,.48,.97,.77,1.43,1.83,2.49,4.05,4.62,5.21,7.56,2.64,5.85,9.19,7.88,13.81,11.73,2.8,1.85,6.02,3.16,9.33,3.71,.25,.03,.49,.12,.7-.1,.04-.05,.08-.08,.13-.16,.01-.03,.07-.06,.04-.1-.21-.05-.64-.05-1.04,.23-.38,.26-.54,.65-.59,.88h0Zm3.04,.52c-.07,.26-.25,.65-.68,.95-.42,.28-.87,.27-1.1,.22-.07-.05-.05-.08-.07-.12-.06-.16-.19-.34-.32-.42-.81-.25-2.43-.67-3.26-.94-3.65-1.21-7.43-2.34-10.83-4.16-2.2-1.4-4.06-3.27-5.81-5.16-1.77-1.89-3.37-3.83-5.43-5.49-2.05-1.7-3.41-4-4.06-6.56-.37-1.2-.72-2.39-1.28-3.51,.03,.06,0,.06,.2,.23,.21,.18,.69,.13,.85-.07-.13,.36-.26,.87-.31,1.32-.33,3.1,.19,6.36-1.24,9.25-.51,1.17-.95,2.36-1.03,3.62-.1,1.25,.08,2.56-.22,3.77l-1.49-2.19c1.55,.29,2.92,1.23,4.33,1.81,3.08,1.08,6.38,.84,9.62,1.39,4.53,.76,8.95,2.7,13.07,3.88,3.14,.92,5.45,1.4,9.07,2.2h0Z"/></g><g><path class="cls-3" d="M261.46,355.21l-41.63-8.57s20.59-.2,19.82-20.53c-.26-6.95,21.81,29.1,21.81,29.1Z"/><path class="cls-1" d="M262.65,356.29c-8.83-3.12-18.02-1.78-26.93-5.13-1.87-.63-3.66-1.19-5.43-1.45-1.75-.2-3.58,.3-5.41-.1-3.81-.84-13.68-4.2-17.57-5.27l12.5,.85c1.28,.09,2.74-.17,4.03-.63,5.81-2.6,14.03-5.32,14.41-12.85,.09-1.83-.32-3.66-.32-5.48,0-.66,.04-1.29,.51-1.89,2.98-2.95,5.28,2.92,6.69,4.72,2.58,3.61,5.69,6.81,8.19,10.46,.86,1.19,1.51,2.53,2.13,3.88,1.83,3.61,3.95,7.05,6.19,10.41,.19,.32,.41,.64,.85,.61,.49,.4,.42,1.38,.15,1.87h0Zm-2.21-2.38c-.25,.39-.49,.8-.42,1.33,.04,.23,.11,.41,.25,.56,.01,0,.01-.02,.02-.02,.1-.16,.12-.38,.09-.54-2.01-3.69-4.35-7.23-6.98-10.51-.97-1.11-1.93-2.23-2.69-3.48-3.14-4.74-5.23-10.7-10.13-13.96-.31-.21-.58-.4-.84-.48,.37,.27,1.14-.03,1.42-.41,.15-.23,.17-.26,.21-.4,.02,0,0-.08,.01-.02v.42c.03,1.96-.52,3.89-1.19,5.7-1.81,5.81-4.78,12.38-11.02,14.55-2.65,.96-6.53,1.06-9.31,1.46l.28-2.89c1.72,.18,3.42,.19,5.06,.61,1.64,.31,3.28,1.53,5,2.04,3.33,.94,6.43,.47,9.74,1.24,4.81,1.1,10.49,3.22,15.58,4.35,1.75,.49,3.3,.61,4.94,.46h0Z"/></g><g><path class="cls-3" d="M251.24,353.12l-53.77-11.68s27.42,4.32,23.81-12.17c-.14-.64,8.19,5.42,13.23,13.5,4.23,6.78,16.73,10.35,16.73,10.35Z"/><path class="cls-1" d="M252.74,353.53c-1.28-.26-4.36-.91-5.57-1.15-7.47-1.6-13.92-1.99-21.79-3.47-3.64-.74-7.3-2.14-10.9-2.93-2.32-.63-4.53-.24-6.89-.5-3.54-.42-6.96-2.04-10.4-2.67l.51-2.74c2.81,.27,5.77-.42,8.6-.1,5.65,.47,11.87,.98,13.35-5.87,.35-1.3,.81-3.02,.7-4.59-.19-.92,.77-1.53,1.51-1.11,3.46,2.51,6.8,5,9.84,8.03,2.39,2.18,3.07,5,4.93,7.44,3.52,3.99,8.78,6.49,13.85,8.05,.33,.11,.74,.04,1.04-.16l.08-.05,.02-.02c.06,.01-.09-.05,.13,.02,.25,.08,.64,.32,.86,.74,.22,.44,.19,.83,.14,1.07h0Zm-2.99-.77c-.05,.22-.09,.61,.11,1.03,.2,.42,.59,.66,.82,.73,.22,.06,.05,0,.1,0v-.03c-.12-.18-.23-.39-.39-.52-.24-.3-1.22-.56-1.56-.71-4.94-2.02-9.87-4.13-13.72-8.04-1.04-1.09-1.9-2.41-2.98-3.48-3.62-3.83-6.25-9.04-11.03-11.6,.09,.1,.54,.06,.74-.09,.32-.15,.51-.72,.42-.98,.1,.3,.22,.6,.31,.91,2.29,6.39-1.89,9.12-7.19,11.24-4.24,1.75-8.92,3.43-13.57,2.56-1.53-.29-2.99-.7-4.54-.96l.51-2.74c3.27,.83,6.57,.66,9.76,1.71,2.09,.7,4.36,2.07,6.55,2.42,3.12,.7,6.18,.74,9.26,1.45,4.09,.98,8.58,2.51,13.29,3.81,4.31,1.25,8.84,2.22,13.1,3.29h0Z"/></g><g><path class="cls-3" d="M271.52,357.29l-29.08-5.99s20.3-15.49,19.52-12.51c-2.97,11.33,9.56,18.5,9.56,18.5Z"/><path class="cls-1" d="M272.98,357.93c-1.15-.29-3.13-.75-4.18-.89-4.93-.8-10.18-.15-15.11-2.36-1.29-.42-2.55-.93-3.86-.75-1.26,.28-2.59,.43-3.87,0-1.31-.37-2.53-1.02-3.79-1.26l-3.15-.6,2.58-1.86c1.57-1.13,2.61-2.96,4.24-4.01,3.17-2.23,7.45-2.8,10.02-5.95,1-1.17,2.11-2.22,3.59-2.73,.59-.2,1.41-.43,2.28-.38,.78,.01,1.59,.79,1.42,1.65-.01,.16-.27,.74-.34,.9-1.2,3.01,.5,6.2,2.03,8.74,.44,.76,.77,1.64,1.17,2.43,1.13,2.01,2.89,3.68,4.8,4.95l.6,.35c.17,.11,.33,.21,.55,.08,.1-.07,.57,.3,.68,.48,.29,.4,.31,.86,.34,1.21h0Zm-2.88-1.36c-.03,.37-.1,.79,.16,1.21,.15,.24,.5,.48,.53,.38,0-.28-.18-.37-.36-.5l-.6-.46c-1.99-1.51-3.89-3.13-5.69-4.88-1.25-.97-2.18-2.28-2.73-3.77-.94-2.48-.85-5.16-.68-7.74,.08-.62,.25-1.89,.09-2.23,0,.01-.03,.14-.01,.21,0,.23,.23,.6,.47,.73,.27,.18,.4,.12,.49,.21-.1,.14-.51,.44-.83,.69-1.13,.85-2.42,1.32-3.82,1.74-1.93,.53-3.39,1.82-4.74,3.21-1.34,1.42-2.58,2.96-4.1,4.13-1.47,1.23-3.51,1.71-5,2.9l-.56-2.46c1.16,.26,2.36,.11,3.48,.23,1.27,.08,2.31,.82,3.4,1.5,2.05,1.19,4.29,.46,6.45,.93,4.11,1.03,9.52,3.67,14.05,3.96h0Z"/></g><g><polygon class="cls-1" points="262.58 437.94 172.68 419.44 196.15 341.78 271.13 357.21 262.58 437.94"/><path class="cls-4" d="M263.73,439.86c-18.83-5.89-37.89-7.35-57.11-11.27-11.51-2-22.73-5.82-34.15-8.14l-1.09-.23,.32-1.07c1.47-4.85,2.05-9.97,3.35-14.88,2.18-8.18,5.61-15.96,7.83-24.12,1.87-6.5,3.19-13.16,5.17-19.63,2.1-6.98,4.57-13.85,7.08-20.7,6.62,1.77,13.25,3.53,19.94,4.95,6.21,1.45,12.59,2.12,18.91,3.03,6.32,.93,12.55,2.34,18.7,4.09,6.43,1.87,12.97,3.27,19.54,4.49-.64,7.12-1.11,14.28-1.68,21.5-.58,6.88-1.24,13.83-2.39,20.44-1.85,11.63-3.16,23.59-4.41,35.35-.17,2.01-.65,3.91-.02,6.19h0Zm-1.78-3.87c.29-.72,.42-3.03,.54-3.88,.51-4.89,1.1-10.13,1.5-15.02,1.41-13.25,1.56-27.05,3.45-40.19,.88-6.55,1.85-13.15,2.67-19.8l.81,1.11c-6.23-1.41-12.49-2.61-18.84-3.4-6.35-.81-12.62-1.98-18.79-3.62-6.17-1.66-12.29-3.56-18.57-4.68-6.26-1.25-12.57-2.2-18.9-3.12l1.89-1.13c-1.58,6.58-3.24,13.15-5.2,19.62-1.94,6.48-4.53,12.76-6.56,19.2-2.68,8.02-4.12,16.4-6.84,24.42-1.63,4.81-3.98,9.39-5.45,14.24l-.77-1.3c3.72,.75,7.45,1.43,11.18,1.96,18.87,2.21,37.02,7.45,55.51,11.77,7.28,1.71,15.11,3.5,22.37,3.83h0Z"/></g><g><path class="cls-4" d="M258.97,354.73c-1.88,13.51-5.26,26.62-9.75,39.45-3.06,9.7-7.71,18.83-10.54,28.6-.93,3.25-1.6,6.58-2.22,9.93l-2.11-1.87c4.98-3,10.22-5.42,15.64-7.49,.82-.4,1.81-.18,2.38,.49,3.75,4.43,7.33,8.97,10.41,13.92l-.37,.34c-4.71-3.44-8.97-7.35-13.11-11.42l2.38,.49c-5.28,2.66-10.72,4.92-16.41,6.6-1.15,.4-2.3-.89-1.78-1.98,1.36-3.12,2.67-6.25,3.72-9.47,1.04-3.22,1.92-6.48,2.64-9.8,2.7-13.27,5.98-26.45,10.69-39.16,2.35-6.35,4.85-12.66,7.95-18.79l.48,.15h0Z"/><path class="cls-4" d="M250.58,425.22c-.37-11.95,2.14-23.59,5.3-35.02,2.68-11.16,5.75-23.28,8.73-34.33l.49,.1c-1.55,11.32-3.43,23.71-5.3,35.02-1.22,8.78-2.53,17.55-5.5,25.96-.92,2.82-1.94,5.62-3.23,8.37l-.49-.1h0Z"/></g><path class="cls-4" d="M205.39,354.68c.23-4.54,1.16-8.94,2.29-13.32,.67-2.81,1.73-5.7,3.72-7.84,4.95-5.29,13.72-7.85,20.78-7.75,8.09-.08,15.99,6.97,16.22,15.35,.2,3.05-.73,5.97-1.92,8.69-1.77,4.13-3.61,8.25-5.96,12.14-1.4,1.44,1.05-10.2,1.14-10.87,.28-1.47,.87-3.75,1.15-5.18,1.75-8.08-3.31-15.22-11.06-17.44-6.86-2.22-13.74,1.4-17.03,7.55-1.31,2.1-2.2,4.31-3,6.63-.96,2.52-1.99,4.99-3.2,7.4-.79,1.62-1.65,3.22-2.66,4.77-.13,.22-.5,.1-.48-.15h0Z"/><path class="cls-4" d="M206.6,354.96c-.04-.69-1.53-.09-1.37,.48,.04,.11,.17,.11,.26-.02,.21-.21,.14-.95-.16-1.04-.29-.03-.02,.37,.29,.38,.85,.14,.96-1.09,.25-1.16-.83,.09-.32,1.36,.27,1.49,.25,.09,.42,0,.46-.12h0Zm.43,.09c-.02,.55,.29,1.26,.02,1.93-.25,.94-1.24,1.36-2.13,1.22-1.8-.23-2.95-2.73-1.66-3.93,.55-.56,1.02-.71,1.33-1.1,.36-.49,.9-1.26,1.64-1.35,.86-.15,1.64,.6,1.54,1.48,0,.71-.59,1.22-.74,1.74h0Z"/><path class="cls-4" d="M241.25,362.09c-.22-.88-2.18,.35-1.22,.97,.4,.18,.86-.41,.68-.81-.06-.16-.26-.32-.44-.36-.42-.12-.64,.21-.41,.24,.3,.03,.66-.61,.56-.89-.03-.15-.15-.2-.23-.12-.37,.5,.79,1.59,1.07,.98h0Zm.43,.09c-.07,.53,.27,1.24,0,1.89-.26,.85-1.27,1.24-2,.76-.64-.38-.83-1.3-.97-1.88-.13-.48-.5-.81-.79-1.53-.73-1.6,1.33-3.47,3.08-2.96,1.48,.37,1.87,1.93,1.06,3.09-.19,.29-.32,.46-.37,.64h0Z"/></g></g><path class="cls-4" d="M174.05,481.97c-4.71-40.42-4.4-81.08-3-121.67,.55-32.98,1.59-73.54,2.52-106.46l.48-15.21c0-.24,.21-.42,.44-.42,.23,0,.41,.19,.42,.42l.48,15.21c.93,32.91,1.97,73.49,2.52,106.46,.92,30.42,1.72,60.85-.41,91.25-.6,10.14-1.36,20.28-2.59,30.42-.03,.24-.24,.41-.48,.38-.2-.02-.35-.18-.38-.38h0Z"/><path class="cls-4" d="M174.22,137.64c-.74-8.49-1.38-17.81-1.8-26.36-.86-8.89-1-17.67,1.8-26.36,.07-.24,.45-.25,.51,0,1.99,6.55,2.69,13.07,2.29,19.77-.36,3.81-.64,9.3-.84,13.18-.41,6.39-.89,13.42-1.45,19.77-.02,.29-.49,.31-.51,0h0Z"/><path class="cls-3" d="M185.62,6.29c.37,.61,1.19,1.18,1.07,1.83-3.89,20.85,1.79,18.04,15.96,16.64,4.22-.41,2.86,7.73,3.24,15.68,.32,6.71-7.85,3.96-14.3,3.73-6.84-.25-7.88-.89-6.48,7.08,.18,1.03,.83,9.31,.67,10.35-.85,5.42-9.19,2.94-15.42,3.27-7.05,.38-5.34-3.72-4.7-10.31,.75-7.74-.22-11.72-8.34-11.44-13.21,.46-13.11,4.02-11.76-10.73,.19-2.13-.2-7.75,2.09-7.75,21.61,0,19.51,6.56,18.62-18.33-.1-2.77,17.01-3.39,19.36-.03Z"/></svg>