<?xml version="1.0" encoding="UTF-8"?><svg id="Layer_1" xmlns="http://www.w3.org/2000/svg" viewBox="0 0 512 512"><defs><style>.cls-1{fill:#fff;}.cls-2{fill:#65b147;}.cls-3{fill:#c9dcab;}.cls-4{fill:#222020;}.cls-5{fill:#262324;}</style></defs><g><path class="cls-4" d="M118.54,387.1c-4.43,1.97-8.47,4.9-11.61,8.55l.56-1.37c.18,6.97,.89,14.01,1.21,20.99-.42,4.99-1.61,9.96-1.83,14.95-.44,11.98-.55,23.96-.35,35.94,.23,4.13,0,14.02,.99,17.99,.49,3.19,2.86,8.2-1.3,9.72l-3.23,1.05c-1.83,.48-3.25-1.08-4.63-2.11-1.37-1.24-2.93-1.66-4.65-2.01-3.24-.68-6.48-1.14-9.81-.73-2.34,.32-4.5-1.31-4.82-3.65-.32-2.34,1.31-4.5,3.65-4.82,.86-.13,1.67,.06,2.44,.34,1.58,.5,3.16,.93,4.76,1.31,2.39,.58,4.79,1.08,7.21,1.5,1.61,.21,3.34-.26,4.93,.21,.8,.19,1.56,.58,2.11,2.34l-3.25,2.73c.42-.49,.26-.99,.3-1.49,.04-1.48,.05-3.03,.04-4.49,.12-17.81,1.35-36.12,1.22-53.9-.06-4.99-.84-10-1.04-15l.28-2.99c.51-6.11,1.37-12.21,1.7-18.32,.02-.41,.24-.77,.54-.99,3.51-3.3,6.25-7.46,8.03-11.98,.88-2.6,3.7-4,6.3-3.12,4.39,1.45,4.47,7.75,.21,9.35h0Z"/><path class="cls-4" d="M126.45,380.8c1.1,4.12,3.17,8.04,6.09,11.1,.42,.31,.48,.82,.48,1.3,.34,7.04,1.21,14.14,1.68,21.19-.28,5.04-1.47,10.1-1.51,15.14-.04,16.16,.48,32.31,1.47,48.44,.06,.89,.36,6.71,.46,7.57,.19,1.57,1.01,3.04,1.47,4.54l-5.82-5.1c2.6-1.59,5.15,1.26,7.63,1.66,4.11,.22,8.27-.03,12.18-1.44,1.71-.67,3.64,.17,4.31,1.88,.91,2.43-.96,4.65-3.49,4.61-4.87,.63-9.78,1.06-14.54,2.32-1.59,.43-3.2,.78-4.87,.55l-2.09-.29c-1.92-.27-3.26-2.04-2.99-3.95,.37-1.89,.9-4.34,.86-6.24,.64-17.98,1.34-36.54,1.11-54.5-.09-5.05-1.1-10.09-1.39-15.13l.21-3.03c.37-6.06,1.07-12.11,1.28-18.17l.48,1.3c-2.52-3.4-6.01-6.12-9.89-7.92-2.62-1.05-3.89-4.02-2.85-6.64,1.87-4.67,8.73-4.04,9.75,.85h0Z"/><path class="cls-4" d="M137.75,260.88c8.76,6.24,18.87,12.24,28.2,17.63,4.85,2.66,9.58,5.54,14.64,7.8,5.05,2.27,10.3,4.17,15.37,6.42l-4.75,1.24c3.34-2.7,5.79-6.02,8.1-9.55,6.7-10.33,13.06-21.3,18.87-32.16,2.28-2.66,4.41-6.96,8.56-6.42,1.91,.36,3.74,2.18,5.6,2.32,4.14,.31,8.27,.27,12.27-.98,4.73-1.31,6.21,5.81,1.3,6.46-1.87,.12-5.02,.37-6.89,.56-3.07,.35-6.16,.52-9.16,1.27-1.48,.35-2.7,.48-4.25,.31-.64-.02-1.19,.28-1.58,.73l.23-.32c-4.14,5.72-10.55,14.44-14.48,20.21-3.44,5.17-7.1,10.22-10.03,15.7-.96,1.85-1.82,3.75-2.45,5.81-.46,1.5-2.04,2.34-3.54,1.89-5.23-2.9-10.01-6.68-15.15-9.77-4.71-2.92-9.75-5.22-14.67-7.74-3.7-1.82-11.26-5.37-15.03-7.07-5.07-2.24-10.16-4.44-15.39-6.38-6.23-2.7-1.59-11.61,4.22-7.96h0Z"/><path class="cls-4" d="M91.27,118.79c1.69,.16,2.25-.5,2.8-1.2,1.78-1.87,3.74-3.93,5.69-5.61,8.01-7.31,17.57-12.14,28.05-15.25,3.52-1.01,7.23-1.43,10.9-1.22,14.55,.75,28.5,8.93,36.8,20.8,9.69,13.13,10.88,25.83,7.11,41.28-3.68,17.05-6.87,37.06-21.63,48.47-9.45,6.75-21.87,6.54-32.94,5.71-3.7-.43-7.33-1.39-10.61-3.03-3.3-1.62-5.99-4.28-8.75-6.52-5.71-4.47-12.19-7.37-17.61-12.37-2.78-2.49-5.19-5.43-7.07-8.69-7.48-13.04-6.74-29.19-1.83-42.82,1.67-5.21,4.51-9.76,6.1-15.01,.62-1.8,1.23-3.61,1.83-5.46l1.15,.89h0Zm6.58,5.1c-2.86,1.71-5.61,3.91-7.39,6.74-1.59,2.9-2.82,5.98-3.69,9.16-3.38,12.54-.86,26,4.91,37.26,4.03,8.38,10.27,17.33,19.35,21.26,3.15,1.27,6.6,1.76,9.63,2.81,6.02,1.95,11.9,5.12,18.35,4.89,6.32-.13,11.76-3.57,16.54-7.28,4.78-3.6,9.38-8.11,13.12-13.53,5.65-8.08,9.61-18.04,9.89-28.07-.07-9.89-1.89-19.74-3.52-29.35-2.62-16.3-16.44-23.71-31.73-25.05-6.4-.42-12.94-.24-19.3,.66-8.09,1.66-15.69,5.76-21.8,11.31-1.79,1.61-3.54,3.62-5.07,5.5-.53,.63-1.05,1.3-.45,2.8l1.15,.89h0Z"/><g><path class="cls-2" d="M29.69,393.82s89.46-95.75,97.41-184.71c0,0,34.59,161.95,89.2,217.71,0,0-129.2,32.85-186.62-33Z"/><path class="cls-4" d="M25.8,392.75c.09-.58,.81-1.69,1.07-1.83,.26-.2,.86-.66,1.13-.88,6.51-5.12,12.4-10.98,17.4-17.58,5.44-6.75,10.8-14.08,15.69-21.22,14.37-21,28.07-45.45,40.52-67.7,6.34-11.49,12.3-23.4,15.57-36.18,1.5-6.22,2.44-13.04,3.55-19.34,1.15-6.2,2.37-13.25,3.24-19.49,.24-1.73,1.85-2.94,3.58-2.7,1.4,.2,2.46,1.28,2.69,2.6,.41,2.4,.87,4.83,1.33,7.25,3.85,21.93,12.27,42.64,18.1,64.05,5.5,18.93,10.2,38.18,17.19,56.65,6.57,18.64,17.12,35.45,26.29,52.82,6.87,12.89,13.81,26.17,24.32,36.48,.88,.82,.44,2.44-.75,2.68-20.27,4.78-40.82,8.08-61.62,9.21-20.87,1.33-41.82-1.01-62.05-6.2-12.17-2.97-24.04-7.31-35.05-13.33-9.66-5.23-18.67-11.77-26.38-19.63-1.88-1.78-3.8-3.68-5.81-5.66h0Zm7.67,2.6c18.48,20.42,45.71,30.73,72.49,34.51,16.23,1.92,32.6,2.42,48.93,2.21,20.44-.46,41.08-2.22,61.02-6.81l-.75,2.68c-3.5-3.61-6.71-7.45-9.92-11.29-9.57-11.55-18.31-23.92-24.51-37.63-6.2-13.63-10.77-27.81-16.68-41.53-7.38-18.18-15.49-36.93-21.49-55.57-5.61-16.44-8.68-33.68-12.83-50.51-1.78-7.26-3.85-14.36-5.75-21.62l6.3-.38c-.22,4.51-.69,9.01-1.46,13.45-2.07,13.37-8.39,25.48-12.55,38.22-5.98,16.71-12.17,33.67-21.24,48.98-13.2,23.14-30.03,44.12-46.66,64.83-2.41,2.94-6.09,7.33-8.19,10.49-2.49,3.55-5,7.42-7.39,11.06l-.06,.09s.63-.73,.73-1.15h0Z"/></g><path class="cls-4" d="M190.3,112.3c12.9,.8,38.01-8.89,25.49-24.79l-.42-.54c-.07-.09-.17-.21-.12-.15,.03,.03,.08,.11,.32,.26,.11,.07,.32,.17,.58,.23,.3,.07,.65,.08,1-.01,.72-.2,.99-.56,1.11-.69,.23-.33,.15-.26,.16-.21-.09,.38-.11,1.27,0,1.98,.09,.72,.31,1.48,.54,1.78,.1,.16,.17,.09-.09-.08-.16-.12-.58-.18-.73-.15-.02-.01,.16-.11,.36-.3,6.63-6.72,6.13-17.27,3.09-25.68-3.07-8.31-8.02-16.52-15.28-21.35-1.27-.77-2.57-1.13-3.07-1.05-.39,.06-.37,.1-.63,.36-.14,.15-.33,.42-.42,.56-.1,.16-.12,.26-.11,.22,0-.03,.07-.24,.02-.57-.04-.33-.22-.69-.37-.87-.16-.19-.25-.24-.25-.24,.28,.15,1.14,.11,1.35-.02,.12-.06,.05,.03,.06,.07,0,.01,.03,0,.07-.1,.01-.05,.03-.1,.04-.19,.12-3.12-.89-6.12-2.98-8.96-7.13-9.27-22.38-15.41-34.04-14.17-2.55,.42-5.44,1.21-5.74,3.88-.21,1.44,.68,2.48,2.1,2.16,.22-.04,.39-.17,.38-.22,0-.07-.26,.04-.38,.34-.13,.28-.1,.4-.21,.31-7-6.14-16.28-9.71-25.2-12.06-14.14-3.7-29.79-1.2-40.42,9.21-3.02,2.8-5.65,6.11-7.94,9.6-.15,.23-.21,.44-.21,.49-.01,.07,.04-.07-.02-.31-.06-.24-.24-.43-.24-.43,1.05,.5,3.55,.14,4.54-.66,.38-.29,.44-.54,.35-.5-.07,.03-.09,.08-.13,0,0,0,0,.12,.02,.17,.05,.27,.16,.49,.23,.61,.15,.24,.15,.2,0,.13-3.11-1.33-7.35-1.38-10.91-1.37-15.47,.33-51.75,5.91-44.18,28.22,.05,.12-.19,.2-.02,.3,.53,.2,1.67-.79,1.5-1.35-.03-.13-.14-.31-.36-.48-2.28-1.7-6.75-1.43-9.51-.2-6.83,2.86-11.38,9.89-13.95,16.7-2.95,7.25-6.78,28.57,3.42,30.92,1.81,.29,4.35-1.76,4.88-3.52,.05-.12,.05-.14,.13,.01,.06,.16,.34,.44,.52,.51,.19,.08,.2,0,.04-.04-.16-.04-.43-.06-.75-.05-20.67,3.42-20.19,37.41-4.25,46.73,.31,.18,.58,.29,.82,.35,.23,.06,.4,.06,.46,.03,.07-.02,.03-.06,0-.07-.08,0,.02-.15,.03-.43,.03-.27-.17-.47-.08-.2,.05,.12,.21,.28,.31,.33,.09,.06,.08,.07-.05,.09-8.39,2.52-7.31,13.2-4.79,19.85,3.69,9.98,10.6,20.15,20.92,23.99,4.58,1.59,9.75,.92,14.16-.79,.31-.14,.55-.34,.55-.34,.03,0-.09,.1-.14,.35-.06,.25,.01,.61,.1,.74,.19,.27,.08,.06-.13-.03-.41-.25-1.2-.41-1.54-.35-.07,0-.12,.02-.08,0,.04-.02,.17-.11,.27-.27,.21-.38,.07-.51,.14-.29,.89,2.08,3.13,4.15,4.98,5.77,5.77,5,12.95,8.09,20.36,9.78,3.75,.84,7.58,1.34,11.43,1.56,2.88,.07,5.81,.42,8.65-.19,.92-.27,1.93-.66,2.64-1.43,1.78-1.94,4.8-2.07,6.74-.29,3.92,3.64-.27,10.05-5.19,7.85-2.35-1.2-4.57-1.58-7.03-1.5-10.18-.1-20.42-1.88-29.73-6.14-3.73-1.73-7.26-3.95-10.46-6.6-2.49-2.27-5.13-4.18-6.43-7.67-1.25-4.66,4.03-5.87,7.27-4.11,1.22,.47,2.83,2.33,2.34,4.1-.56,2.23-2.56,3.07-4.31,3.77-3.13,1.07-6.23,1.71-9.51,1.81-6.61,.08-12.93-3-17.98-6.91-11.17-8.82-21.28-25.87-15.69-40.39,2.15-5.87,12.34-13.13,17.5-6.59,3.53,5.2-1.81,12.57-7.76,9.77C1.71,142.61-.54,115.22,11.58,101.05c3.35-3.87,11.2-9.31,16.52-6.46,1.98,1.03,2.97,3.75,2.72,5.73-.58,4.5-3.44,7.93-7.46,9.74-5.44,2.45-11.82-.43-15.03-5.12-6.69-10.5-2.1-24.71,3.06-34.76,4.9-8.89,12.15-18.98,23.29-19.67,3.76-.2,9.08,.78,9.87,5.33,.61,4.5-3.46,8.6-8,7.86-6.63-1.6-7.83-9.62-7.62-15.38,1.12-14.59,16.19-22.44,28.67-25.71,10.2-2.63,20.79-3.49,31.24-1.88,3.67,.74,8.3,1.52,10.84,5.11,2.38,3.58,.17,8.62-3.27,10.29-6.47,3.82-18.35,.48-13.44-8.6,7.09-11.19,17.53-20.87,30.61-24.35,16.79-4.46,34.95,.76,47.9,11.86,2.63,2.57,6.82,5.54,5.93,9.92-1.25,3.82-6.02,4.02-8.83,2.07-3.81-2.57-3.17-8.62,.21-11.19,6.74-5,17.66-3.35,25.28-1.59,8.33,2.17,16.38,5.72,22.34,12.43,3.17,3.57,5.4,8.36,5.58,13.27,.09,1.71-.03,3.35-.79,4.97-2.88,6.32-12.17,7.44-16.63,2.17-4.77-5.91,1.64-14.75,8.41-14.67,9.58,.23,16.77,10.08,21.02,17.49,7.15,12.86,10.65,31.18-.41,42.97-4.74,5.12-10.02,2.44-10.42-3.93-.11-1.98-.16-3.61,1.06-5.48,.27-.33,.74-.87,1.7-1.13,.48-.12,.95-.11,1.37-.01,.99,.21,1.69,.93,2.13,1.56l.47,.65c13.95,19.77-9.64,29.65-24.53,36.6-1.07,.5-2.26,1.04-3.47,1.57-2.76,1.19-5.96-.07-7.15-2.83-1.73-3.7,1.58-8.09,5.57-7.57h0Z"/><path class="cls-4" d="M126.41,176.53c6.58,10.78,20.17,15.36,32.19,10.78,4.75-1.81,7.87-5.33,9.11-10.29,.33-1.34,1.23-3.22-.82-4.08-1.66-.7-3.07-.03-4.1,1.46-1.96,2.84-3.23,6.41-7.44,6.86-5.59,.59-10.92-.31-16-2.63-4.67-2.14-7.1-6.25-8.87-10.76-1-2.54-2.44-3.56-4.69-1.85-1.7,1.29-4.91,2.25-2.51,5.59,1.13,1.58,2.09,3.27,3.13,4.92Z"/><path class="cls-5" d="M144.62,150.9c1.56-.98,2.62-2.35,3-4.15,.45-2.15,.21-3.42-2.64-2.56-3.42,1.03-6.8,1.24-9.96-1.33-2.66-2.16-4.78,.17-6.23,1.89-1.67,1.98-.14,3.99,1.44,5.47,3.25,3.03,10.47,3.32,14.39,.68Z"/><path class="cls-5" d="M166.2,152.1c2.47-1.7,3.66-3.76,2.97-6.47-.78-3.07-3.19-.95-4.82-1.27-.83-.17-1.75,0-2.62,.11-3.14,.42-7.38,.65-6.72,4.78,.53,3.37,4.62,3.83,7.89,3.71,1.19-.04,2.37-.6,3.3-.85Z"/><path class="cls-4" d="M125.25,264.18c-7.98,3.44-15.32,7.96-22.41,12.91-1.36,1.04-2.64,2.2-3.86,3.45-2.47,2.45-4.53,5.45-8.26,6.14l1.11-1.98c-1.25,5.42-1.59,13.45-1.97,19.06-.45,6.37-.74,12.74-1.06,19.12-.4,9.23-.65,19.45-.85,28.73l-.06,2.4c-.24,2.47,1.03,4.89,1.21,7.28l-2.29-4.79c1.83,.81,2.6,2.75,3.35,4.54,.77,2.01,2.25,3.01,3.58,4.21,2.76,2.29,5.62,4.42,8.96,5.83,4.42,2.03,1,8.41-3.16,5.78-4.57-3.19-9.07-6.51-13.96-9.22-2.01-.99-3.92-2.22-5.45-3.87-2.23-2.24-.23-5.32,.13-7.91,.56-3.07,1.21-11.05,1.61-14.28,1.21-11.25,2.84-27.01,3.63-38.13,.45-5.6,1.16-13.57,.84-19.13-.09-.86,.71-1.5,1.17-2.09,.7-.85,1.45-1.66,2.19-2.47,.15-.16,.28-.34,.49-.41,1.93-.98,3.9-1.96,5.87-2.85,4.73-2.19,8.61-5.65,12.62-8.89,3.99-3.35,7.81-6.8,11.3-10.74,1.68-1.92,4.61-2.12,6.53-.43,2.58,2.16,1.83,6.54-1.28,7.76h0Z"/><g><path class="cls-2" d="M152.64,67.58c-.25,.2-.58,.34-.73,.6-2.9,5.05-6.5,6.13-11.24,2.24-1.27-1.05-2.61-.68-3.7,.7-1.29,1.64-1.94,3.29-.61,5.18,1.73,2.43,4.24,3.81,6.97,4.7,2.89,.95,4.41,2.3,2.6,5.41-.23,.4-.38,.88-.47,1.34-.48,2.39-.85,5.18,1.69,6.28,2.88,1.24,5.64-.4,6.38-3.25,.87-3.34,2.82-2.84,5.2-2.73,5.87,.26,8.86-3.27,7.06-8.09-.33-.89-.61-2.19-1.62-2.13-6.63,.41-6.97-4.97-8.63-9.16-1.09-.06-1.42-2.13-2.91-1.09Z"/><path class="cls-4" d="M120.48,50.76c2.4-5.63,6.22-10.79,5.99-17.28-.07-2.06,.6-3.35,2.42-4.07,2.07-.82,3.33,.54,4.3,1.98,1.03,1.53,2.34,2.41,4.02,3.07,11.31,4.46,21.73,10.78,33.09,15.32,9.81,3.92,19.21,8.8,29.69,10.87,3.35,.66,4.61,2.25,3.16,5.69-1.96,4.65-4.05,9.27-4.66,14.39-.29,2.41-1.92,3.2-4.12,2.59-1.51-.42-2.95-1.11-4.38-1.77-2.3-1.05-3.41-1.25-4.48,2.01-2.69,8.22-6.12,16.21-9.51,24.18-1.51,3.55-4.16,4.08-7.16,1.38-1.45-1.31-3.13-2.11-5.1-2.26-4.76-.36-9.22-1.91-13.79-3.15-8.52-2.31-17.1-4.66-25.91-5.46-2.99-.27-5.29-1.8-7.97-2.55-1.93-.54-2.65-2.94-1.49-4.3,4.94-5.78,4.55-13.12,6.16-19.83,1.07-4.44,1.32-9.13-2.15-13.74-.45-2.24,.83-4.64,1.86-7.07Zm32.17,16.82c-7.72-2.16-15.45-4.32-23.17-6.49-1.49-.42-2.65-.68-2.7,1.64-.17,7.76-2.6,15.15-3.96,22.72-.61,3.42,.17,5.64,3.58,6.4,14.57,3.25,29.17,6.38,43.73,9.65,1.98,.45,2.53-.86,3.28-1.96,3.96-5.84,6.26-12.4,7.69-19.23,.42-2.02,.24-4.68-2.45-5.6-7.55-2.57-15.09-5.17-23.09-6.04-1.09-.06-1.42-2.13-2.91-1.09Zm-23.47-11.6c9.53,.83,18.45,4.14,27.51,6.72,10.28,2.92,20.31,6.73,30.44,10.15,.3,.1,.7,.13,.88,.34,1.47,1.79,3.44,4.39,5.49,2.67,2.12-1.78,3.24-4.95,3.55-8.07,.19-1.87-.84-2.37-2.33-2.89-20.69-7.21-40.2-17.06-59.8-26.72-2.88-1.42-4.07-1.44-4.87,2.18-.77,3.49-2.7,6.73-4.11,10.08-.42,1.01-.79,2.06-1.14,2.98,.81,2.13,2.93,2.43,4.37,2.56Z"/></g><path class="cls-4" d="M83.76,149.99c-2.56,6.08-4.36,9.89-8.93,7.96-4.57-1.92-8.4-9.15-5.84-15.24,2.56-6.08,7.23-8.45,9.87-4.25,3.33,5.3,7.46,5.45,4.9,11.53Z"/><path class="cls-4" d="M24.55,182.59c-.12,.92-.01,1.14,.16,1.2,1.13,.59,2.22,1.22,3.29,1.9,1.94,1.24,3.56,2.89,5.15,4.57,1.45,1.93,1.33,4.63,.8,6.83-.58,2.36-1.41,4.27-2.12,6.62-.72,2.73-4.03,4.28-6.41,2.49-2.57-1.61-2.74-7.22,1.12-6.75,6.74,1.28,13.28,7.85,11.37,15.19-1.31,4.53-6.77,6.18-10.88,5.53-3.53-.22-5.8-4.24-3.96-7.36,1.43-2.73,5.32-3.18,7.24-.89,.6,.69,1.07,1.32,1.56,2.06,4.77,6.56,.62,15.43-6.02,18.57-3.41,1.84-7.48,1.75-11.14,.78-1.69-.31-4.04-1.72-4.49-3.73-.57-1.72-.13-3.94,1.73-4.93,1.92-1.04,4.21-.12,5.47,1.18,10.84,9.75,.44,22.85-12.17,18.93-3.11-1.13-1.89-5.72,1.35-5.18,3.16,.64,7.95-.7,8.67-4.15,.35-1.29-1.3-3.78-2.74-5.17-.31-.29,.23-.06,.79-.14,.43-.02,1.07-.39,1.19-.78,.1-.3-.03-.41-.15-.41-.38-.01-.64,.58-.37,.82,.28,.29,.66,.03,1.12,.08,1.71-.1,3.35-.88,4.84-1.61,1.99-.99,3.95-1.89,5.69-3.09,3.14-1.93,4.95-5.28,2.2-8.17-.22-.28-.56-.56-.84-.81-.09-.07-.14-.06-.19-.06-.09,0-.13,.12,.11,.28,.22,.17,.79,.24,1.27,.08,1.7-.51,1.46-2.68-.04-3.09-.04,0-.1-.02-.14,0-.01,0,.05,.01,.07,.02l.38,.08c2.88,.58,5.48,.23,5.37-3.31-.09-3.33-2.57-6.53-5.77-7.58-.51-.16-1.22-.37-1.46-.15-.12,.29,.54,.08,.74-.19,.33-.35,.27-.62,.55-.79,.26-.09,.64,0,.63-.13-.01-.05-.18-.2-.72-.18-.45,.27,.47,.53,.98,.27,.49-.18,.9-.6,1.11-1.1,1.2-2.69-.9-5.38-1.29-7.94,.09-2.78-2.39-5.11-5-5.68-.14-.05-.34,.06-.76,.87-3.25-1.2-1.6-6.04,1.72-4.98h0Z"/></g><g><g><path class="cls-4" d="M424.88,474.79c1.28-8,0-16.44-.89-24.42-2.25-21.37-4.98-45.07-5.28-66.38-.22-10.07,.4-20.21,.94-30.23,1.3-32.06,.72-64.53,2.27-96.62,.85-24.09,4.18-48.23,6.24-72.19,2.48-28.31,4.95-68.4,9.47-96.1l1.92,2.57c-6.34-.75-12.78-1.33-19.16-1.72-8.72-.45-17.34-.78-25.85,.75-1.71,.33-3.58,.84-5.37,.86-3.42,.17-5.11-3.75-2.36-5.93,2.01-1.47,4.43-2.07,6.58-2.75,9.69-2.72,19.53-3.77,29.44-4.61,9.94-.78,20-1.63,29.9,.37,9.93,1.84,19.36,5.92,27.96,11.16,2.97,1.67,5.5,3.9,8.7,5.19,3.85,1.67,1.63,7.34-2.33,5.92-.55-.22-1.01-.58-1.34-1.01-1-1.28-2.26-2.24-3.6-3.06-9.31-5.9-20.05-9.01-30.76-11.24-9.21-1.77-18.76-3.67-28.28-3.26-11.03,.63-22.75,3.01-32.45,7.93,1.67-1.44,.7-4.52-1.53-4.79,1.02-.11,3.13-.64,4.2-.88,9.07-1.81,18.52-1.36,27.56-.56,6.57,.65,13.03,1.63,19.51,3.02,1.27,.15,2.1,1.33,1.92,2.57-2.1,32.06-6.44,63.95-8.71,96-2,32.07-2.56,64.2-5.34,96.23-1.55,24.03-3.4,48.1-2.78,72.19,.27,8.03,.79,16.05,.96,24.06,.31,15.69,0,32.41,.33,48.09,.16,8.01,.55,16.02,1.32,24,.8,8.03,1.53,16.08,5.41,23.4,1.24,2.25,.4,5.09-1.87,6.3-3.3,1.78-7.44-1.13-6.72-4.86h0Z"/><path class="cls-4" d="M381.03,466.72c6.85-9.28,11.89-18.97,18.22-28.52,4.86-7.05,11.11-15.98,20.59-17.39,3.4-.27,6.48,.63,9.55,1.84,5.43,2.31,10.12,5.59,14.82,8.97,3.39,2.55,7.27,4.57,10.45,7.43,5.32,4.88,9.17,11.03,13.17,17,3.03,4.97,5.58,10.43,6.85,16.75,.58,2.43-.97,4.88-3.43,5.37-2.87,.63-5.62-1.9-5.27-4.81,.51-4.75-.86-9.89-3.1-14.59-2.66-6.09-7.72-10.8-12.32-15.46-2.77-2.9-5.31-6.15-8.69-8.38-4.42-3.04-9.46-5.26-14.41-6.4-1.97-.44-4.9-.92-6.72-.6-4.13,.89-8.19,4.69-11.36,7.85-7.51,7.69-13.68,16.89-17.88,26.84-1.02,2.52-1.99,5.14-2.57,7.76-.53,2.41-2.92,3.92-5.32,3.39-3.12-.62-4.56-4.58-2.58-7.06h0Z"/></g><path class="cls-4" d="M505.8,166.13c-.37-3.16-.93-7.28-2.08-11.19-2.61-8.85-3.08-17.47-1.45-26.34,1.34-7.29-.18-14.55-1.7-20.78-1.04-4.27-2.7-6.35-5.54-6.98-3.4-.76-14.24-.56-14.35-.55-1.54,.01-3,.04-4.42,.07-3.13,.06-6.09,.12-9.04,0-3.61-.19-5.27,1.14-6.42,4.91-1.08,3.58-2.06,7.27-3,10.85-2.32,8.81-4.73,17.92-9,26.27-.38,.74-.25,1.3,.03,2.3,1.97,7.05,.66,13.91-1.04,20.3-1.17,4.4-.95,7.83,.67,10.18,1.48,2.17,4.2,3.48,8.07,3.9,1.02,.11,2.04,.21,3.06,.3,2.47,.23,5.02,.47,7.51,.94l.27,.05c.85,.15,2.14,.37,2.77,1.52,.47,.85,.42,1.94-.15,3.33-1.98,4.81-.62,9.05,4.53,14.17,1.37,1.36,2.9,2.53,4.52,3.76,1.1,.84,2.21,1.68,3.26,2.59,3.62,3.12,4.17,6.74,1.69,11.05-4.29,7.47-2.65,16.39,4.01,21.68,5.27,4.19,7.73,8.06,7.52,11.82-.21,3.67-2.95,7.1-8.37,10.48-8.09,5.04-8.82,7.68-4.58,16.57,.14,.3,.29,.59,.44,.88,.3,.58,.59,1.16,.83,1.76,2.49,6.2,1.73,14.6-1.85,20.43-2.95,4.81-7.44,7.61-12.97,8.09-3.05,.27-6.34,1-10.06,2.23-3.53,1.17-5.92,3.02-7.11,5.51-1.26,2.64-1.16,5.95,.3,9.85,1.18,3.16,1.22,5.35,.11,6.88-1.07,1.48-3.1,2.14-6.27,2.03-5.31-.2-8.79-2.55-9.79-6.62-.71-2.89-2.29-3.35-4.8-3.86-1.38-.28-3.53-.12-5.42,.01-.91,.07-1.78,.13-2.58,.15l-.24,2.35c.11,0,.21-.02,.32-.02,.84-.07,1.73-.14,2.64-.14,2.46,0,5.06,.52,7.08,3.03l.92,1.15c.86,1.09,1.72,2.18,2.64,3.21,4.33,4.87,12.31,6.66,18.16,4.09,2.98-1.31,5.32-3.43,6.95-6.31,.73-1.29,.2-2.08-.87-3.49-.52-.68-1.05-1.38-1.37-2.21-1.43-3.71-2-5.93-1.14-7.74,.83-1.77,2.88-2.74,6.14-3.84,2.22-.74,4.5-1.39,6.7-2.02,1.52-.43,3.04-.87,4.56-1.33,6.22-1.91,11.23-6.52,13.75-12.63,2.68-6.48,2.29-13.82-1.07-20.13-1.82-3.43-2.8-6.01-2.04-8.32,.76-2.33,3.13-3.86,6.7-5.57,5.22-2.51,8.42-8.15,7.96-14.04-.39-4.99-2.08-11.77-7.98-15.69-6.81-4.53-5.74-9.68-3.57-14.57,3.45-7.77,2.51-12.04-3.87-17.57-1.56-1.36-3.23-2.65-4.84-3.9-1.17-.91-2.34-1.81-3.48-2.75-2.08-1.71-2.78-4.44-1.93-7.51,.28-1,.76-1.7,1.44-2.08,1.05-.59,2.22-.26,3.16,0,.44,.12,.89,.25,1.19,.24,1.15-.02,2.3,.03,3.46,.07,1.67,.07,3.23,.13,4.8,0,5.73-.51,10.06-2.53,12.88-5.99,2.91-3.58,4.07-8.72,3.36-14.87Zm-9.36,11.61c-3.93,2.89-8.03,4.34-12.04,4.34-2.95,0-5.85-.79-8.6-2.38l-1.55-.9c-4.59-2.68-8.92-5.21-14.24-5.67-2.26-.19-4.02-1.09-5.09-2.58-1.26-1.76-1.54-4.27-.81-7.26,.23-.96,.32-1.5,.41-2.01,.07-.42,.13-.82,.26-1.38,.55-2.4,.62-4.87,.21-7.35-.84-5.15-.13-6.84,1.44-10.55,1.72-4.09,4.61-10.93,8.06-28.46,.71-5.89,4.93-8.99,11.76-8.76,4.13,.17,7.68-.15,10.87-.95,2.94-.75,4.96-.05,6.77,2.3,2.37,3.08,3.58,6.82,3.71,11.44,.07,2.66,.1,5.26-.37,7.79-1.67,9.02-.29,18.01,1.05,26.71,.48,3.14,.98,6.39,1.33,9.61,.08,.76,.19,1.53,.3,2.31,.66,4.79,1.41,10.21-3.45,13.78Z"/></g><g><path class="cls-4" d="M316.95,473.88c-1.47,1.81-1.18,4.77-1.36,6.89-.19,5.69-.35,11.58,.93,17.13,.22,1.06,.64,1.99,.98,2.48l-3.63,3.1c-1.2,.63-2.5-.2-3.66-.6-3.79-1.33-7.95-1.29-11.96-1.03-1.42,.15-2.72-.92-2.75-2.37-.02-1.03,.6-1.93,1.51-2.31,3.18-1.39,6.59-2.04,10.09-1.91,2.23,.12,4.52,.57,6.64,1.43,1.5,.51,2.67,1.56,3.26,3.08l-3.63,3.1c-1.16-2.58-1.19-5.27-1.28-7.96-.09-4.82,.19-9.53,.46-14.31,.07-2.21,.72-5.09-.41-7.23-.67-1.42-.06-3.12,1.36-3.79,2.67-1.27,5.27,1.99,3.49,4.3h0Z"/><path class="cls-4" d="M325.74,473.95c-.22,2.32,1.67,4.62,2.7,6.48,3.01,4.83,6.15,9.82,10.3,13.72,.77,.76,1.64,1.3,2.19,1.52l-1.3,4.59c-.65,1.19-2.19,1.22-3.37,1.54-3.89,1-7.33,3.35-10.51,5.8-1.1,.92-2.77,.75-3.6-.44-1.25-1.77,.44-3.42,1.43-4.82,2.79-3.4,6.51-6.08,10.82-7.3,1.93-.62,4.02-.89,5.77,.41l-1.3,4.59c-2.4-1.5-3.92-3.72-5.5-5.9-2.75-3.95-5.14-8.03-7.58-12.14-1.17-1.88-2.23-4.63-4.36-5.78-1.35-.81-1.79-2.56-.98-3.91,1.51-2.54,5.49-1.28,5.29,1.63h0Z"/><path class="cls-4" d="M298.18,403.94c-12.42-7.92-23.96-17.07-33.83-28.03-1.46-1.59-3.48-3.93-4.8-5.62-1.67-2.03-3-4.12-5.49-5.43-5.95-3.46-1.2-12.28,4.98-9.17,1.83,1,2.83,2.93,2.72,4.88-.08,2.61,.89,4.75,2.18,6.65,3.55,5.98,8.28,11.29,13.61,15.78,7,5.97,15.08,11.26,23.69,14.49,4.88,1.96,1.57,9-3.07,6.44h0Z"/><g><path class="cls-3" d="M319.82,364.62s33.4,77.58,37.73,104.01c4.34,26.42-54.87-2.16-78.76,3.55-23.89,5.71,22.25-58.59,41.03-107.56Z"/><path class="cls-4" d="M317.05,362.34l2.73,.16c.67,0,1.78,.68,2.04,1.45,.06,.13,.03,.08,.05,.13l.1,.3c3.22,9.33,7.23,18.37,11.38,27.32,2.8,6.06,8.22,11.13,9.66,17.86,.8,3.3,1.13,6.78,2.34,9.91,4.42,12.76,8.76,25.51,12.08,38.63,1.03,5.16,3.04,10.41,2.03,15.82-3.59,14.83-33.82,4.53-44.36,3.53-6.62-1.07-13.31-1.58-19.79-2.36-3.22-.53-6.44-.92-9.61-1.01-1.97-.05-3.89,0-5.8,.29-1.43,.23-2.8,.54-4.38,.36-5.77-.51-6.11-6.36-4.87-10.65,2.79-9.88,7.71-18.9,12.06-28.12,6-12.01,12.14-23.93,17.91-36.03,5.41-11.26,10.45-22.67,14.71-34.39,.41-1.13,.68-2.15,1.7-3.21h0Zm5.55,5.44c.21-.24,.33-.47,.37-.58l-.51,1.18c-7.81,17.78-17.43,34.7-26.84,51.63-5.44,10.57-22.86,38.78-21.38,49.09,.4,2.45,4.45,.44,6.03,.29,5.22-1.04,10.61-.81,15.8-.4,6.84,.85,13.33,2.9,19.86,4.46,9.58,2.25,19.51,4.4,29.34,4.47,14.36-.07,10.23-8.73,7.66-18.57-3.79-12.74-8.62-25.24-13.51-37.63-1.78-4.68-4.53-8.99-6.28-13.7-1.8-4.47-3.4-9.65-5.15-14.15-3.11-7.71-7.14-17.96-10.44-25.55l-.5-1.15-.25-.57-.12-.29s-.06-.14,.01,.02c.4,1.16,2.19,2.04,3.19,1.84l2.71-.38h0Z"/></g><path class="cls-4" d="M324.19,397.37c5.11,1.6,10.83,2.53,16.18,3.15,11.01,1.08,22.3,.86,33.09-1.72,2.68-.65,5.31-1.46,7.89-2.42,1.11-.38,2.79-.95,3.78-1.6,1.21-.72,2.38-1.56,3.34-2.75,1.77-2.14,4.93-2.44,7.07-.67,2.14,1.77,2.44,4.93,.67,7.07-1.11,1.34-2.79,1.95-4.4,1.79-2.47-.24-4.54,.16-6.78,.8-14.69,3.72-29.89,5.08-45.02,4.58-5.88-.21-11.48-.54-17.41-1.26-5.16-.86-3.49-8.4,1.58-6.95h0Z"/><g><path class="cls-4" d="M299.42,324.29c.05,1.53,.24,3.1,.42,4.61,.08,.68,.16,1.36,.23,2.04,1.39,5.23,4.75,9.14,8.78,10.2,3.74,.99,7.79-.52,11.42-4.23,.2-.2,.4-.41,.59-.62,.76-.81,1.54-1.64,2.51-2.26,1.1-.7,2.38-1.93,.84-4.46-1.28-2.09-3.76-1.02-4.25-.78-1.48,.72-2.83,1.74-4.25,2.82-.56,.43-1.13,.86-1.7,1.27-.21,.15-.42,.33-.63,.5-.96,.82-2.42,2.06-4.51,.79-2.04-1.24-2.25-3.4-2.24-4.92,.02-1.52,.24-2.98,.65-4.25,.43-1.34,.42-2.4-.03-3.15-.52-.87-1.71-1.47-3.53-1.79-1.43-.25-2.5-.06-3.2,.54-.98,.86-1.14,2.47-1.1,3.68Z"/><path class="cls-4" d="M362.7,337.51c-12.07,22.38-21.54,26.81-46.34,28.87-1.21,.07-4.74,.43-5.93,.49-12.99,1.34-22.25-9.93-25.56-21.31-4.65-15.09-1.14-26.57,7.24-39.37,10.98-17.92,34.61-30.55,55.02-20.97,5.85,2.59,11.05,6.44,15.4,11.16,1.65,1.53,3.51,3.15,4.58,5.22,1.89,3.49,1.28,7.69,.5,11.36-.51,2.82-.68,5.55-1.41,8.3-1.28,5.35-3.21,10.37-5.1,15.46l1.6,.8h0Zm-6.67-3.32c4.27-8.51,7.3-18.37,3.66-27.45-.76-2.04-1.34-4.25-2.52-6.29-1.25-2.01-2.98-3.69-4.79-5.24-3.67-3.07-8.08-5.74-12.68-7.24-19.71-6.03-40.64,8.96-47.86,27-1.8,4.69-2.51,9.69-2.78,14.6-1.16,9.6,.05,20.52,6.54,28.11,4.5,5.02,9.9,6.48,16.43,5.35,3.77-.48,7.92-.96,11.61-1.64,18.43-3.11,24.63-10.3,32.06-27.35l.32,.16h0Z"/><path class="cls-5" d="M318.67,304.31c-.02,4.59-2.88,5.28-5.43,5.51-3.83,.35-4.43-3.16-4.98-5.71-.72-3.34,2.24-2.8,4.16-2.8,2.83,0,5.76,.11,6.25,3Z"/><path class="cls-5" d="M333.54,311.63c.18,2.77-1.61,3.88-3.8,4.16-3.87,.51-4.62-3.02-5.54-5.4-.7-1.8,.89-3.72,3.2-3.71,3.28,0,5.16,2.02,6.13,4.95Z"/><path class="cls-4" d="M327.04,284.81c-1.3,.69-2.95,.65-4.32,1.05-3.56,1.3-7.26,2.89-11.17,1.73-6.72-2.58-1.78-12.61,2.59-15.3,3.5-2.6,8.24-2.07,11.86-4.27,.53-.44,.98-1.11,1.55-1.55,.56-.47,1.26-.6,2.03-.84,4.04-1.44,8.81-.05,9.55,4.85,.6,7.01-6.85,11.65-12.08,14.32h0Zm-3.11-5.19c2.67-2.07,5.36-4.58,6.63-7.48,.13-.34,.17-.64,.13-.62-.2,.83,.58,1.75,1.46,2.12,.49,.2,.75,.18,.8,.19-.56,.06-1.84,.68-2.71,.64-.71,0-1.53-.26-2.27-.28-2.16,.18-4.23,.91-6.42,1.03-.71,.08-1.54,.12-1.96,.15-3.59,.27-6.87,3.69-7.27,7.29-.04,.44,.04,.88,.08,.93,.01,.05,.09,.18,.44,.32,2.04,.58,4.51-.17,6.56-.87,.58-.23,1.19-.41,1.72-.76,1.08-.7,1.8-1.98,2.81-2.67h0Z"/><path class="cls-4" d="M303.43,274.87c1.7,.13,3.27,1.28,4.88,1.54,2.48,.41,5.01,1.02,7.28,2.28,6.56,3.58,3.03,9.45-2.17,12.03-3.46,1.85-7.75,1.99-11.42,.57-1.43-.36-2.82,.25-4.2,.86-.62,.3-1.3,.56-1.91,1.11-.62,.53-1.19,1.28-1.98,1.85-2.09,1.34-5.01,1.56-7.69,.52-2.35-1.07-3.54-2.58-4.53-4.57-1.26-2.8,.62-6.04,2.34-7.75,5.08-4.9,12.22-8.6,19.4-8.44h0Zm-.1,6.05c-3.4,.33-7.54,2.88-10.35,5.27-1.2,1.06-2.7,2.39-3.26,3.58-.02-.02,.22-.18,.15-1.17-.03-.37-.21-.94-.43-1.28l.04,.04,.13,.18c.17,.2,.18,.1,0,.01-.18-.09-.27-.04-.01-.08,.24-.04,.7-.2,1.36-.16,1.55,.22,3.16,.01,4.67-.67,1.8-.61,3.74-1.09,5.78-.89,1.04,.09,2.11,.42,3.05,.89,2.19,1.15,4.82,1.09,7.11,.15,1.46-.6,3.18-1.79,3.66-3.15,.02-.06,.04-.22-.25-.58-.58-.7-1.85-1.39-3.12-1.85-1.3-.48-2.71-.83-4.14-1.05-1.46-.22-2.98,.69-4.39,.76h0Z"/><path class="cls-4" d="M366.94,326.72c-.65-1.53-.39-3.4-.85-4.93-1.01-3.33-1.94-6.45-.96-10.13,.34-1.58,2.23-3.55,4.21-3.45,5.6,.25,9.83,6.66,12.44,10.91,1.81,3.05,4.4,5.89,6.66,8.74,1.94,1.99,4.43,3.52,4.32,6.98,.04,2.9-2.62,5.32-5.09,5.61-2.68,.43-5.01-.15-7.45-.76-6.33-1.48-11.18-7.27-13.28-12.96h0Zm5.41-2.7c2.31,3.5,5.23,6.06,9.08,7.06,1.43,.33,3.31,.78,4.63,.71-.04,.03-.33,0-1.02,.54-.56,.41-1.13,1.56-1.09,2.2,0,.46,.09,.5,.12,.4,.36-3.52-2.77-6.29-4.47-9.17-2.48-3.5-3.79-8.19-6.87-11.34-1.06-1.1-2.31-2.25-3.48-2.21-.91,.85-.69,2.77-.55,4.28,.19,1.35,.52,2.73,.99,4.07,.51,1.35,1.97,2.27,2.66,3.45h0Z"/><path class="cls-4" d="M378.67,303.95c-.24,1.57-1.37,2.98-1.82,4.45-.84,3.18-1.68,6.18-4.04,8.79-2.74,3.01-6.63,2.05-8.41-1.45-3.69-7.43-1.97-15.61-2.13-23.59-.31-2.77,1.67-5.04,3.01-7.05l.69-.93c2.56-4.02,7.19-3.34,9.39,.36,1.84,3.06,2.53,6.28,3.12,9.67,.48,3.15,.7,6.32,.2,9.75h0Zm-6.02-.56c-.18-4.65-1.81-10.13-4.33-14.15-.08-.11-.21-.19,.01,.03,1.26,1.22,3.98,.91,5.05-.6,.06-.08,.03-.04,.02-.02-.06,.1-.33,.48-.4,.58l-.57,.85c-1.02,1.35-1.46,2.77-2.53,3.83-.47,.37-1.03,.7-1.39,1.18-.73,1.42-.59,3.01-.88,4.83-.54,4.15-1.22,8.17-.21,12.21,.3,1.18,.86,2.36,1.35,2.76,.24,.18,.23,.16,.38,.16,1.29-.49,2.09-2.22,2.76-3.66,.5-1.21,.94-2.5,1.19-3.84,.2-1.37-.5-2.84-.46-4.16h0Z"/><path class="cls-4" d="M375.35,308.62c.74,.55,1.14,.8,1.46,.8,.77-.17,1.46-.62,2.22-.88,8.41-3.61,15.92-4.45,16.95,7.04,.12,2.49-2.33,5.11-4.92,5.18-3.42,.33-7.12-2.54-6.39-6.38,.24-1.68,2.02-3.28,3.27-3.74,4.38-2.07,9.32-1.95,13.75-.5,3.33,1.22,6.73,2.85,9.02,5.91,2.34,3.03,1.58,7.88-1.26,10.38-3.18,3.33-8.41,1.52-9.74-2.7-.87-2.84,1.06-4.57,3.47-5.07,4.42-1.45,9.25-.77,13.32,1.38,7.63,3.72,12.04,13.21,5.35,20.27-1.25,1.31-2.55,2.27-4.03,3.09-1.06,.61-2.03,.99-3.38,1.09-6.04,.32-9.62-7.23-5.29-11.7,1.64-1.66,4.15-1.99,6.18-1.2,4.52,1.63,8.62,4.88,10.58,9.35,4.12,9.03,1.45,20.5-7.24,25.46-2.94,1.62-6.52,3.56-9.91,2.06-3.48-1.53-6.19-6.11-2.97-9.55,1.68-1.63,3.85-1.97,5.96-1.52,10.15,1.77,16.85,11.42,12.73,21.4-2,4.92-6.06,8.86-11.28,10.2-4.52,1.04-6.61-5.25-2.42-7.14,4.42-1.74,7.86-8.61,4.17-12.58-1.22-1.45-3.85-2.35-5.68-3.01,.2-.1,.44-.11,.69-.23,.74-.14,1.97-1.43,1.86-2.22-.04-.68-.36-.68-.51-.57-.59,.31-.24,2.03,.32,1.26,.03-.05,.04-.09,.15-.16,2.44-1.69,3.51-4.75,4.72-7.28,2.98-6.03,6.91-16.32-2.73-18.09-.11-.02-.26,.12-.07,.22,1.66,.57,3.52-1.98,2.88-3.25-.16-.61-1.65-1.45-2.52-1.25-.44,.04-.68,.13-.92,.28-.01,.01,.07-.02,.1-.03,.8-.31,1.74-.77,2.36-1.21,2.13-1.41,2.39-3.33,1.33-5.84-1.8-4.34-7.79-7.65-12.51-5.68-.39,.12-.59,.44-.45,.52,.52,.07,.82-1.16,.77-1.5,0-.47,.17-.58,.34-.74,.28-.22,.5-.48,0-.49-.21-.07-1.06,.27-1.33,.55,.16-.1,.35-.26,.5-.35,.33-.26,.54-.34,.76-.47,.82-.59,.28-2.13-.37-2.97-1.99-2.62-6.13-3.51-9.25-2.81-1.63,.33-3.1,1.1-4.27,2.06-.16,.2-.2,.4,.03,.25,.51-.42,.55-1.37,.35-1.96-.28-.72-.55-.86-.66-.97-.44-.32-1.08-.08-1.49,.47-.26,.39-.18,.71-.03,.68,.15,.08,.29-.48,.38-.82,1.55-6-7.67-2.45-10.16-.66-.77,.41-.79,.79-.39,1.98-4.26,2.41-7.97-3.7-3.83-6.36h0Z"/><path class="cls-4" d="M237.78,297.5c-3.95-6.22-6.22-15.36-.96-21.61,2.75-2.89,5.61-5.46,9.17-7.1,4.62-1.16,9.18,2.75,8.69,7.62-.22,5.09-5.52,9.52-10.55,7.14-1.88-.88-3.16-2.44-4.03-4.23-2.51-4.88-2.87-11.19-.82-16.31,2.2-5.43,5.76-9.61,11.54-11.91,5.56-2.21,12.09,.42,13.96,6.45,2.44,7.11-6.48,15.12-12.38,8.98-1.21-1.33-1.82-3.19-1.96-4.7-.58-4.31,1.84-8.72,5-11.51,8.38-8.97,28.33-4.94,22.93,9.45-.81,2.41-4.02,5.19-6.97,3.66-2.78-1.5-2.17-4.9-.94-7.03,1.27-2.45,2.76-4.71,5.17-6.38,4.8-3.36,13.66-1.59,17.51,2.55,2.67,2.98,3.83,6.96,4.04,10.85,.07,.87,.04,1.75-.01,2.62,.26,3.57-1.99,7.56-5.45,8.74-5.75,2.35-12.24-2.92-8.81-8.82,3.79-6.7,10.33-10.45,17.7-6.99,4.45,2.08,7.64,5.54,10.01,9.72,1.52,2.93,4.49,10.17-.94,11-1.92,.18-3.61-1.23-3.8-3.14,.08-1.64-.05-3.27-.81-5.07-3.22-7.63-12.56-12.38-16.65-2.6-.03,.16,.03-.09-.18-.34-.21-.22-.27-.15-.14-.16,.96-.09,1.06-.8,.81-1.79-.84-4.25-3.03-9.83-7.25-11.38-2.91-.87-4.55,2.09-5.92,4.5l-.08,.18c-.1,.21-.11,.4-.07,.19,0-.11,.03-.35-.12-.79-.14-.43-.61-1.04-1.15-1.31-.74-.37-1.21-.34-1.7-.18-.27,.14-.04,0,.04-.3,.52-1.5,.79-3.12-.46-4.14-2.52-1.95-7.2-1.77-9.97-.03-1.88,1.3-4,2.51-4.86,4.82-.47,1.09-.45,2.92-.04,3.84,.46-.18,1.45-1.55,1.1-2.34-.72-2.34-3.08-3.05-5.25-2.11-3.38,1.36-6.06,4.58-7.26,8-1.32,3.67-.97,8.14,1.3,11.31,.06,.05,.09,.04,.01,0-.07-.04-.21-.04-.26-.02-.1,.04,.09-.09,.19-.32,.11-.22,.2-.52,.19-.71,.01-.22-.1-.18,.1,.06,.23,.18,.24,.1-.03,.15-2.51,.27-5.78,.68-7.29,2.81-2.93,4.09,1.59,9.91,5.12,12.16,.18,.09,.42,.25,.55,.22,9.59-1.58,12.36,12.04,2.93,14.34-3,.61-5.94-.7-7.55-3.09l-3.35-5.01h0Z"/></g></g><g><g><g><path class="cls-1" d="M318.99,174.34c-2.48,14.07-3.81,21.41-4.59,24.8-3.6,15.69-14.95,7.99-32.45,5.95-16.17-1.89-5.19,18.66-5.19,18.66-28.85-3.65-15.66-21.5-31.67-21.98-10.72-.32-22.5-1.54-27.71-8.73-6.89-9.52,.58-50.27,4.37-59.2,5.66-13.37,74.27-8.6,94.91,1.01"/><path class="cls-4" d="M319.42,174.41c.37,3.78,.11,7.5-.47,11.22-.72,3.65-2.55,7.07-2.38,10.91,.01,.96,.09,1.93,.2,2.94-.49,3.26-1.47,6.19-3.89,8.9-3.19,3.51-8.68,3.83-12.92,3.27-5.83-.69-10.87-1.99-16.46-2.61-1.4-.17-3.2-.42-4.53-.19-.85,.17-1.27,.26-1.61,.85-1.56,2.49-1.43,7.84,.91,10.38,.57,.67,1.3,1.38,2.22,1.68,1.82,.52,1.98,3.26,.27,4.01l-4.53,2.19c-4.89-1.74-9.86-3.33-14.3-6.37-2.19-1.52-4.18-3.48-5.62-5.72-2.14-3.13-2.79-6.69-4.94-9.45-1.99-2.48-5.4-1.96-8.23-1.72-9.24,.72-21.85,.72-27.17-8.74-3.43-5.11-3.51-11.47-3.66-17.33-.04-4.92,.21-9.78,.57-14.63,.81-9.84,1.77-19.38,4.5-29.02,3.44-15.09,31.31-11.97,42.92-11.37,14.47,1.15,28.99,1.58,43.26,4.49,2.38,.51,4.76,1.14,7.11,1.88,2.5,.88,5.52,1.38,6.19,4.48,.09,.32-.08,.65-.37,.79-1.43,.69-2.61,.91-3.96,.52-3.31-1.09-6.68-1.95-10.08-2.78-18.32-4.53-37.56-7-56.34-4.09-6.53,1.06-13.47,1.91-19.12,4.85-1.16,.88-1.48,.82-1.94,2.03-1.79,4.72-3.01,9.79-4.26,14.9-2.32,10.4-6.86,31.23-1.43,40.53,1.29,1.42,3.26,2.03,5.03,2.64,6.55,2.48,13.5,4.09,20.78,5.16,10.86,1.42,9.71,7.51,14.34,14.69,4.05,5.45,11.21,6.5,17.82,5.86l-4.27,6.2c.57-5.75-3.24-9.95-3.54-15.62-.04-7,6.89-9.84,12.92-8.76,6.16,.77,12.62,2.75,18.48,3.92,6.85,1.35,9.25-.26,11.24-6.86,1.56-2.35,2.43-5.11,2.6-7.9,.13-1.86,.09-3.75,.43-5.57,.74-3.68,1.77-7.26,3.41-10.69,.16-.41,.84-.29,.86,.15h0Z"/></g><g><path class="cls-4" d="M250.37,149.88l-.5,2.4c-.22,1.06,1.19,2.08,2.05,3.08,1.8,1.9,6.72,7.2,8.56,9.2l-1.92,.4c1.12-3.13,2.15-6.3,3.22-9.45l3.18-9.46,.44,1.55c-2.71-1.84-3.73-5.1-1.07-7.63,2.64-2.45,7.18-.9,7.87,2.6,.67,2.15-.97,4.58-2.62,5.62l.8-2.46c1.86,4.65,3.5,9.38,5.12,14.12,.54,1.58,1.08,3.16,1.59,4.75l-3.28-.64,12.15-12.63-.16,1.62c-1.67-2.6-1.37-5.93,1.88-7.12,6.12-1.62,8.09,7.09,1.82,8.37l.94-1.23c.19,4.08,.74,9.98,1.16,14.11l-3.04-1.58c4.57-3.47,9.27-6.75,14.18-9.72l-.97,2.41c-.26-1.38-.46-3.2,.31-4.69,1.45-2.88,5.74-3.45,7.91-1.1,1.64,1.63,1.78,4.46,.31,6.19-1.25,1.77-3.81,1.95-5.58,1.17l1.42-.51c-2.57,3.88-5.14,8.5-7.43,12.6l-2.34,4.32c-.15,.26-.37,.57-.71,.84-.77,.64-1.76,.58-2.6,.63l-2.44,.13-4.88,.29-9.76,.58,2.35-2.38c.13,1.98,.21,3.95,.29,5.93l-2.63-2.6c4.12-.17,8.23-.28,12.35-.3,1.51-.02,3.03,.02,4.55,.04,1.43,.02,2.57,1.2,2.55,2.63,0,.59-.22,1.14-.56,1.57-.4,.6-.76,2.18-1.06,3.05-.7,2.19-1.05,4.26-2.28,6.46,.08-.1-.36,.56-.62,.71-1.2,.87-2.03,.67-3.25,.66-12.01-.6-24.06-.3-36.06,.36-1.5,.06-3,.12-4.5,.14-.72,.01-1.29-.01-2.06-.33-2.92-1.4-2.92-5.17-3.7-7.75-.19-.81-.55-2.43-.79-3.17l-.09-1.51c-.07-1.14,.8-2.13,1.95-2.2,2.83,.1,5.65,.45,8.48,.69,2.75,.24,5.5,.42,8.24,.41l-1.24,1.26c-.01-1.7-.06-4.21-.1-5.93l1.32,1.3c-4.35,.14-10.3,.53-14.64,.86-.92,.03-3.01,.28-3.94,.22-.87,.05-2.38-.94-2.73-1.72-.95-1.39-1.83-2.72-2.72-4.09-2.67-4.04-5.14-8.36-7.62-12.46l2.97,1.18c-3.99,1.29-8.21-1.16-7.91-5.75,1.33-8.6,13.7-5.26,10.33,2.88l-.88-2.61c4.74,3.27,9.44,6.59,14.19,9.82l-2.5,1.33c.12-2.34,.18-4.69,.28-7.03,.1-2.34,.12-4.69,.19-7.03l.98,1.38c-1.68-.48-3.71-1.8-3.92-3.82-.41-2.03,.74-4.37,2.73-5.23,4.99-2.06,9.1,3.33,6.63,7.91-.04,.07-.19,.43,.08-.1,.44-.82-.17-2.68-.25-3.53h0Zm-5.6,2.25c-.02-.42,.59-1.65,.74-1.7,.13-.1,.39-.35,.49-.4,.11-.06,.28,.02,.25-.28,0-.46-.45-.92-1.1-.85-.63,.05-1.23,.67-1.14,1.53,.12,.93,1.1,1.17,1.98,1.52,.61,.2,.99,.77,.98,1.38-.03,2.34-.1,4.69-.08,7.03,0,2.34-.02,4.69,.01,7.03,.01,.88-.69,1.6-1.57,1.61-.34,0-.66-.1-.93-.28-4.92-2.98-9.89-5.88-14.83-8.83-.86-.51-1.22-1.53-.94-2.45,.19-.46,.26-1.16,.2-1.35-.07-.2-.06-.14-.25-.28-.36-.22-.68-.09-.84,.13-.11,.15-.16,.43-.03,.59,.01,.02,.07,.1,.09,.12,.14,.09-.11-.06,.07-.01,.17,.01,.65-.05,1.18-.19,1.16-.31,2.34,.18,2.95,1.14,3.46,5.57,6.81,11.16,9.84,16.96,0,.03-.05-.06-.26-.21-.25-.18-.64-.22-.51-.17,5.65,.32,12.42,.75,18.09,.86,.7,.02,1.26,.6,1.26,1.3,0,1.73-.06,4.23-.03,5.93,.02,.69-.55,1.27-1.24,1.26-5.5,.01-10.99,.93-16.48,1.29l2.09-3.71c1.58,2.78,1.86,6.05,2.87,8.91,.03,.1,.12,.2-.04,.02-.09-.14-.66-.41-.74-.37h.71c6.69,.07,13.37,.48,20.05,.53,6.94,.06,14.01-.22,20.95-.59,.05,0,.1-.03-.06,0-.1,.04-.24,.03-.66,.34-.19,.1-.58,.69-.47,.52,.09-.22,.27-.85,.41-1.43,.73-2.86,.89-5.53,2.28-8.38l2.42,4.2c-1.37,.03-2.74,.08-4.12,.08-4.19,.03-8.37-.03-12.56-.17-1.39-.05-2.47-1.21-2.43-2.6,.06-2.07,.12-4.13,.23-6.2,.06-1.23,1.11-2.18,2.34-2.11l9.78,.48c1.54,.07,5.83,.3,7.33,.35l.99,.04c.05,0-.01,.02-.03,.06,1.35-1.99,3.94-6.25,5.22-8.36,1.72-2.78,3.28-5.6,4.86-8.5,.26-.48,.82-.7,1.32-.54,1.01,.3,2.03,.37,2.55-.56,.59-1.03-.18-2.25-1.25-2.1-.28,.04-.5,.17-.72,.39-.07,.09-.05,.11-.04,.14,.01,.04-.01,.13,0,.31,0,.35,.12,.95,.28,1.55,.24,.88-.1,1.78-.8,2.29-4.72,3.38-9.64,6.45-14.69,9.31-.93,.65-2.23,.42-2.79-.58-.18-.31-.25-.66-.24-1l.25-7.08c.07-2.36,.1-4.72,.06-7.07-.02-.59,.38-1.1,.94-1.23,1.01-.24,1.88-.59,2.03-1.64,.3-1.98-2.4-2.99-3.41-1.2-.5,.87,.11,1.69,.61,2.56,.34,.53,.25,1.19-.16,1.62l-11.3,13.4c-.68,.81-1.88,.91-2.69,.23-.28-.24-.47-.54-.59-.86-1.24-3.1-2.45-6.21-3.62-9.34-1.21-3.18-2.38-6.37-3.43-9.6-.29-.88,.09-1.83,.86-2.28,.48-.28,.88-.6,1.05-.81,.56-.65-.14-1.75-.95-1.78-.72-.07-1.35,.33-1.58,1.15-.2,.88,.68,1.52,1.38,2.15,.48,.37,.64,1.01,.44,1.55l-3.45,9.37c-1.14,3.13-2.33,6.24-3.41,9.38-.26,.81-1.37,1.03-1.92,.4l-6.2-6.77-3.1-3.42c-1.12-1.15-1.7-2.29-3.9-3.38l-.83-.41h0Z"/><path class="cls-4" d="M267.27,163.76c-.77,0-2.23,2.6-3.28,4.26-.5,.8-.5,1.81,.01,2.6,.65,1.01,1.76,4.07,2.56,5.3,.22,.34,.58,.51,.94,.51s.75-.18,.98-.54c.82-1.32,1.63-3.97,2.43-5.27,.45-.74,.46-1.95,0-2.68-.4-.63-.81-1.26-1.21-1.89-.7-1.09-1.33-2.25-2.11-2.25-.05,0-.09,0-.14,.01-.05-.04-.12-.06-.18-.06h0Z"/></g></g><g><g><path class="cls-1" d="M349.79,122.92c15.52-11.73,91.57,46.77,88.78,62.12-2.79,15.36-39.66,50.51-44.8,55.9-13.14,13.76-18.72-.39-33.49-12.31-13.64-11.02-16.47,15.86-16.47,15.86-24.16-19.95-.87-30.49-15.25-40-9.63-6.37-19.66-14.25-19.92-24.43-.34-13.47,32.08-50.28,41.16-57.14Z"/><path class="cls-4" d="M346.82,118.99c6.76-3.24,12.94,.57,19.28,2.28,5.27,1.85,10.24,4.17,15.18,6.56,14.68,7.32,28.95,15.9,40.61,27.57,5.74,6,10.76,12.7,15.27,19.71,1.73,2.97,3.62,5.98,3.75,9.66-.12,2.72-.71,5.47-1.52,8.02-2.58,8.21-8.93,14.25-14.68,20.15-7.71,7.68-13.47,17.12-21.2,24.72-2.42,2.39-4.94,4.61-7.41,6.88-8.42,7.78-16.35,7.24-23.84-1.12-3.78-3.96-7.07-8.09-11.09-11.7-2.67-2.31-5.43-5.17-8.67-3.5-4.46,3.23-4.77,11.48-5.19,16.63-.03,2.64-3.32,4.21-5.39,2.61-2.83-2.01-5.49-4.32-7.76-7.2-3.32-4.04-5.5-9.81-4.95-15.22,.45-7.88,6.55-14.51-2.52-19.43-23.39-14.54-28.87-26.61-9.91-48.97,5.73-7.18,12.11-15.06,18.33-21.74,3.19-3.51,6.39-7.01,9.76-10.37,1.34-1.38,2.68-2,2.83-4.37l-.88-1.17h0Zm5.05,6.68c-2.09-.75-2.93,.71-4.26,1.77-3.45,3.09-6.68,6.44-9.76,9.91-8.08,9.31-15.81,19.18-21.1,30.35-4.36,8.79-7.37,13.46-1.06,22.42,3.44,4.82,8.29,8.76,13.19,12.21,5.24,3.22,7.49,7.62,6.58,13.72-.54,4.27-1.03,8.95,.57,12.71,1.88,4.73,5.77,8.87,10.02,13l-5.75,2.35c.26-1.54,.63-2.85,1.02-4.25,2.05-6.4,6.04-17.16,14.64-15.41,3.05,.72,5.32,2.71,7.58,4.54,4.23,3.48,8.19,7.33,12.24,10.57,6.09,4.85,9.33,4.92,14.41-.95,2.18-2.55,4.51-5.06,6.79-7.43,7.39-7.65,16.49-13.76,22.74-22.48,3.11-4.22,5.83-8.79,8.87-13.02,2.42-3.81,5.91-6.89,7.67-11.03,1.41-7.51-14.5-18.76-19.92-23.12-13.7-10.49-42.19-37.52-59.13-37.17-1.67,.12-4.32,.85-4.45,2.47l-.88-1.17h0Z"/></g><g><path class="cls-4" d="M393.83,185.82c-12.9,14.89-32.94,9.1-33.44-11.18-.36-14.68,11.55-26.25,26.47-21.83,5.47,1.65,10.11,5.88,12.28,11.15,3.2,7.6-.15,16.13-5.31,21.85h0Zm-.49-.43c8.78-10.36-1.77-27.5-14.51-27.26-11.71,.02-21.2,11.93-13.96,22.6,6.01,8.12,20.82,13.33,28.47,4.66h0Z"/><path class="cls-4" d="M368.16,211.99c-.75,1.95-1.16,3.82-1.95,5.83-.24,.52-.48,1.1-1.17,1.67-2.03,1.59-4.61-.43-6.15-1.65-3.21-2.55-5.43-5.38-8.16-6.54-2.12-1.05-5.38-1.76-7.84-2.38-3.15-.65-6.34-2.89-4.89-6.55,4.09-7.75,13.73-8.28,20.58-12.12,.84-.44,3.18-1.71,3.98-2.15,6.25-5.15,12.46-1.32,11.67,6.52-.71,6.25-4.09,11.66-6.07,17.37h0Zm-.57-.22c2.15-5.34,2.71-11.48,1.92-17.07-.17-1.12-.52-2.95-1.24-3.45-1.26-.14-2.99,1.29-4.34,1.26-9.48,.1-12.55,2.67-18.54,9.52-.73,.77-1.65,1.68-1.96,2.43,0-.02,.1-.17,.08-.56,0-.39-.24-.89-.42-1.08-.37-.37-.2-.19,.07-.14,.64,.19,3.26,.62,4,.76,4.21,.66,9.14,2.64,11.97,6.09,2.04,2.18,3.44,4.66,4.64,7.17,.02,.08-.02,.13-.1,.19-.08,.06-.13,.16-.05,.19,.16,.06,.56-.16,.88-.44,1.4-1.25,2.37-3.12,3.09-4.87h0Z"/><g><ellipse class="cls-4" cx="372.47" cy="202.08" rx="1.97" ry="10.11" transform="translate(-10.42 20.52) rotate(-3.11)"/><path class="cls-4" d="M370.34,202.2c-.07-3.37-1.96-6.81-.39-10.12,.25-.5,.6-1.01,1.22-1.28,.56-.26,1.33-.17,1.77,.22,1.53,1.39,1.1,3.79,1.41,5.61,.55,4.52,2.19,8.94,1.42,13.58-.18,1.22-.5,2.64-1.69,3.4-.62,.34-1.35,.38-2,.1-.37-.18-.8-.56-.95-.8-2.19-3.2-.54-7.24-.81-10.71h0Zm.32-.02c.09,1.76,.73,3.48,1.48,5.08,.39,.77,1.18,2.88,1.66,3.49,0,0,.02,0-.13-.12-.03-.02-.06-.04-.09-.05-.47-.29-1.23-.12-1.52,.25,.71-1.71,.9-4.29,1.15-6.21,.6-3.72,1-8.07-1.44-11.22-.09-.12-.2-.24-.28-.28-.02,0-.07-.03,.01,.07,.2,.18,.6,.2,.85,.09,.13-.08,.12-.04,.18-.08,.1-.09,.08-.06,.09-.04-.65,2.89-2.14,5.96-1.94,9.02h0Z"/></g><g><ellipse class="cls-4" cx="354.52" cy="189.04" rx="10.74" ry="2.02" transform="translate(-9.74 19.52) rotate(-3.11)"/><path class="cls-4" d="M354.4,186.86c3.69-.07,7.64-2.19,11.15-.13,.29,.19,.68,.52,.87,.95,.84,2.11-1.62,2.92-3.22,3.03l-2.9,.26c-3.81,.36-7.49,1.73-11.37,1.62-2.12-.09-4.92,.1-6.45-1.73-.54-.72-.52-1.86,.04-2.55,.38-.51,.67-.66,1.1-.91,3.4-1.71,7.27-.28,10.78-.54h0Zm.02,.32c-1.86,.1-3.69,.74-5.41,1.5-.86,.41-3.1,1.2-3.8,1.72,.34-.27,.42-.99,.19-1.4-.1-.14-.07-.15-.15-.24-.15-.14-.1-.1-.12-.12-.04,0,.07,.03,.1,.04,1.88,.72,4.54,.89,6.58,1.13,2.66,.34,5.68,.77,8.3,.1,1.4-.36,2.96-.93,3.98-1.91,0-.02,.05-.09-.05,0-.25,.27-.19,.77,0,1.05,.1,.1,.04,.07,.03,.07-3.1-.69-6.39-2.15-9.66-1.96h0Z"/></g><path class="cls-4" d="M352.37,175.88c-5.43-4.56-6.49-10.45,0-14.61,.83-.55,1.3-.9,2.47-.9,3.23,.18,3.84,4.6,1.69,6.55-1.62,1.52-4.01,.95-5.44-.53-4.58-3.86-4.72-11.4-.55-15.64,2.5-2.69,8.4-3.31,10.21,.71,.04,.11,.19,.4,.24,.51,.53,1.21,.24,2.33-.18,3.27-.49,1.38-2.3,2.96-4.07,1.97-2.28-1.44-2.19-5.38-1.22-7.53,2.39-6.22,14.7-10.07,14.18-.37-.89,5.21-8.69,3.65-7.95-1.52-.6-5.04,4.03-9.06,9.06-9.43,4.33-.26,8.66,2.46,10.13,6.59,1.16,3.26-.87,6.17-3.83,7.27-3.35,1.16-6.44-1.84-5.58-5.23,.53-2.14,1.39-4.12,3.14-5.74,2.92-1.95,7.13-1.62,9.91,.19,4.16,2.75,5.21,7.98,5.17,12.42,.08,1.99-1.47,3.66-3.46,3.74-1.99,.08-3.66-1.47-3.74-3.46-.03-.74,.16-1.43,.52-2.01,1.13-1.87,1.29-3.93,1.03-5.8-.53-3.31-3.88-4.34-6.02-1.65-.9,.87-1.57,2.15-1.87,3.41-.02,.06,0,.08-.04-.02,0-.11-.29-.39-.46-.38-.16-.02-.14,.01-.1,0,.36-.07,1.11-.77,.96-1.03-.72-2.33-3.07-3.88-5.55-3.81-2.95,.13-6.06,2.83-5.09,5.97,.15,.18,.24-.06,.2-.27-.03-.16-.13-.25-.15-.28-.08-.05,.05-.05-.04-.06-.14,.01-.43,.31-.46,.5-.01,.03-.02,.09-.01,0,.03-.39,.03-.99-.17-1.04-2.11-.49-5.14,1.5-6.01,3.5-.39,.87-.38,1.8-.05,2.68,0,0,.01,.04,0,.03-.04-.1-.32-.35-.56-.47-.21-.11-.51-.19-.82-.19-.65,.03-.95,.31-1.07,.41-.22,.23-.13,.21-.12,.18,.03-.02,.04-.09,.06,.04,.02,.07,.03,.2,.17,.44,0,0,.08,.12,.05,.07v-.03l-.03-.05c-.07-.12,.09-.09,.05-.16-.04-.07-.34-.05-.67,.11-2.99,1.79-4.33,6.84-1.8,9.46,.16,.18,.19,.02-.23,.03-.37,.06-.43,.24-.4,.18,.02-.03,.05-.15,.05-.22,.02-.07-.11-.1,.13,.23,.13,.16,.41,.29,.57,.29,.18,0,.18,0,.19,0-.98,.59-2.08,1.38-2.65,2.2-1.7,2.28,.93,4.63,2.81,5.75,2.92,1.73,.04,5.88-2.6,3.74h0Z"/><path class="cls-4" d="M397.86,159.73c3.22-1.46,7.64-2.37,10.43,.68,1.09,1.3,1.28,2.7,1.85,4.13,.44,1.14,.92,2.29,1.12,3.49-.2,2.2-2.29,4.37-4.7,4.17-4.71-.27-6.22-6.5-2.43-8.87,5.39-3.33,12.11-.03,13.67,5.84,1.35,3.92-.1,9.5-4.87,10.43-3.05,.55-5.45-1.65-5.81-4.48-.27-6.5,8.47-6.35,10.18-.9,1.14,3.25,.86,6.76-.54,9.6-1.3,3.09-4.8,5.79-8.03,3.23-3.46-2.52-.39-8.04,3.12-4.45,1.27,1.4,2.24,2.92,2.38,5.05,0,1.62-.26,3.24-.7,4.84-.96,4.29-5.41,5.94-9.31,5.24-.27-.04-.6-.15-.88-.19-2.3-.16-4.47-2.39-4.43-4.62-.13-2.61,1.91-5.68,4.9-5.2,1.51,.33,2.08,1.17,2.78,2.3,2.12,3.01,1.57,7.24-.57,9.97-2.43,3.1-5.61,5.68-9.89,5.45-1.4,0-2.57-1.14-2.43-2.56,.12-1.28,1.25-2.23,2.53-2.11,.9,.18,1.38,.5,2.58,.11,2.92-.93,6.16-4.13,5.18-7.42-.2-.55-.54-1.07-.96-1.51-.19-.25-.15-.07,.15-.04,.17,.03,.38-.02,.48-.09,.23-.17,.11-.14,.08,.08-.06,.22,.05,.46,0,.34-.03-.05-.13-.12-.14-.12,2.66-.01,6.32-1.57,6.34-4.56,.01-.72-.64-1.81-1.22-2.38,.43,.47,1.7,.31,2.12-.21,.37-.4,.51-.74,.37-1.12-.21-.24,.14,.07,.22,.06,.11,.04,.04,.02,.04,.03,0,0,.12-.03,.29-.18,1.45-1.36,2.26-4.4,1.92-6.27-.07-.68,.09-1.35-.24-2.08-.28-.63-1.27-1.08-1.92-.88-.08,.16,.27,.74,.49,.69,.92-.19,1.54-.99,1.69-2.02,.59-3.51-2.67-7.81-6.42-6.15-.46,.13-.58,.36-.51,.28,.02-.04,.02-.08,.04-.05,.18,.15,.04-.09-.29,.08-.17,.11-.12,.13-.11,.01,.35-1.58,1.06-3.8-.4-4.92-.99-.51-1.91,.2-2.9,.83-.54,.38-1.06,.88-1.44,1.44-.11,.19-.28,.43-.28,.6,.04,6.26-9.03,6.59-9.46,.36-.07-1.94,1.04-3.66,2.69-4.45l3.23-1.54h0Z"/><g><path class="cls-4" d="M348.32,211.98c2.75-3.77,.59-5.1-.52-5.91-1.11-.81-.75-.78-3.5,2.99-2.75,3.77-1.52,4.84-.41,5.65,1.11,.81,1.68,1.05,4.43-2.72Z"/><path class="cls-4" d="M348.2,211.89c.58-.76,.89-1.91,.6-2.8-.31-.82-.64-.9-1.23-1.51-.17-.16-.63-.6-.77-.76-.05-.07-.12-.11,.07-.07,.11,.03,.49-.04,.51-.16-1.12,.54-2.06,1.81-2.76,2.85-.55,.94-.92,2.69-.49,3.48,.25,.17,.76,.52,1,.69,.09,.07-.07,0-.23,.05-.16,.07-.07,.08,.06,.07,1.11-.31,2.51-.83,3.24-1.82h0Zm.24,.18c-.9,1.18-.72,2.88-1.84,3.98-.3,.26-.67,.56-1.35,.68-1.11,.16-1.86-.36-2.53-.88-.48-.38-1.13-1.06-1.37-1.99-.25-.92-.06-1.75,.22-2.34,.63-1.19,1.6-1.82,2.27-2.64,1.14-1.19,1.36-2.76,2.33-3.96,.24-.26,.87-.45,1.24-.34,.44,.1,.59,.22,.75,.29,.38,.2,.72,.34,1.1,.62,1.14,.67,1.86,2.62,1.18,3.84-.59,1.21-1.43,1.87-2,2.75h0Z"/></g><g><path class="cls-4" d="M352.71,213.46c-3.04,4.17-2.04,5.56-.93,6.37,1.11,.81,1.91,.73,4.95-3.44,3.04-4.17,.76-5.34-.35-6.15-1.11-.81-.63-.95-3.67,3.22Z"/><path class="cls-4" d="M352.84,213.56c-.93,1.14-.87,3.09-.69,4.37,.02,.41,.1,.78,.4,1.2,.11,.16,.13,.28,.22,.35,.21,.18,.78-.08,1.14-.43,.79-.71,1.21-1.82,1.61-2.87,.4-1.06,.92-1.92,1.06-2.7,.2-.95-.32-1.12-1-1.66-.22-.15-.6-.48-.59-.5,.02,0,.06,.03,.29,.09,.21,.06,.6,.04,.8-.06,.39-.2,.29-.24,.25-.21-1.02,.67-2.76,1.38-3.5,2.42h0Zm-.26-.19c1.27-1.59,.23-4.02,2.36-5.09,.33-.15,.86-.18,1.21-.08,.66,.17,1.06,.55,1.43,.77,3.59,2.13,2.42,6.35-.31,8.51-.95,.73-1.87,1.43-2.7,2.27-.45,.39-.79,.93-1.71,1.23-.48,.11-1,.02-1.37-.11-2.23-.54-2.96-3.28-1.5-4.91,.8-.99,1.9-1.57,2.58-2.6h0Z"/></g></g></g><g><g><path class="cls-1" d="M277.3,43.22c6.4-17.22,96.64-9.23,102.21,4.41,5.57,13.64-5.94,60.34-7.3,67.24-3.48,17.63-15.1,9.19-32.91,7.19-16.46-1.85-5.07,20.99-5.07,20.99-29.36-3.63-16.16-23.83-32.44-24.11-10.9-.19-22.89-1.36-28.26-9.34-7.11-10.55,.03-56.31,3.77-66.38Z"/><path class="cls-4" d="M272.94,41.6c3.74-6.01,10.59-6.11,16.51-7.96,5.13-1.21,10.27-1.88,15.41-2.48,15.4-1.62,31.12-2.03,46.32,1.34,7.61,1.87,15.01,4.65,22.16,7.95,2.88,1.49,5.92,2.92,7.89,5.79,1.29,2.23,2.21,4.71,2.86,7.16,2.12,7.84,.12,15.88-1.46,23.49-2.24,10.03-2.04,20.46-4.34,30.44-.71,3.13-1.6,6.18-2.41,9.23-2.72,10.43-9.39,14.08-19.55,11.21-5.02-1.24-9.73-2.85-14.77-3.69-3.3-.49-6.95-1.36-8.68,1.61-1.9,4.87,2.01,11.53,4.31,15.87,.89,1.53,.36,3.5-1.17,4.39-.7,.42-1.46,.48-2.22,.4-3.12-.18-6.29-.68-9.41-1.77-4.69-1.53-9.36-5.02-11.67-9.6-3.65-6.53-2.13-14.83-11.87-14.19-25.98,.31-36.51-6.57-32.74-33.96,1.15-11.74,2.88-23.87,5.15-35.41,.38-2.15,.94-4.49,1.46-6.63,.14-.77,.1-1.56-.51-2.7l-1.3-.48h0Zm7.41,2.76c-2.04,.47-1.97,2.06-2.5,3.57-1.18,4.21-2.05,8.52-2.74,12.85-1.26,8.68-2.25,17.46-2.06,26.24,.29,5.59,.81,11.45,1.76,16.83,.83,5.21,4.68,8.25,9.44,10.19,5.19,2.09,11.05,2.77,16.69,3.03,5.77-.14,9.87,2.31,12.2,7.58,1.74,3.67,3.72,7.65,6.9,9.84,3.9,2.81,9.1,4.13,14.57,5.27l-3.39,4.79c-.57-1.36-.94-2.59-1.34-3.9-1.62-6.14-3.9-16.73,3.84-19.7,2.79-.98,5.61-.54,8.34-.23,5.13,.62,10.24,1.67,15.1,2.2,7.29,.77,9.92-.8,10.99-8.07,.44-3.14,1.02-6.31,1.63-9.36,2-9.84,6.15-19.33,6.7-29.44,.33-4.94,.19-9.96,.46-14.86-.01-4.26,1.21-8.48,.51-12.67-2.77-6.73-21-7.55-27.59-8.3-4.95-.49-9.87-1.18-14.83-1.74-11.6-1.17-46.37-6.24-53.19,4.45-.45,.79-.5,1.56-.2,1.92l-1.3-.48h0Z"/></g><g><path class="cls-4" d="M303.34,67.71c-.68,.51-1.53,1.14-2.28,1.61-.13,.1-.64,.38-.73,.45-.13,.1-.22,.21-.17,.27,0,.01,.07,.12,.11,.14,.04,.02,.01,0,.02,0,0,0,.08-.02,.19-.07l.57-.35c2.91-1.82,6.54-2.46,9.9-1.73,.58,.14,1.04,.2,1.8,.53,.79,.25,1.69,1.48,1.71,2.28,0,0,.04,.11,.13,.27,.07,.13,.22,.37,.29,.46,.3,.38,.8,.48,1,.37,.15-.08,.05,0,.65-.61,1.19-1.18,2.91-2.03,4.21-2.78l.6-.37c.25-.16,.57-.41,.87-.48,.59-.21,1.1-.07,1.52-.05,.37-.08,.46-.18,.99-.59,.77-.58,1.83-1.42,2.66-1.92,1.8-.98,3.47-1.98,3.73-4.08,.07-.32,.01-.37-.11-.61-2.15-3.75-1.92-8.55,.08-12.3,.47-.88,.73-1.64,1.72-2.19,1.08-.57,1.99-.27,2.99-.08,8.09,1.82,10.86,9.65,9.53,17.04,0,.31-.24,1.72-.22,1.97,0,.03,0-.04-.04-.13-.03-.11-.14-.27-.22-.36-.2-.18-.16-.1-.03-.05,.46,.18,1.49,.58,1.97,.74,3.62,1.23,7.64,1.76,10.17-.62l1.98-1.66,.43,2.31c.57,2.9,.33,5.78-.18,8.58,0,.15,.01,.2,0,.19-.21,.06,1.29,.42,2.19,.67,6.81,1.46,2.19,7.99-.86,10.92-1.21-.62-2.34-1.47-3.09-2.67-.33-.4-.43-1.24-1-1.3-1.28,.15-.15,1.25,.24,1.87,.21,.33,2.2,2.91,2.42,3.24l-.74,.46c-5.92,3.63-13.34,.75-18.5-2.92-.15-.09-.25-.08-.11-.06,.06,0,.16-.02,.2-.04,.05-.03,.02,0,0,.03-.17,.2-.21,.59-.22,.85-.31,5.4-3.53,10.27-7.93,13.28-.16,.11-.27,.27-.13,.11,.05-.07,.12-.25,.13-.33,.01-.09,0-.11,.02-.06,1.79,5.02,2.5,10.4,2.52,15.69-3.21,.74-6.58,1.19-9.95,.35-.15-.03-.56-.17-.69-.28-1.12-.74-1.36-1.86-1.44-2.99-.23-2.91-.29-5.87-1.73-8.42-.04-.05,.05,.06,.2,.12-1.94,.44-5.68,.86-8.26,.56-5.14-.51-10.21-2.7-13.79-6.49-.04-.04,.03,0,.07,0,.02,0,.02,0,0,0-.02,0,0,0-.08,0l-.25,.03c-2.45,.31-4.94-.06-7.28-.69,0,.02,.32-.16,.27-.17-.02,0-.14,.18-.25,.41-.36,.7-1.98,3.7-2.35,4.39-2.17-.82-4.25-1.84-6.02-3.52-.56-.6-1.06-.96-1.52-1.69-.46-.9-.31-1.52-.14-2.26,.75-1.96,1.11-4.1,2.64-5.74,3.1-2.91,7.58-2.61,11.21-1.2,.2,.07,.2,.1,.27,.13,.13,.04-.06,.11-.11,.31-.78-2.15-1.39-5.93-.28-8.55,.45-1.29,1.08-2.44,1.62-3.63,.08-.24,.26-.49,.38-.7,.04-.06,.06-.11,.02,0-.01,.05-.04,.16,0,.35,.02,.07,0-.04-.01-.06-.06-.29-.24-.57-.24-.55-.03,0,.15,0,.11-.02,0,0-.01,.01-.03,.02-.02,.03,0,0-.07,.12-.54,1.03-1.54,2.96-2.09,4.01-.53,1.17-2.13,1.16-3.2,1.2-2.89,.12-5.92-1.38-7.29-3.96-.6-1.01-1.46-2.71-.07-3.5,.77-.36,1.56-.58,2.24-1.11,2.77-1.85,4.31-5.74,7.52-7.18,3.8-1.84,8.7,.78,9.59,4.83h0Zm-1.7-.51c-.3-.17-.39-.16-.52-.42-1.28-2.32-4.24-3.55-6.71-2.39-3.47,1.78-4.7,6.09-8.42,7.81-.36,.18-.76,.32-1.12,.48-.02,.01,0,.01,.04-.05,.04-.06,.06-.15,.06-.17,.07,.36,.42,.93,.62,1.3,1.4,2.55,4.5,3.4,7.17,2.76-.02,0-.04,.04,.03-.07,.38-.8,1.31-2.71,1.68-3.47,.38-.95,1.07-1.89,2.24-1.86,1.34-.02,2.16,1.39,2.34,2.35,.12,.66-.2,1.08-.44,1.52l-.06,.15-.51,1.22c-1.52,3.06-1.68,5.9-.36,9.01,.93,2.24-.86,4.21-3.27,3.93h-.62c-1.88,.06-3.91,.32-5.57,.63-.63,.14-.91,.29-1.19,.54-.41,.39-.52,.65-.82,1.34-.38,.79-.77,1.73-1.18,2.42,0-.03,.01-.05,0-.29-.02-.12-.02-.32-.22-.7-.17-.28-.1-.15-.1-.15l.04,.06,.15,.24c1.04,1.65,2.37,2.94,3.95,4.29l-1.82,.55,.05-.13,1.38-3.27c.23-.59,.69-1.44,1.43-1.81,.7-.42,1.79-.31,2.36-.17,1.33,.25,2.74,.39,4.06,.3,.74-.03,1.39-.18,2.12-.28,.86-.12,1.95,.23,2.56,.77,1.64,1.65,3.46,2.68,5.54,3.63,4.46,2.01,9.29,1.78,14.03,.85,4.76-.3,5.53,6.95,5.81,10.39l.13,1.76,.04,.42s0,.1,0,.08c-.06-.37-.75-.92-1.2-.99,2.07,.54,4.25,.52,6.49,.11l-1.66,2.04c.04-4.22-.47-8.4-1.58-12.45-.15-.55-.34-1.2-.26-1.93,0-.84,.96-1.87,1.44-2.13,1.06-.7,2.16-1.46,3.07-2.33,2.19-2.05,3.7-4.76,4.23-7.72,.17-1.31,.38-2.69,1.63-3.44,1.78-.97,3.07,.87,4.4,1.67,4.15,2.81,9.86,4.86,14.51,2.09l-.25,1.12c-.43-.56-2-2.82-2.33-3.33-1.17-1.39-.52-3.39,1.42-3.43,1.16-.06,1.76,1.1,2.19,1.96,.51,.8,1.23,1.46,2.1,1.92l-.86,.14c1.91-2.05,6.11-7.27,1.04-7.83-.72-.17-1.62-.26-2.32-.51-.33-.13-.76-.36-1.06-.8-.57-.92-.31-1.7-.32-2.15l.1-1.44c.05-1.93-.11-3.82-.71-5.55l2.41,.65-.05,.06c-3.23,3.78-9.02,3.55-13.32,2.27-1.6-.55-3.66-.77-4.38-2.71-.37-1.2-.11-2.43-.04-3.58,.87-5.93-.84-11.55-7.05-12.67,.07,0,.34-.02,.6-.16,.26-.14,.41-.32,.46-.39l.03-.05-.04,.07c-1.49,2.45-2.22,5.4-1.2,8.14,.25,.8,.79,1.57,.96,2.4,.35,1.82-.36,3.7-1.38,5.19-1.39,2.07-3.61,2.77-5.47,4.07-1.39,.98-3.11,2.47-5.1,2.01-.15-.03-.15-.02-.08-.03,.09,.03,.55-.12,.67-.23l-.09,.06-.38,.23c-1.53,.91-3.17,1.48-4.42,2.57-.5,.5-1.11,1.04-1.81,1.24-2.2,.7-4.19-.61-5-2.43-.15-.3-.32-.67-.4-1.19-.02-.18-.02-.11,0-.1-2.74-1.19-6.58-1.03-9.34,.55-.31,.14-1.1,.74-2.12,.61-2.14-.26-2.75-3.2-.88-4.25,.67-.41,1.71-.67,2.45-.92h0Z"/><path class="cls-4" d="M347.38,62.53c.68-4.62,.6-9.11-2.05-13.28,3.04-.55,5.83-.16,8.48,1.15,1.73,.85,3.22,2.01,4.31,3.63,1.28,1.92,1.53,3.99,.8,6.16-.64,1.88-2,2.97-3.93,3.38-2.03,.44-5.6-.04-7.6-1.04Z"/><path class="cls-4" d="M337.64,91.06c2.58,1.63,4.58,4.39,5.67,7.24,.39,1.18,.58,2.43,.84,3.64-2.82,1.22-5.19,3.08-8.13,4.09-1.46-1.92-2.62-4.03-3.77-6.13-.42-.89-1.07-1.94-1.22-2.89,0-.9,.24-1.42,.88-1.95,.15-.1,.52-.31,.67-.41,1.74-1.06,3.4-2.42,5.07-3.59h0Zm0,.3c-.07,.21,0,.32-.05,.46-.78,2.15-2.2,4.04-3.9,5.55l-.05,.05c.09-.05,.27-.24,.3-.3,.07-.15,.09-.05,.1-.36,0-.03,0-.11-.03-.17-.01-.08-.08-.23-.05-.16l.06,.11c1.4,2.45,2.43,5.08,3.33,7.75l-1.18-.58c2.47,.04,5.07-.79,6.75-2.71l-.24,.84c-2.18-3.01-4.17-6.84-5.06-10.45h0Z"/><path class="cls-4" d="M295.54,101.92c1.38-2.54,4.16-4.16,5.97-6.32,2.72,1.29,5.18,3.08,7.4,5.12l.98,.98-.74,.54c-1.71,1.37-3.66,2.51-4.78,4.47l-.59,.94c-.12,.16-.24,.41-.4,.53-.47,.35-.69,.41-1.18,.48-.21,0-.41,.06-.9-.17-2.38-1.56-5.24-3.55-5.75-6.56h0Zm.29,.05c2.17,1.52,4.78,2.63,6.82,4.36-.02-.02-.09-.06-.13-.08-.33-.14-.34-.07-.38-.07-.02,.01-.01,.03-.02,.05-.01,.03,0,.02-.15,.14-.02,.02-.04,.04-.05,.06,.05-.03,.15-.1,.2-.13,1.66-.91,3.28-1.98,4.38-3.54,.5-.59,.67-1.1,1.07-1.83l.23,1.52c-2.4-.98-4.7-2.16-6.78-3.7l1.85-.18c-1.88,1.49-4.04,2.21-6.2,3.11-.26,.13-.55,.21-.85,.29h0Z"/><path class="cls-4" d="M322.25,66.13c-1.14-2.87-1.44-5.9,.23-8.87,1.08-1.93,3.14-2.9,5.11-2.51,.14,1.92,.62,3.76,1.54,5.49,.13,.25-.03,.71-.16,1.03-.4,.97-1.14,1.61-2.06,2.12-1.55,.86-3.06,1.79-4.65,2.74Z"/><path class="cls-4" d="M319.87,61.64c-.43,1.89-.25,3.71,.42,5.47l-3.89,2.41c-.81-1.94-.98-3.97,.05-5.98,.69-1.35,2.05-2.1,3.42-1.89Z"/><path class="cls-4" d="M302.46,107.73c-.72,.72-1.5,1.59-2.37,2.36-.54,.48-1.3,.58-1.88,.15-1.27-.93-2.53-1.92-3.68-2.99-.67-.63-.6-1.57-.01-2.29,.42-.52,.89-1,1.35-1.49,.17-.18,.34-.36,.41-.43l6.19,4.71Z"/><path class="cls-4" d="M323.83,112.58l9.83,.52c-.04,.88-.04,1.89-.16,2.88-.09,.76-.69,1.24-1.62,1.39-2.04,.34-4.12,.21-6.2-.2-1.08-.21-1.79-.97-1.83-1.86-.04-.96-.01-1.91-.02-2.72Z"/><path class="cls-4" d="M282.78,94.36l5.43,4.71c-.8,.76-1.66,1.66-2.61,2.45-.61,.5-1.45,.48-2.02-.06-1.03-.99-2.01-2.06-2.89-3.2-.53-.68-.35-1.51,.26-2.14,.61-.64,1.27-1.24,1.82-1.76Z"/><path class="cls-4" d="M343.52,101.76c.29,.97,.61,1.92,.85,2.89,.2,.8,0,1.61-.75,1.96-1.45,.69-2.95,1.3-4.48,1.79-.84,.27-1.6-.32-1.97-1.2-.04-.1-.08-.21-.11-.32-.21-.64-.42-1.27-.64-1.93,1.21-.44,2.43-.82,3.59-1.34,1.17-.52,2.27-1.19,3.51-1.86Z"/><path class="cls-4" d="M361.57,57.02s.15-1.29-1.37-3.79c-1.7-2.79-2.98-3.27-2.98-3.27,3.84-1.29,7.73-2.66,11.68-3.85,.55-.17,1.58,.37,2,.89,.64,.8,.24,1.72-.51,2.38-1.66,1.45-3.33,2.89-5,4.33-1.29,1.11-2.58,2.23-3.82,3.31Z"/><path class="cls-4" d="M353.24,71.67c1.1,.22,1.95,.8,2.54,1.75,.39,.62,.27,1.32-.25,1.72-.57,.44-1.25,.34-1.78-.25-.82-.91-1.21-.99-2.32-.48-.72,.34-1.39,.16-1.74-.45-.34-.59-.18-1.25,.44-1.68,.94-.66,1.98-.86,3.11-.61Z"/></g></g></g></svg>