<?xml version="1.0" encoding="UTF-8"?><svg id="Layer_1" xmlns="http://www.w3.org/2000/svg" viewBox="0 0 512 512"><defs><style>.cls-1{fill:#fff;}.cls-2{fill:#65b147;}.cls-3{fill:#c9dcab;}.cls-4{fill:#222020;}.cls-5{fill:#262324;}.cls-6{fill:none;stroke:#222020;stroke-linecap:round;stroke-linejoin:round;stroke-width:4.3px;}</style></defs><path class="cls-4" d="M312.15,342.35c28.08-9.62,58.04-29.34,75.68-53.4,1.15-1.48,2.9-3.82,3.69-5.54,1.05-2.04,1.96-4.2,2.36-6.59,.64-3.49,3.98-5.8,7.47-5.16s5.8,3.98,5.16,7.47c-.34,1.84-1.45,3.37-2.92,4.3-2.22,1.38-3.98,3.02-5.61,4.73-2.12,2.43-4.81,5.47-7.01,7.86-14.96,16.11-32.37,29.85-51.02,41.43-7.9,4.88-16.06,9.57-24.4,13.71-6.14,2.58-9.74-6.51-3.42-8.8h0Z"/><path class="cls-4" d="M267.27,355.66c-20.4-12.54-39.32-27.42-55.28-45.33-2.35-2.59-5.6-6.45-7.71-9.21-2.63-3.25-4.75-6.72-8.46-9.07-7.14-5.01-.34-15.56,7.19-11.06,1.9,1.24,2.95,3.28,3,5.39,.08,2.07,.65,3.93,1.35,5.71,.52,1.54,1.85,3.6,2.74,4.98,10.03,16.38,24.95,29.27,40.99,39.59,6.43,3.97,13.21,7.77,20.24,10.49,6.31,2.65,2.04,11.76-4.06,8.52h0Z"/><g><path class="cls-3" d="M275.21,335.19c4.38-11.48,31.48-10.86,36,.14,9.63,23.45,41.95,70.1,28.11,69.85-41.46-.75-46.83,3.01-84.29,8.33-19.27,2.74,4.78-37.99,20.19-78.32Z"/><path class="cls-4" d="M273.11,334.39c2.4-4.93,7.58-7.33,12.57-8.57,4.91-1.33,9.61-1.01,14.77-1.19,7.71-.54,13.66,2.59,14.91,10.86,.86,3.39,2.9,7.21,4.4,10.4,5.38,11.01,11.33,21.78,16.73,32.84,2.71,6.19,10,18.97,7.75,25.42-1.47,3.55-4.95,2.94-8.04,2.9l-4.59-.07c-7.63-.04-15.3-.15-22.84,1.15-2.24,.38-6.74,1.24-8.97,1.66-7.53,1.08-15.2,1.42-22.78,2.46-6.12,.69-12.21,1.63-18.3,2.55-3.45,.55-7.48,1.71-10.47-.9-4.87-4.75-1.3-14.28,.22-19.82,2.77-8.88,6.33-17.5,9.78-26.09,4.58-11.42,9.13-22.8,13.1-34.28l1.77,.68h0Zm5.97,2.28c-4.81,11.47-10.19,22.58-15.42,33.69-3.14,7.44-17.47,34.61-12.78,40.62,1.59,1.46,5.22,.39,7.31,.24,9.14-1.2,18.14-3.16,27.11-5.29,6.05-1.36,12.16-2.8,18.42-2.71,11.41,.09,23.47-.36,34.83-.21,.88,.02,1.31,0,1.53-.1,.2-.11,.14-.05,.26-.3,.38-1.61-.18-3.53-.71-5.31-.87-2.75-2.07-5.51-3.35-8.23-3.94-8.25-8.61-16.12-13.15-24.1-5.28-9.01-10.3-18.27-15.09-27.61-.55-1.21-1.52-1.86-2.66-2.67-6.22-4.46-15.18-5.18-22.14-2.29-1.99,.85-3.81,2.21-4.52,4.13l.35,.14h0Z"/></g><path class="cls-4" d="M274.38,295.11c7.32,6.59,5.36,14.08,19.26,13.07,11.59-.83,17.77-10.47,18.56-11.68,.89-1.36,1.72-3.4-1.31-5.49-2.51-1.73-4.58,1.1-5.23,1.28-2.24,.62,.39,.95-9.73,.28-12.57-.83-16.58-5.01-18.8-4.45-1.75,.45-2.88,1.2-3.36,2.25-.68,1.47-.49,3.74,.62,4.74Z"/><path class="cls-4" d="M342.21,259.53c2.85,31.04-4.34,41.84-28.33,60.42-1.22,.92-4.53,3.55-5.72,4.46-18.72,14.55-43.92-1.25-54.36-18.7-4.74-9.03-6.03-19.5-6.1-29.55-.82-25.91,15.17-53.91,42.34-58.26,4.17-.7,8.4-1.12,12.71-.97,3.56,.02,6.98,.81,10.52,1.33,3.67,.43,7.83,.85,10.76,3.45,3.02,2.38,4.63,6.22,6.07,9.6,1.41,3.23,3.2,6.1,4.33,9.38,2.43,6.29,3.82,12.71,5.45,19.14l2.33-.3h0Zm-9.71,1.24c-1.14-8.82-3.43-17.58-8.98-24.38-1.85-2.05-3.99-3.65-6.09-5.21-2.16-1.45-4.23-3.29-6.82-4.5-2.64-1.13-5.53-1.59-8.4-1.9-5.78-.54-12.04-.22-17.7,1.37-17.8,5.06-29.2,22.94-31.42,40.72-1.59,10.63,.23,21.6,5.61,30.91,.69,1.33,1.57,2.55,2.26,3.87,5.38,10.41,14.18,20.38,25.89,23.43,6.51,1.68,13.42,.04,18.4-4.31,4.28-3.52,8.52-7.22,12.52-11.02,16.64-15.6,18.4-26.4,14.26-48.92l.47-.06h0Z"/><path class="cls-5" d="M340.52,258.63c7.6-1.26,9.52,3.41,10.61,7.69,1.62,6.41-4.01,8.42-8.09,10.06-5.34,2.16-5.24-3.01-5.78-6.29-.78-4.81-1.4-9.82,3.26-11.47Z"/><g><path class="cls-4" d="M420.71,313.93c3.11-4.65,3.3-10.19,3.55-15.55,.81-15.74-.72-31.58,.15-47.3,.27-5.24,1.09-10.47,1.58-15.71,.54-5.23,.59-10.49,.63-15.74,.13-15.61-.93-31.63-1.27-47.25-.75-15.72,.85-31.57,.48-47.26-.33-20.99-2.98-41.9-3.03-62.88l2.15,2.34c-7.09-.81-14.29-1.49-21.43-1.93-10.53-.55-21.24-.96-31.56,1.4-1.51,.25-3.03,.61-4.68,.26-1.54-.36-2.74-1.61-2.84-3.31-.15-2.1,1.72-3.58,3.32-4.25,8.82-3.72,18.24-4.83,27.48-6.09,7.35-.87,14.69-1.42,22.09-1.85,21.07-1.75,41.05,4.84,58.37,16.68,1.56,1.06,3.16,2.08,4.98,2.79,4.3,1.84,1.82,8.21-2.61,6.62-.61-.24-1.13-.64-1.5-1.13-2.26-2.82-5.55-4.31-8.59-6.08-9.32-4.94-19.57-7.78-29.84-9.91-10.3-1.99-20.98-4.1-31.62-3.65-12.21,.63-24.78,3.36-35.76,8.53-.15,.08-.3,.17-.41,.24-.11,.07-.2,.15-.13,.1,.03-.04,.15-.08,.44-.5,.12-.17,.2-.34,.28-.55,.67-1.57-.24-3.59-1.8-4.14-.1-.04-.24-.08-.32-.1-.08-.03-.22-.04-.25-.05-.09-.01-.08-.01-.07-.02,.14-.01,.51-.07,.87-.13,11.28-2.91,23.26-2.54,34.65-1.48,7.34,.74,14.58,1.8,21.81,3.38,1.26,.11,2.07,1.16,2.15,2.34,.93,5.25,1.48,10.49,1.89,15.76,1.62,21.04,1.14,42.17,3.02,63.19,2.85,26.29,.47,52.7-.4,79.03-.68,10.55,.53,21.1,.57,31.65-.12,13.11-2.23,26.35-3.57,39.4-.47,7.93-2.58,16.29,.93,23.82,1.42,2.79,.3,6.21-2.5,7.62-5.26,2.6-10.53-3.48-7.23-8.29h0Z"/><path class="cls-4" d="M495.86,218.83c-7.56-4.5-6.69-10.09-4.62-15.46,3.29-8.53,2.05-13.07-5.1-18.67-1.75-1.37-3.61-2.67-5.41-3.93-1.3-.91-2.61-1.82-3.89-2.77-2.32-1.72-3.23-4.62-2.48-7.96,.24-1.09,.73-1.87,1.44-2.31,1.1-.69,2.37-.4,3.4-.17,.47,.11,.97,.22,1.29,.2,1.24-.09,2.48-.1,3.72-.11,1.79-.01,3.48-.03,5.16-.27,6.12-.86,10.67-3.26,13.51-7.13,2.93-4,3.91-9.58,2.81-16.15-.56-3.37-1.39-7.77-2.84-11.91-3.28-9.37-4.25-18.6-2.98-28.22,1.05-7.9-.97-15.62-2.95-22.23-1.35-4.53-3.24-6.68-6.33-7.2-3.7-.63-15.33,.17-15.44,.18-1.65,.1-3.22,.21-4.75,.31-3.36,.24-6.53,.45-9.71,.49-3.89,0-5.6,1.5-6.63,5.62-.97,3.9-1.82,7.92-2.64,11.81-2.02,9.59-4.11,19.5-8.25,28.7-.37,.82-.2,1.41,.16,2.47,2.5,7.47,1.46,14.91-.02,21.87-1.02,4.79-.59,8.46,1.27,10.9,1.71,2.25,4.7,3.51,8.88,3.76,1.1,.07,2.2,.11,3.3,.16,2.66,.11,5.41,.23,8.12,.61l.29,.04c.92,.11,2.32,.28,3.06,1.48,.55,.89,.56,2.06,.02,3.58-1.86,5.28-.18,9.75,5.63,14.98,1.55,1.39,3.25,2.56,5.06,3.8,1.23,.84,2.46,1.69,3.64,2.61,4.06,3.16,4.85,7.01,2.42,11.78-4.21,8.26-1.96,17.75,5.47,23.07,5.89,4.22,8.74,8.24,8.71,12.3-.03,3.96-2.78,7.79-8.43,11.71-8.42,5.85-9.06,8.72-4.03,18.05,.17,.31,.34,.62,.52,.92,.35,.61,.7,1.21,.99,1.85,3.01,6.52,2.65,15.59-.89,22.04-2.91,5.33-7.58,8.57-13.5,9.39-3.26,.45-6.76,1.41-10.69,2.93-3.73,1.45-6.2,3.57-7.34,6.3-1.21,2.9-2.74,9.79-.96,13.89,.31,.72,8.41,.69,8.05-.12-1.73-3.91-.65-9.58,.17-11.58,.8-1.94,2.94-3.1,6.38-4.45,2.34-.92,4.75-1.74,7.08-2.53,1.61-.55,3.22-1.09,4.82-1.68,6.57-2.39,11.71-7.6,14.09-14.3,2.53-7.1,1.71-14.97-2.23-21.57-2.14-3.58-3.33-6.3-2.64-8.83,.69-2.54,3.15-4.31,6.89-6.35,5.47-2.98,8.6-9.21,7.79-15.51-.68-5.34-2.87-12.53-9.41-16.42Zm-23.4-59.41c-5.07-2.63-9.86-5.12-15.61-5.32-2.44-.08-4.37-.95-5.61-2.5-1.45-1.82-1.89-4.5-1.26-7.76,.2-1.04,.27-1.63,.33-2.18,.05-.46,.1-.89,.21-1.49,.46-2.6,.4-5.26-.17-7.91-1.18-5.49-.51-7.34,.97-11.41,1.63-4.48,4.36-11.99,7.13-31.01,.45-6.37,4.81-9.93,12.16-10.05,4.45-.04,8.24-.57,11.63-1.61,3.11-.96,5.32-.33,7.4,2.1,2.71,3.18,4.22,7.13,4.6,12.08,.22,2.85,.39,5.64,.02,8.39-1.3,9.78,.66,19.36,2.57,28.63,.69,3.35,1.4,6.81,1.95,10.25,.13,.81,.29,1.63,.44,2.46,.97,5.1,2.06,10.89-2.96,14.99-4.07,3.31-8.39,5.1-12.7,5.31-3.17,.16-6.33-.53-9.37-2.09l-1.72-.89Z"/></g><path class="cls-5" d="M299.66,267.05c-.83-5.04,5.84-7.45,9.1-6.52,4.77,1.36,6.11,3.9,7.98,8.14,1.42,3.21,.27,8-1.71,5.06-7.31-10.81-13.3-1.44-15.37-6.68Z"/><path class="cls-5" d="M287.12,266.39c2.38-4.52-3.17-8.92-6.56-9.07-4.95-.23-7.03,1.76-10.15,5.18-2.37,2.59-2.8,7.5,.02,5.34,10.37-7.93,13.07,2.87,16.69-1.45Z"/><path class="cls-5" d="M239.79,264.36c1.94-5.65,4.98-6.83,7.85-6.13,5.08,1.24,3.23,8.74,2.48,14.04-.57,4.02-3.98,6.93-6.77,5.58-3.96-1.92-4.67-7.04-3.55-13.48Z"/><g><g><path class="cls-3" d="M298.86,139.2s-37.05,71.62-42.97,96.49c-5.92,24.87,52.38,1.65,74.73,8.71,22.35,7.06-17.21-57.3-31.77-105.2Z"/><path class="cls-4" d="M299.08,142.76c-2.7,4.65-5.15,9.44-7.41,14.32-2.77,5.86-5.45,11.65-6.56,18.13-.77,3.17-1.86,6.18-3.57,8.9-1.74,2.7-3.9,5.22-5.21,8.13-2.8,5.74-5.53,11.5-8.17,17.3-2.63,5.8-5.17,11.64-7.4,17.56-1.3,4.34-5.69,12.45-1.75,15.99,4.4,3.43,11.7,2.74,17.26,2.53,6.33-.44,12.69-1.22,18.95-2.35,6.32-1.08,12.62-2.71,19.19-3.08,5.39-.04,11.04,.13,16.28,1.84,1.14,.37,2.89,1.1,3.93,.62,1.1-1.06,.84-3.1,.71-4.88-.31-2.98-1.21-6.03-2.18-9.02-4.01-12.05-9.75-23.57-14.99-35.18-7.49-16.03-15.11-32.05-21.23-48.68l-.82-2.3-.4-1.15c.04,.22,.38,.85,.98,1.18,.59,.37,1.34,.43,1.85,.29l.56-.16h0Zm.92-6.87c1.22,.51,2.51,2.27,2.73,3.37l.32,1.14c.62,2.25,1.34,4.59,2.03,6.81,4.75,15.21,10.78,29.98,16.84,44.72,3.69,8.87,7.54,17.71,10.97,26.71,2.32,6.1,4.78,12.17,6.02,18.63,1.38,6.65-1.52,11.48-8.97,9.31-.52-.1-1.06-.27-1.59-.34-7.6-1.21-15.4,.21-23.09,.26-6.37,.31-12.77,.94-19.11,1.73-11.11,1.3-36.51,5.48-32.33-13.15,4.04-15.72,10.68-30.49,17.01-45.35,2.5-5.91,4.24-12.18,7.45-17.78,1.16-2.09,3.41-6.39,4.52-8.51,3.54-7.08,8.37-16.59,11.95-23.62l.55-1.07,.27-.54,.14-.27c.48-1.22,2.33-2.25,3.45-2.09l.84,.06h0Z"/></g><path class="cls-4" d="M297.35,141.3c.45-.65,.49-1.09,.44-1.31-.33-.51-.89-.84-1.34-1.26-3.2-2.61-7.82-3.58-7.28,1.91,0,.16,.02,.27,.11,.39,.07,.06,.13,.09,.17,.03,.28-.78-1.02-1.79-1.76-1.55-.21,.04-.25,.12-.39,.26-.1,.14-.35,.49-.35,1.04,0,.56,.32,.88,.38,.83,.12-.14-.17-.38-.27-.5-1.84-2.1-5.22-2.5-7.86-1.46-1.99,.67-3.91,2.41-3.97,4.48,0,.88,.5,1.17,.95,1.69-.11-.19-.8-.79-1.19-.85-.52-.17-1.08-.08-.62,.29,.15,.12,.36,.24,.47,.44,.14,.27,.14,.91,.42,1.15,.33,.28,.36-.02,.13-.17-4.38-2.57-10.04,1.53-11.77,5.54-1.3,2.76-.83,5.17,1.76,6.54-.47-.46-1.71-.7-2.37-.47-.79,.23-.99,.52-1.08,.65-.08,.14-.03,.2,0,.32,.06,.12,.04,.31,.3,1.01,.13,.34,.46,.9,.96,1.26,.49,.37,1.04,.47,1.28,.46,.41,0,.57-.28,.15-.19-6.56,.84-7.52,7.95-6.84,13.48,.12,1.47,.35,2.92,.54,4.37,.36,2.25,.51,4.86,2.1,6.63l.17,.19c.04,.06,0,.07,.01,.11,0,.13-.02,.1,.02,.07,.1-.05,.44-.52,.43-1.09,0-.3-.08-.89-.44-.79-.73,.77,.46,2.53,1.49,2.85,.26,.14,.62,.2,.84,.26,.06,.02,.15,.02,0,.05-1.96,.5-4.06,1.26-5.45,2.65-3.41,2.81-3.56,10.41,.27,12.65,3.37,2.25,.58,7.43-3.15,5.88-6.96-3.11-9.1-11.77-6.78-18.5,1.46-4.48,5.35-8.23,9.71-9.79,2.21-.72,4.56-1.47,6.86-.66,2.28,.72,3.6,3.58,2.8,5.58-1.33,3.33-5.57,5.97-9.02,4.17-11.85-6.58-10.43-23.06-1.01-31.21,1.69-1.44,3.68-2.55,5.77-3.27,.8-.3,1.68-.58,2.78-.47,3.45,.22,5.05,4.27,4.17,7.02-.68,2.99-3.77,5.61-7.22,4.84-2.24-.55-3.53-2.01-4.93-3.73-4.94-6.6-.38-14.7,5.89-18.1,3.57-2.04,7.82-3.24,11.9-1.86,1.9,.64,4.2,1.86,3.8,4.31-.57,4.13-6,6.53-8.86,2.94-4.66-6.57,1.55-11.97,7.41-14.15,4.19-1.66,9.34-1.8,13.18,1.14,.76,.56,1.4,1.29,1.75,2.19,1.22,3.01-1.24,6.18-4.16,6.58-2.65,.6-5.6-1.66-5.47-4.41,0-.71,.13-1.22,.34-1.82,.72-1.74,1.45-3.28,2.69-4.83,3.97-4.71,10.21-.82,14.15,1.78,.29,.06,.66-.08,1.45-.44,3.12,3.04-1.19,7.72-4.47,4.86h0Z"/><path class="cls-2" d="M306,166.98c-.9,7.15-4.74,13.91-10.06,18.77-2.3,2.08-4.77,4.23-7.89,4.89-3.48,.95-7.24,.73-10.54-.73-.25-.11-.3-.48-.08-.65,2.56-2.01,5.52-3.36,8.22-4.96,1.89-1.05,3.92-1.71,5.89-2.62l1-.47,.92-.6c5.12-3.38,9.17-8.23,11.89-13.78,.13-.36,.72-.23,.66,.16h0Z"/><path class="cls-2" d="M315.81,187.93c.79,5.7-1.28,11.32-4.49,15.97-6.05,8.54-19.54,12.8-29.6,13.03-5.34,.15-10.6-.44-15.67-1.62-.21-.05-.34-.26-.29-.47,.04-.18,.2-.3,.38-.3,5.15-.04,10.26-.4,15.14-1.45,7.19-1.54,14.06-4.16,19.2-9.32,5.24-5,9.94-9.79,14.58-16,.19-.31,.71-.21,.76,.16h0Z"/><path class="cls-2" d="M324.56,206.74c.25,15.12-11.04,27.23-25.02,31.52-5.14,1.67-10.44,3.01-15.86,3.22-5.32,.14-10.64-.74-15.72-2.21-3.4-1.01-6.68-2.31-9.79-4.07-.35-.19-.24-.76,.16-.8,5.89-.9,14.25-.99,20.26-1.3,6.48-.39,12.93,.2,19.19-1.15,12.91-2.53,23.75-11.91,25.96-25.21,.01-.48,.82-.51,.82,.02h0Z"/><path class="cls-4" d="M320.52,212.14c3.32-.46,6.73-3.58,7.12-7.28,.17-1.4,.09-2.91-.54-4.31-.64-1.48-1.9-3.07-2.66-4.33,.18,.38,.5,.75,.88,1.02,1.81,1.47,5.45,.47,5.47-2.03,.08-.81-.81-2.09-1.52-2.29-.03-.02-.13-.04-.1-.04l.14,.03c.61,.12,.95,.13,1.36-.46,1.27-1.81,1.53-5.3,.82-7.52-.14-.42-.32-.76-.38-.88-.08-.14,.05,.05,.43,.15,.95,.2,2.22-.1,2.97-.73,2.41-1.75-.41-5.11-2.71-4.6-.07,.02-.05,.02-.03,.02,.1,.02,.17,.02,.23,.08,.09,.09,.26,.25,.63,.16,2.83-1.36,1.17-6.74,.41-9.17-.71-1.97-1.7-3.95-3.21-5.28-.43-.36-.82-.51-.94-.51-.11-.03-.32,.02-.65,.4-.4,.44-.63,1.02-.46,1.63,.02,.15,.16,.31,0,.08-.07-.09-.47-.42-1.05-.39-.57,.04-.8,.3-.84,.32-.05,.04-.03,.04,0-.06,1.24-3.19,1.57-8.11-3.05-7.92-2.03,.12-3.66-1.09-5.57-1.53l-.17-.05h-.04s-.04-.02,.03-.04c.1-.03,.2-.07,.29-.12,.87-.36,1.93-1.55,1.73-2.48-.07-.22-.18-.18-.26-.11-.32,.51-.25,.36-.86-.02-.61-.36-1.41-.54-2.2-.35-.99,.25-1.38,.83-1.46,.97-.07,.13-.06,.14-.08,.22,.52-.62,.92-1.37,1.16-2.14,1.46-5.22-2.84-10.89-7.59-12.73-1.19-.44-2.45-.47-2.81-.1-1.1,1.13-2.91,1.15-4.03,.04s-1.15-2.91-.04-4.03c.45-.57,1.31-.74,1.92-1.01,1.33-.51,2.63-.52,3.74-.36,8.08,1.64,15.11,10.84,13.33,19.1-.5,2.26-1.96,6.58-4.99,4.62-1.58-1.4-1.91-2.99-1.78-4.94,.33-3.39,4.58-3.42,7.2-3.12,5.85,.73,11.7,5.54,11.38,11.88,0,2.07-.53,4.02-1.26,5.79-.28,.74-.79,1.63-1.55,2.23-1.93,1.6-4.7,.5-5.53-1.63-1.38-3.07-.03-6.75,2.9-8.42,8.62-4.13,14.93,12.86,12.46,19.2-.91,2.44-3.19,4.4-5.71,4.82-1.27,.36-2.67-.24-2.82-1.69-.24-1.66,.92-3.96,2.91-3.13,2.74,.98,3.69,4.17,4.07,6.69,.68,4.99-.99,12.43-7.08,12.86-1.6,0-3.32-.13-4.44-1.48-1.06-1.38-.86-3.45,.47-4.6,1.18-1.04,2.92-.32,3.5,.96,.96,2.11,.97,4.24,1.27,6.48,.13,1.7,.38,3.41,.34,5.18-.07,3.82-1.11,7.63-3.79,10.55-1.48,1.62-3.19,3.11-5.18,4.11-5.16,1-6.85-6.42-1.76-7.75h0Z"/></g><g><path class="cls-4" d="M94.22,506.28c-.15-29.65,1.19-92.57,30.78-107.99,7.02-3.73,15.31-3.34,23.01-2.97,16.33,.68,31.86,6.36,47.59,10.13,8.45,1.78,17.23,1.15,25.68,2.75,5.54,.77,11.11,1.94,16.79,2.42,5.63,.51,11.32,.11,16.91-.96,5.6-1.05,11.11-2.76,16.76-4.06,5.65-1.32,11.47-2.2,17.37-2.84,17.81-1.9,35.58,.25,53.35,.15,8.81-.22,17.75-.82,26.54,.36,8.62,.85,17.02,2.95,25.66,3.88,17.56,1.76,34.72-2.49,52.18-3.98,13.32-1.22,27.38,.53,31.87,15.39,5.36,16.91,5.82,34.86,7.26,52.37,.34,5.85,.61,11.7,.79,17.55,.09,2.93,.16,5.86,.21,8.79,.1,2.94-.14,5.85,.76,8.84,.57,1.91-.51,3.91-2.41,4.49-2.81,.89-5.47-2.01-4.42-4.7,1.05-2.84,.9-5.77,1.04-8.67,.1-2.91,.18-5.81,.24-8.72,.28-17.39,.34-34.98-2.24-52.19-.88-5.63-2-11.39-4.12-16.65-3.26-8.4-12.65-7.4-20.14-7.73-13.26,.08-29.97,.44-43.47,.37-5.88,.07-11.75,.05-17.65,.41-5.9,.34-11.86,.97-17.82,.87-11.82,.1-23-4.04-34.57-5.78-5.74-.81-11.55-.77-17.31-.42-17.43,1.07-33.82,7.05-51.08,9.47-10.24,1.28-25.36,1.56-35.85,2.19-5.99,.32-12.07,.62-18.1-.13-3.01-.37-6-.94-8.9-1.83-5.73-1.76-11.04-4.8-16.7-6.59-13.78-4.54-28.24-5.76-42.57-7.24-4.29-.34-12.41-1.76-16.75-1.51-17.63,1.01-25.99,20.09-29.69,35.22-5.17,22.34-5.7,45.99-3.48,68.76,.55,5.17-7.21,5.92-7.52,.55h0Z"/><path class="cls-4" d="M341.33,460.96c16.86,7.5,42.81,.26,60.1-4.2,10.24-2.76,20.7-6.43,31.66-5.31,10.98,.98,21.27,5.7,29.61,12.62l-.38,.74c-9.86-2.59-19.56-5.23-29.6-5.09-25.64,.4-51.01,11-76.88,6.98-5.21-.85-10.5-1.99-15.02-5.06l.49-.67h0Z"/><path class="cls-4" d="M162,479.58c24.3-8.18,50.62-10.04,76.03-7.15,8.45,.98,16.8,2.95,25.01,5.08,16.28,4.3,32.68,2.66,49.46,1.94,17.12-.78,34.14,3.31,49.7,10.26l-.3,.78c-15.84-5.44-32.46-8.21-49.13-6.34-8.39,.78-16.77,2.12-25.28,2.48-10.75,.5-21.72-.39-32.31-2.5-18.21-3.73-36.78-5.68-55.4-5.77-12.55-.08-25.05,.54-37.57,2.03l-.21-.81h0Z"/><path class="cls-4" d="M292.51,428.47c-11.3,10.88-29.86,12.22-44.08,6.91-7.28-2.78-13.58-7.38-19.85-11.18-12.62-7.7-27.52-7.29-40.92-2.22-10,3.74-20.54,9.93-31.85,11.19-11.79,1.66-23.98-2.6-32.73-10.41l.42-.72c5.24,1.84,10.32,3.38,15.72,4.06,8.65,1.14,17-.82,25.05-4.05,9.97-3.85,21.27-9.07,32.62-9.64,11.75-.59,22.73,4.34,32.93,9.48,6.53,3.59,13.6,5.55,20.55,6.92,6.87,1.42,13.68,2.67,20.7,2.61,6.94-.08,14.02-1.07,20.94-3.64l.49,.67h0Z"/><path class="cls-4" d="M461.13,411.29c-3.07-14.81-2.26-30.03-1.34-45.02,.34-10.5,5.36-33.23-3.01-40.32-6.69-5.25-17.65-1.51-25.48,.08-10.24,1.93-20.34,2.46-30.42,2.65-20.09,.25-40.08-1.1-60-3.34-9.93-1.14-19.84-2.5-29.69-4.32l.08-.95c29.89-.44,59.58,.06,89.33-1.1,9.69-.46,19.54-.91,29.06-2.33,5.1-.92,10.24-1.77,15.48-1.66,5.77,.11,12.06,1.26,16.55,5.53,11.15,10.77,3.94,32.73,2.43,46.23-1.43,9.79-2.48,19.65-2.69,29.55-.07,4.93-.09,9.94,.63,14.77l-.92,.22h0Z"/><path class="cls-4" d="M276.02,320.78c-26.2-.68-52.41-.96-78.58-.12-17.01,.81-34.62,.92-51.01,5.56-2.23,.76-4.71,1.6-5.95,3.01,0,.03,.1-.09,.16-.3-2.81,21.75-2.27,43.75-4.85,66l-.95,.06c-1.06-4.32-1.81-8.67-2.5-13.03-.66-4.36-1.26-8.73-1.69-13.12-1.18-13.37-2.17-26.75,.21-40.21,.33-1.67,.9-3.87,1.96-5.05,6.18-8.06,28.46-8.12,38.15-8.8,26.48-.95,52.66,.64,78.95,2.65,8.73,.67,17.45,1.47,26.16,2.41l-.07,.95h0Z"/></g><g><path class="cls-1" d="M175,216h0c-6.38-2.97-13.76-2.9-20.09,.17h0c-10.01,4.87-22.07,2.01-28.82-6.84h0c-4.27-5.6-10.84-8.97-17.87-9.19h0c-11.13-.34-20.47-8.48-22.34-19.46h0c-1.18-6.94-5.43-12.98-11.56-16.44h0c-9.69-5.48-14.19-17.03-10.75-27.62h0c2.18-6.7,1.22-14.02-2.6-19.93h0c-6.04-9.36-4.65-21.67,3.31-29.45h0c5.04-4.92,7.6-11.84,6.96-18.86h0c-1-11.09,5.95-21.35,16.62-24.53h0c6.75-2.01,12.23-6.96,14.93-13.46h0c4.27-10.29,15.19-16.14,26.11-14h0c6.91,1.35,14.06-.47,19.47-4.98h0c8.56-7.12,20.95-7.23,29.62-.26h0c5.49,4.41,12.67,6.11,19.55,4.64h0c10.89-2.33,21.91,3.33,26.35,13.54h0c2.81,6.46,8.38,11.3,15.16,13.2h0c10.72,3,17.85,13.13,17.04,24.24h0c-.51,7.02,2.17,13.9,7.29,18.73h0c8.1,7.64,9.7,19.93,3.83,29.39h0c-3.72,5.98-4.54,13.32-2.25,19.98h0c3.63,10.53-.67,22.16-10.26,27.8h0c-6.07,3.57-10.21,9.68-11.27,16.64h0c-1.68,11.01-10.88,19.31-22,19.84h0c-7.03,.34-13.54,3.83-17.71,9.5h0c-6.6,8.97-18.61,12.04-28.7,7.34Z"/><path class="cls-4" d="M172.89,220.53c-4.78-3.85-12.04-4.54-17.66-1.93-10.93,5.01-24.53,1.34-31.74-8.22-3.89-4.5-9.7-7.04-15.6-6.93l-1.53-.07c-8.28-.47-16.22-5.11-20.74-12.12-2.3-3.33-3.47-7.26-4.28-11.18-1.42-5.48-5.33-9.93-10.25-12.58-4.06-2.52-7.42-6.21-9.55-10.47-3.34-6.55-3.69-14.37-1.12-21.19,.31-.71,.54-1.55,.77-2.25,1.45-4.9,.84-10.53-1.69-15.04-4.99-7.87-5.69-18.08-2.07-26.63,.73-1.88,1.8-3.61,2.94-5.32,.94-1.19,2.34-2.88,3.1-4.14,2.54-4.14,3.83-8.86,3.48-13.66l-.05-1.58c-.33-9.52,5.21-18.8,13.16-23.42,2.39-1.56,5.36-2.53,8.07-3.38,3.65-1.28,6.87-3.74,9.09-6.89,1.5-2.04,2.3-4.44,3.3-6.73,4.06-8.59,12.81-14.81,22.37-15.39,2.91-.27,5.82,.23,8.7,.65,4.3,.46,8.72-.56,12.41-2.83,1.54-.93,2.94-2.19,4.52-3.06,7.98-4.86,18.56-4.96,26.63-.31,3.21,1.66,5.52,4.53,8.76,6.12,4.34,2.37,9.6,2.77,14.43,1.79,11.69-1.82,23.32,5.01,28.32,15.58,2.38,4.04,6.3,7.22,10.62,8.79,1.11,.44,2.29,.71,3.44,1.04,6.56,1.74,12.27,6.29,15.56,12.21,2.46,4.54,3.6,9.78,3.03,14.93-.08,.82-.19,1.67-.24,2.48-.28,4.77,1.14,9.62,4.16,13.44,1.05,1.38,2.51,2.65,3.56,4.02,6.27,7.51,7.74,18.54,3.57,27.42-.74,1.65-1.71,3.1-2.4,4.75-1.89,4.39-2.13,9.5-.76,14.03,2.97,7.22,3.01,16.09-.94,23.14-1.94,3.63-4.78,6.77-8.15,9.12-1.26,.81-3.03,1.94-4.17,2.85-3.56,2.92-6.17,6.88-7.32,11.4-1.44,7.74-6.23,14.88-13.07,18.8-3.37,1.98-7.22,3.18-11.12,3.43-1.85,.17-3.28,.16-5,.61-4.78,1.12-9.19,3.91-12.13,7.88-3.42,4.66-8.5,8.09-14.08,9.62-3.75,.98-7.74,1.18-11.54,.39-2.11-.5-3.86-.94-6.15-.51l-.63,1.35h0Zm3.59-7.72c1.26,2.82,3.98,2.82,6.44,3.24,4.07,.4,8.28-.33,11.93-2.22,2.94-1.52,5.43-3.74,7.43-6.4,2.32-3.09,5.3-5.7,8.75-7.49,2.58-1.35,5.4-2.26,8.29-2.66,4.25-.32,8.29-1.07,11.88-3.41,5.66-3.45,8.91-9.55,9.38-16.08,.86-6.04,4.04-11.84,8.81-15.74,1.36-1.14,3.16-2.3,4.68-3.21,3.79-2.53,6.66-6.43,8.05-10.78,1.5-4.9,1.16-9.12-.41-14.16-.91-3.91-.89-8,.03-11.86,.78-3.74,2.76-7.05,4.69-10.26,4.53-8.71,2.14-19.53-5.45-25.7-5.11-5.02-8.16-12.22-8.03-19.45l-.03-.6-.05-1.16c-.68-8.92-7.07-16.54-15.61-19.05-6.76-2.36-12.31-7.69-15.06-14.22-2.66-8.25-9.51-14.02-18.32-14.47-2.44-.24-5.21,.4-7.59,.87-7.21,1.32-14.81-.81-20.67-5.17-6.45-4.36-15.39-4.27-21.67-.23-1.33,.77-2.59,1.96-3.79,2.93-4.56,3.72-10.34,5.82-16.24,5.98-3.56,.22-7.01-1-10.52-.89-7.53,.18-14.6,4.74-17.66,11.7-2.64,5.54-7.16,10.09-12.62,12.86-3.07,1.6-6.61,2.18-9.41,4.29-6.55,4.6-9.08,12.45-8.05,20.18,.29,6.85-2.35,13.84-7.26,18.6-.68,.67-1.41,1.33-2.14,1.93-6.79,5.27-8.92,15.22-4.88,22.86,1.8,3.27,4.04,6.28,5.01,9.97,1.17,3.79,1.45,7.88,.84,11.89-.65,3.21-1.48,6.45-1.04,9.75,.65,6.01,3.98,11.43,8.73,14.71,1.52,.99,3.17,1.87,4.61,2.99,5.55,4.13,9.41,10.46,10.52,17.28,.42,2.56,1.19,5.11,2.53,7.35,2.95,5.22,8.46,8.93,14.46,9.72,.6,.11,1.99,.2,2.62,.27,7.02,.75,13.71,4.48,18.01,10.04,1.88,2.58,4.27,5.03,7.1,6.56,5.56,3.18,12.75,3.56,18.57,.75,3.51-1.88,7.22-3.27,11.21-3.8,4.07-.55,8.39-.28,12.6,.97l-.63,1.35h0Z"/></g><path class="cls-4" d="M173.43,213.46c-3.11,12.68-12.21,50.01-15.18,61.97-4.14,16.89-9.23,33.58-12.38,50.7-4.28,22.68-6.11,46.08-8.16,69.04-.09,1.79-2.3,2.83-3.73,1.77-5.18-3.73-9.34-8.31-13.34-13.19-15.28-19.22-23.76-43.03-28.22-66.95-3.34-17.84-4.38-36.12-3.71-54.2h.5c2.18,34.12,7.84,68.74,23.68,99.33,5.82,10.94,12.82,21.56,22.18,29.76,.53,.44,1.13,.93,1.58,1.26l-3.73,1.77c1.61-15.45,4.17-30.79,7.14-46.02,6.3-30.31,9.66-61.39,18.22-91.23,4.16-14.95,8.8-29.78,14.68-44.17l.47,.16h0Z"/><g><path class="cls-2" d="M7.62,172.36c8.64,48.48,78.93,79.05,80.71,89.03,2.26,12.7,53.6-62.99,44.96-111.47-8.64-48.48-40.26-63.02-74.97-56.82C23.62,99.29-1.02,123.88,7.62,172.36Z"/><path class="cls-4" d="M12.38,171.51c-.99,9.9,2.8,18.16,8.45,26.06,16.86,23.83,44.28,36.28,65.01,56.24,1.91,2.05,4.37,4.25,4.85,7.23-.01,.08,0,.05-.17-.14-.16-.2-.65-.39-.82-.36-.18,.01-.13,.05-.02,.03,1.06-.36,1.98-1.18,2.97-2.06,3.41-3.15,6.19-7.15,8.26-11.36,3.92-8.76,8.34-17.05,13.21-25.3,2.37-4.13,4.59-8.37,6.39-12.79,3.65-8.75,5.52-18.19,7.08-27.46,1.79-10.25,3.48-20.55,2.56-30.95-.41-3.36-.79-7.22-1.55-10.52-4.15-20.97-14.7-32.44-34.08-40.73-8.38-3.59-17.67-6.21-26.97-5.55-14.07,.91-27.75,6.18-38.51,15.11-6.86,5.98-13.09,12.84-16.84,21.28-3.58,8.66-4.87,18.26-4.38,27.64,.26,4.13,.6,8.35,1.64,12.35,.27,.56,.68,1.09,1.52,1.54l1.42-.25h0Zm-8.09,1.44c1.15-1.32,1.05-2.44,.8-3.89-.45-3.66-.75-7.35-.89-11.04-.41-9.91,.38-19.96,3.67-29.43,3.22-10.18,8.23-18.55,17.02-24.94,16.01-11.6,38.03-14.32,57.35-14.06,10.18,.25,20.66,3.86,28.23,10.89,3.84,3.46,6.95,7.55,9.72,11.71,5.5,8.33,9.81,17.22,13.07,26.63,1.22,3.34,2.32,7.25,3.25,10.7,2.76,11.06,2.39,22.88-.26,33.89-1.92,8.46-7.01,19.73-10.1,27.9-3.62,9.12-6.7,18.58-11.8,27.04-3.71,6.43-9.2,11.69-13.92,17.39-2.82,3.17-5.22,6.95-9.23,8.97-2.19,.98-4.58-.23-5.13-2.56l-.09-.36s-.02-.01-.02-.02c-.97-1.44-2.44-2.48-3.91-3.55-3.28-2.21-8.56-5.51-12.05-7.63-20.64-13.13-39.5-29.85-53.05-50.44-4.14-6.29-7.2-13.13-10.77-19.8-1.16-2.31-2.27-4.69-3.32-7.17l1.42-.25h0Z"/></g><g><g><path class="cls-4" d="M446.37,417.89c-12.48,11.75-71.41,11.2-90.87,0,0-.91,0-1.73,0-2.55,0-6.49-.02-6.82,.03-13.31,0-.82,.24-1.89,.68-2.41,2.34-2.76,4.66-5.57,7.2-8,5.37-5.15,12.77-4.61,17.87,1.1,1.4,1.57,2.78,3.19,4.07,4.92,7.61,10.24,19.58,11.28,28.5,3.45,.76-.66,1.49-1.39,2.2-2.18,2.19-2.45,4.37-4.92,6.7-7.13,5.58-5.3,12.9-4.84,18.13,1.04,1.77,1.99,3.45,4.13,5.12,6.26,.31,.39,.54,1.08,.55,1.64,.03,7.55,.01,8.93,0,16.48,0,.19-.1,.39-.18,.7Z"/><path class="cls-4" d="M447.71,420.65c-1.74,.89-3.72,1.44-5.55,1.94-13.27,4.27-27.12,7.02-41.09,6.75-7.95-.07-15.69-2.43-23.46-3.51-3.87-.66-8-.21-11.96-1.09-3.95-.87-7.75-2.55-11.27-4.91-.71-.4-1.2-1.16-1.13-1.95,.1-1.55,.22-3.1,.23-4.65,.05-3.7-.7-7.39-.9-11.08-.04-1.63,.33-3.35,1.48-4.64,2.02-2.33,4.15-4.7,6.61-6.86,5.52-5.31,13.5-5.7,19.26-.79,2.18,1.89,4.63,4.92,6.62,6.98,4.93,5.02,11.77,7.92,18.75,7.08,7.08-.91,10.96-7.62,15.36-12.46,4.05-5.06,11.02-7.32,16.96-4.12,3.88,1.92,5.94,5.88,8.37,9.2,.41,.62,1.13,1.47,1.48,2.11,.5,.91,.54,1.95,.47,2.96l-.08,2.33-.11,4.66c-.03,2.65,.03,5.5,.13,8.15,0,.15,.05,.3,.12,.44,.07,.41,0,.92,.33,1.15,.03,.02,.05,.04,.09,.07,.03-.04,.02,.12-.01,.25-.04,.34-.6,1.65-.69,2h0Zm-3.98-4.51l.7,.58c1.09,.91,.71-.49,.82-1.15l.07-2.33c.12-3.91-.07-8.58-.19-12.5-.01-.35-.2-.72-.44-.97-1.75-2.11-3.87-4.36-5.91-6.15-10.44-8.8-16.86,1.64-24.12,8.4-6.39,5.6-15.79,9.11-23.57,3.94-6.94-4.02-8.22-14-16.38-16.05-4.07-1.05-7.97,1.19-10.33,4.4-1.95,2.31-3.83,4.8-5.88,7.24,.04-.06,.14-.18,.14-.2,.02-.05,0-.02-.01,.03-.17,.36-.16,.99-.2,1.39-.61,5.02-1.25,10.05-.69,15.11l-1.13-1.95c3.28,1.48,6.91,2.36,10.47,3.57,3.56,1.19,7.09,3.17,10.93,3.73,7.65,1.33,15.5,.15,23.15,.35,10.31-.19,36.27,2.01,42.42-7l.17-.26,.08-.13,.04-.06c-.05-.02-.1-.01-.15,0h0Z"/></g><g><path class="cls-4" d="M355.65,388.02c-.79-7.93,1.9-13.96,7.81-17.01,1.95-1.01,4.29-1.57,6.46-1.58,20.72-.12,41.45-.09,62.17-.06,6.94,.01,12.21,4.34,13.95,11.45,.48,1.95,.47,4.04,.74,6.62-.75-.61-1.12-.88-1.45-1.19-8.7-8.25-21.08-8.02-29.59,.51-1.91,1.92-3.85,3.84-5.96,5.5-5.8,4.57-13.33,3.96-18.63-1.31-2.29-2.27-4.47-4.71-6.99-6.65-8.02-6.16-19.32-5.27-26.65,1.88-.56,.55-1.12,1.1-1.86,1.83Z"/><path class="cls-4" d="M354.31,390.71c-.89-.95-1.63-2.63-1.47-4.01,.48-2.07,1.14-4.14,1.69-6.16,1.47-7.29,8.14-13.19,15.66-13.48,5.39-.37,10.8-.64,16.19-.45,7.19,.28,14.38,2.31,21.59,1.12,2.4-.43,4.8-1.04,7.2-1.09,4.8-.24,9.6,.8,14.39,.72,2.34-.03,5.57-.25,7.87,.4,7.24,1.39,11.85,8.84,11.52,15.9l-.08,3.57c.12,1.26-.7,2.46-2.04,2.43-1.04,.07-1.94-1.24-2.61-1.85-5.51-6.54-13.07-8.3-20.49-3.8-7.49,4.03-13.53,12.44-22.74,12.68-3.64,.11-7.32-1.19-10.22-3.41-5.61-4.5-10.16-11.11-17.84-11.6-5.1-.43-10.42,1.35-14.05,5.01-1.34,1.45-2.36,1.76-3.99,3.45l-.58,.58h0Zm2.9-5.64l-.79,.83c-.28,.3-.12,.01-.08-.27,.04-.12,.11-.22,.21-.32,2.77-2.51,6.03-4.45,9.63-5.53,6.69-1.95,14.7-1,20.27,3.4,4.83,3.86,7.81,10.46,14.59,10.76,7.36,.54,10.15-5.89,14.66-10.46,1.79-1.61,3.9-2.92,6.2-3.71,7.66-2.23,16.12-.44,22.79,3.72,1.08,.77,2.31,1.64,3.43,2.32l-3.41,1.84c-.5-2.23-.7-4.6-1.48-6.61-1.4-3.77-3.68-6.85-7.3-8.64-6.44-2.51-14.01,.19-20.76-.27-4.83-.29-9.43-1.96-14.39-1.34-4.8,.26-9.59,1.21-14.38,1.42-4.79,.17-9.59,0-14.39-.31-2.11-.16-4.35-.34-6.4,.31-5.82,1.53-10.08,8.33-7.41,14.11,.01,.03,.03,.08,.04,.09,.01-.03,.02-.06,.03-.09,.1-.56-.53-1.1-1.07-1.25h0Z"/></g><line class="cls-6" x1="400.05" y1="352.68" x2="400.05" y2="361.92"/><g><polygon class="cls-2" points="400.05 332.6 404.39 339.85 412.33 341.92 407.07 348.47 407.64 357 400.05 353.79 392.46 357 393.03 348.47 387.77 341.92 395.71 339.85 400.05 332.6"/><path class="cls-4" d="M400.05,332.43c1.68,2.1,3.74,4.44,5.34,6.82l-.71-.53c2.7,.48,5.36,1.11,8.03,1.74,1.06,.22,1.5,1.59,.79,2.39-1.72,2.21-3.64,4.26-5.63,6.26l.22-.71c-.11,2.86-.16,5.72,.05,8.57,.04,.36-.36,.65-.7,.5-2.54-1.06-5.13-1.99-7.75-2.83h.71l-3.66,1.92c-1.22,.63-2.46,1.23-3.7,1.82-.73,.34-1.59,.03-1.94-.69-.12-.25-.15-.52-.14-.78,.08-2.85,.18-5.7,.3-8.55l.39,1.23c-1.79-2.15-3.51-4.36-5.18-6.62-.81-.9-.31-2.42,.88-2.65,2.68-.57,5.36-1.12,8.07-1.58l-.7,.53c1.63-2.38,3.67-4.68,5.33-6.83h0Zm0,.33c-1.3,2.64-2.15,5.18-3.34,7.68-.11,.22-.29,.38-.51,.46-2.65,.94-5.33,1.8-8.01,2.63l.88-2.65c1.86,2.13,3.67,4.3,5.39,6.54,.27,.34,.38,.77,.34,1.17-.26,2.84-.55,5.68-.85,8.51l-2.07-1.48c2.22-.85,5.52-1.94,7.81-2.67l.15-.05c.19-.06,.4-.04,.56,.05,2.43,1.29,4.9,2.51,7.43,3.58l-.7,.5c-.17-2.84-.61-5.67-1.1-8.49-.03-.19,0-.38,.11-.53,1.56-2.43,3.18-4.81,5.02-7.03l.79,2.39c-2.7-.76-5.39-1.53-8.04-2.45-.24-.08-.42-.26-.53-.47-1.24-2.49-2.04-5-3.34-7.68h0Z"/></g></g></svg>