<?xml version="1.0" encoding="UTF-8"?><svg id="Layer_1" xmlns="http://www.w3.org/2000/svg" viewBox="0 0 1000 150"><defs><style>.cls-1{fill:#fff;}</style></defs><g><path class="cls-1" d="M547.9,119.5c7.59-17.49,9.83-34.92,12.59-52.23,1.49-9.35,3.28-18.66,4.38-28.05,.48-4.07,2.46-5.46,5.94-5.79,2.86-.28,6.27-1.11,8.11,1.54,2.25,3.25-.71,5.77-2.42,8.35-6.73,10.14-8.3,22.05-11.01,33.48-4.36,18.36-10.67,36.39-10.53,55.62,.01,1.55-.43,3.14-.88,4.65-.99,3.34-2.39,7.23-5.85,7.81-3.3,.54-3.73-3.79-5.05-6.09-15.11-26.46-31-52.51-43.05-80.59-2.42-5.63-4.78-4.31-7.38-.73-1.83,2.52-3.26,5.4-4.51,8.28-9.62,22.16-19.68,44.1-30.84,65.54-1.91,3.68-2.86,7.85-4.5,11.68-1.23,2.85-3.54,4.69-6.79,4.54-4.07-.18-3.1-3.89-3.43-6.05-4.16-27.55-7.62-55.21-14.97-82.18-1.66-6.07-3.5-12.12-4.62-18.3-.84-4.67-.15-9.2,6.16-9.73,6.62-.55,6.35,4.34,6.23,8.45-.66,23.81,8.02,45.98,12,68.97,.83,4.82,.21,10.14,4.55,14.43,3.03-1.74,4.11-5.03,5.53-7.85,10.73-21.34,21.41-42.71,31.89-64.17,2.17-4.45,3.37-9.36,5.15-14.01,.96-2.51,2.45-5.04,5.3-5.32,2.94-.3,2.41,2.93,3.36,4.59,5.95,10.28,8.04,22.1,13.08,32.79,8.33,17.67,18.13,34.33,31.57,50.41Z"/><path class="cls-1" d="M121.09,75.23c3.49-3.84,7.85-4.03,11.97-4.02,8.35,.03,11.69-3.99,11.99-12.1,.27-7.07,1.5-14.11,2.52-21.14,.29-2.03,1.12-4.05,2.05-5.89,1.48-2.91,4.05-3.04,6.79-1.99,3.14,1.2,3.46,3.33,2.28,6.29-3.17,7.91-4.32,16.22-4.54,24.69-.3,11.62,.15,13.01,11.16,11.8,9.24-1.02,18.43,.81,27.72-1.38,9.08-2.14,12.49-4.3,13.19-13.55,.36-4.72,.21-9.48,.24-14.22,.03-3.75,.81-7.3,2.48-10.65,1.66-3.33,4.3-4.47,7.84-3.36,4.48,1.4,2.45,4.61,1.71,7.13-2.32,7.86-3.86,15.84-4.16,24.02-.43,11.6,1.43,13.29,13.23,11.72,3.7-.49,7.36-1.12,10.89,.27,1.86,.73,4.41,1.66,4.01,4.19-.35,2.23-2.56,3.15-4.78,3.44-5.87,.76-11.5-1.11-17.25-1.63-5.42-.49-7.53,1.44-7.7,6.87-.27,8.41-2.04,16.72-1.49,25.2,.97,14.77,7.24,22.44,21.36,26.72,2.19,.67,7.55-.9,5.77,4.82-1.37,4.38-3.68,7.45-9.18,6.11-10.55-2.56-17.53-9.05-21.71-18.87-5.66-13.3-5.53-27.29-4.13-41.2,.75-7.48-1.22-9.57-8.89-10.13-12.36-.91-24.5,4.31-36.83,.66-2.48-.73-3.87,1.01-4.26,3.42-1.9,11.97-3.7,23.9-1.21,36.06,2.34,11.4,10.83,15.86,20.49,19.35,2.2,.8,6.91-.94,5.7,3.82-1,3.9-2.83,8.43-8.68,6.75-12.46-3.58-21.54-10.72-24.86-23.86-3.15-12.49-2.37-25.19-1.05-37.72,.72-6.82-1.51-8.26-7.47-8.14-5.17,.1-10.43-.27-15.19-3.5Z"/><path class="cls-1" d="M709.18,39.37c.44,8.72-1.14,19.76,.7,30.78,.9,5.39,2.39,7.27,8.04,4.24,6.94-3.72,14.55-6.1,22.56-6.43,10.9-.44,17.27,4.79,19.3,15.51,2.65,13.99,.94,27.79-1.99,41.48-1.22,5.68-2.17,11.39-2.13,17.17,.02,2.99-.43,5.28-3.54,6.07-3.06,.77-6.45,1.58-9.07-.65-2.7-2.3-.01-4.84,.68-7.13,4.49-14.86,8.76-29.74,8.12-45.53-.74-18.49-13.12-25.23-29.75-16.78-9.34,4.74-14.26,10.64-13.56,21.82,.75,12.04-.2,24.17,1.78,36.19,.39,2.34,1.98,5.46-1.52,6.91-4.14,1.72-8.31,1.05-12.15-1.03-3.08-1.67-2.37-4.99-1.36-7,6.04-11.95,5.99-25,3.68-37.1-2.31-12.12,1.77-23.19,1.38-34.79-.41-12.09-.27-24.2-.38-36.3-.05-5.83-.7-11.52-3.65-16.74-1.03-1.83-2.08-3.99,.26-5.63,3.11-2.18,6.74-3.14,10.44-2.56,2.91,.45,2.1,3.32,2.12,5.22,.12,9.99,.06,19.99,.06,32.28Z"/><path class="cls-1" d="M337,98.85c-8.44-.87-16.82-.05-25.23,.49-5.66,.37-7.79,3.47-8.82,8.25-2.05,9.5,1.49,18.01,10.42,23.6,12.27,7.7,25.49,9.02,39.41,5.27,1.88-.51,4.27-3.48,6.08-.21,1.35,2.44,.69,5.21-.79,7.53-2.21,3.46-5.87,4.38-9.59,4.54-12.52,.54-24.72-1.25-36.14-6.52-16.2-7.48-22.25-22.17-17.31-40.97,5.36-20.41,24.29-34.89,45.21-34.58,14.55,.22,24.98,16.54,19.37,30.12-1.1,2.66-3.28,2.36-5.23,2.41-5.78,.15-11.57,.05-17.36,.05Zm-28.83-6.34c11.35,1,22.47,.99,33.61-.59,7.48-1.06,9.66-4.45,6.79-11.47-2.1-5.14-6.38-7.37-11.69-7.92-12.94-1.35-23.21,5.64-28.71,19.99Z"/><path class="cls-1" d="M822.59,98.91c-8.45-1-16.83-.09-25.23,.52-4.78,.34-6.83,2.6-7.8,7.14-2.16,10.14,.64,18.47,9.11,24.19,11.99,8.1,25.18,9.84,39.16,5.78,2.29-.66,5.36-4.44,7.17-.04,1.45,3.53,.52,7.4-3.13,9.72-2.48,1.57-5.3,2.21-8.27,2.24-13.06,.13-25.61-2.36-37.68-7.26-5.61-2.28-9.54-6.49-12.18-11.84-8.01-16.21-1.8-41.05,12.37-52.34,9.02-7.18,18.81-11.02,30.33-10.84,11.13,.17,16.86,4.9,18.81,16.06,.09,.52,.17,1.04,.25,1.56,2.32,15.01,1.86,15.52-13.44,15.13-3.16-.08-6.31-.01-9.47-.01Zm-12.01-5.8l.02,.26c5.75-.43,11.51-.77,17.25-1.3,7.96-.73,10.61-6.01,6.56-13.27-3.17-5.69-8.3-7.74-14.61-6.84-8.99,1.28-16.05,6.05-22.04,12.59-1.75,1.92-4.37,4.12-3.57,6.64,.97,3.05,4.52,1.63,6.96,1.85,3.12,.28,6.29,.07,9.44,.07Z"/><path class="cls-1" d="M73.31,146.87c-18.2-5.32-36.74,.24-55.18-.84-4.38-.26-6.46-.2-5.25-5.96,2.1-10.01,2.18-20.34,2.23-30.62,.1-18.66-.82-37.34,1.01-55.97,.55-5.63-1.51-10.85-2.76-16.2-.65-2.77-1.89-5.95,1.28-7.87,3.5-2.12,7.16-1.05,10.5,.76,2.73,1.48,3.94,3.41,3.31,7.04-5.32,30.52-3.78,61.29-3.14,92.04,.13,6,2.17,8.04,8,8.88,13.52,1.95,26.72-1.39,40.1-1.49,5.93-.05,7.56,2.13,5.73,7.63-1.04,3.12-3.31,2.81-5.84,2.6Z"/><path class="cls-1" d="M258.84,12.98c-.05-4.56,.49-8.41,4.8-10.73,2.67-1.44,5.6-1.94,8.12,.16,2.56,2.14,2.71,4.84,1.05,7.77-2.97,5.24-3.1,11-3.07,16.84,.13,31.28,2.98,62.56,.05,93.84-.55,5.91,1.92,11.33,3.22,16.94,.48,2.08,2.52,4.5-.83,6.1-3.66,1.75-7.49,2.69-11.43,1.28-2.97-1.06-2.37-3.79-2.11-6.08,2.61-23.32,.4-107.45,.19-126.12Z"/><path class="cls-1" d="M890.67,64.65c2.72,2,10.57-4.26,9.84,5.58-.37,4.93-2.34,7.06-6.88,3.59-5.84-4.46-12.17-4.64-18.67-2.33-5.35,1.9-8.93,5.71-9.03,11.69-.09,5.88,3.62,9.03,8.85,10.6,4.77,1.43,9.61,2.62,14.4,3.98,13.07,3.69,18.83,14.19,14.97,27.26-4.66,15.8-24.69,26.44-40.62,21.64-4.44-1.34-6.04-5.03-4.85-8.53,1.51-4.4,5.04-1.01,7.14,.02,9.21,4.53,17.56,2.78,24.92-3.44,9.92-8.38,7.84-22.32-3.98-27.6-5.49-2.45-11.41-3.88-17-6.13-5.81-2.34-10.86-5.72-11.16-12.88-.33-7.87,2.02-14.53,9.31-18.65,6.85-3.87,14.31-4.98,22.75-4.8Z"/><path class="cls-1" d="M658.14,64.79c2.63,0,5.26-.05,7.89,.02,1.93,.05,3.93,.43,3.91,2.87-.01,2.56,.59,5.53-1.51,7.47-1.72,1.59-3.56-.19-4.92-1.17-6.68-4.83-13.64-4.99-20.83-1.53-4.68,2.26-7.16,6.07-7.05,11.35,.1,4.86,3.02,7.76,7.24,9.34,5.89,2.21,11.91,4.06,17.82,6.23,13.23,4.86,17.45,14.41,12.3,27.56-5.86,14.96-23.51,23.89-38.79,19.6-1.26-.35-2.55-.76-3.68-1.4-3.26-1.85-2.76-5.26-1.86-7.68,1.1-2.93,3.87-.64,5.31,.13,8.94,4.72,17.37,3.69,25.18-2.12,10.71-7.95,9.27-22.44-2.8-28.1-5.92-2.78-12.34-4.48-18.3-7.18-12.97-5.89-14.17-21.49-2.45-29.68,5.49-3.84,13.14-5.86,22.52-5.71Z"/><path class="cls-1" d="M606.39,76.27c-.68,17.54-4.2,34.98-1.83,52.61,.45,3.36,1.41,6.66,1.85,10.03,.3,2.32,3.85,4.84,.51,6.92-3.8,2.36-8.22,3.72-12.76,2.2-2.49-.83-2.63-3.48-1.84-5.37,5.98-14.23,3.29-29.04,2.6-43.57-.41-8.71,1.36-17.45-2.06-26.35-2.56-6.67,5.08-7.54,9.56-8.39,4.88-.92,3.74,3.57,3.95,6.41,.14,1.83,.03,3.67,.03,5.51Z"/><path class="cls-1" d="M107.49,78.13c-2.1,18.88-3.95,36.65-.79,54.45,.41,2.31,.62,4.79,1.62,6.85,2.73,5.63-.51,7.25-5.03,8.46-7.65,2.05-9.42,.51-8.53-7.38,1.88-16.71,3.01-33.46,2.49-50.28-.15-4.98-.77-9.85-2.52-14.63-2.36-6.47,1.5-11.13,8.49-11.31,2.66-.07,3.22,1.46,3.43,3.21,.48,3.89,.63,7.82,.84,10.64Z"/><path class="cls-1" d="M939.95,43.15c0-1.75,0-4.62,.07-6.37,.18-4.17-.45-9.13-.05-13.3,.04-.4,.41-.69,.81-.63,1.12,.17,2.91,.13,3.6,.23,.53,.08,.08,1.84,.5,1.53,2.37-1.72,12.72-4.74,17.9,2.06,2.06,2.7,2.84,.09,4-.87,4.3-3.57,9.19-3.98,14.04-1.82,4.9,2.19,6.23,6.87,6.38,11.78,.19,6.3,.2,12.61,.03,18.91-.05,1.93,1.45,5.28-2.71,5.05-3.35-.18-2.29-2.95-2.33-4.8-.15-5.78,.11-11.57-.17-17.34-.24-4.84-.96-10.1-7.33-10.2-6.52-.1-8.12,4.69-8.18,10.22-.06,5.78,0,11.56-.11,17.34-.04,1.89,.87,4.61-2.45,4.76-3.91,.17-2.94-2.92-2.99-5.06-.15-6.04-.09-12.08-.19-18.13-.08-4.96-1.66-9.13-7.41-9.16-5.65-.03-7.59,4.11-7.83,8.98-.3,6.29-.16,12.6-.32,18.91-.05,1.92,.69,4.57-2.73,4.49-3.46-.08-2.42-2.81-2.48-4.64-.12-3.98-.06-7.97-.05-11.96Z"/><path class="cls-1" d="M921.58,10.73c.62,0,1.11,.51,1.13,1.13,.04,1.96,.13,3.92-.05,5.85-.38,4.1,.62,6.56,5.43,5.9,1.33-.18,3.43-.63,3.64,1.7,.24,2.7-1.84,2.93-3.7,2.67-4.86-.67-5.66,1.82-5.4,5.94,.3,4.7,.13,9.43,.05,14.15-.07,4.18-.23,8.28,5.99,7.31,1.26-.19,2.81-.19,2.66,1.75-.11,1.37-1.01,2.22-2.38,2.76-6.06,2.41-11.01-.73-11.25-7.48-.21-6.02,.07-12.06-.12-18.08,0-6.06-.36-6.54-5.36-6.57-.77,0-1.42-.58-1.51-1.34l-.13-1.14c-.11-.91,.62-1.7,1.53-1.69,5.29,.06,6.86-.16,4.9-11.52-.12-.7,.41-1.34,1.12-1.34,1.03,0,2.43,0,3.43,.02Z"/></g><g><path class="cls-1" d="M601.61,29.93c4.21,.72,9.26,1.82,9.16,7.87-.08,4.8-4.17,6.35-8.44,6.1-4.71-.28-9.34-2.12-9.48-7.38-.12-4.42,3.6-6.6,8.75-6.59Z"/><path class="cls-1" d="M103.09,29.82c4.43,.69,9.4,1.75,9.46,7.19,.05,4.04-3.24,7.27-7.83,6.94-4.91-.35-9.49-2.03-9.38-8.19,.08-4.78,3.7-5.7,7.74-5.95Z"/></g></svg>